Mekorot-Rashi-Bold.ufo
<glyph name="quotedbl" format="2">
  <advance width="541"/>
  <unicode hex="0022"/>
  <outline>
    <contour>
      <point x="329.7" y="655.2" type="line" smooth="yes"/>
      <point x="332.5" y="663.6"/>
      <point x="336" y="682.5"/>
      <point x="346.5" y="695.8" type="curve" smooth="yes"/>
      <point x="362.6" y="716.1"/>
      <point x="386.4" y="720.3"/>
      <point x="407.4" y="720.3" type="curve" smooth="yes"/>
      <point x="424.2" y="720.3"/>
      <point x="440.3" y="717.5"/>
      <point x="452.9" y="716.8" type="curve" smooth="yes"/>
      <point x="466.2" y="716.1"/>
      <point x="483.7" y="718.9"/>
      <point x="501.2" y="705.6" type="curve" smooth="yes"/>
      <point x="508.9" y="700" type="line"/>
      <point x="506.8" y="690.9" type="line" smooth="yes"/>
      <point x="501.2" y="669.9"/>
      <point x="502.6" y="658"/>
      <point x="494.9" y="638.4" type="curve" smooth="yes"/>
      <point x="481.6" y="605.5"/>
      <point x="460.6" y="578.2"/>
      <point x="441.7" y="552.3" type="curve" smooth="yes"/>
      <point x="371" y="448.7" type="line"/>
      <point x="331.1" y="392.7" type="line" smooth="yes"/>
      <point x="326.9" y="385.7"/>
      <point x="322.7" y="377.3"/>
      <point x="317.1" y="371" type="curve"/>
      <point x="316.4" y="371"/>
      <point x="316.4" y="370.3"/>
      <point x="315" y="369.6" type="curve"/>
      <point x="314.3" y="368.9"/>
      <point x="314.3" y="368.9"/>
      <point x="312.9" y="367.5" type="curve"/>
      <point x="312.2" y="367.5"/>
      <point x="311.5" y="366.8"/>
      <point x="310.1" y="366.1" type="curve" smooth="yes"/>
      <point x="302.4" y="361.9"/>
      <point x="294" y="361.9"/>
      <point x="289.1" y="361.9" type="curve" smooth="yes"/>
      <point x="279.3" y="361.9"/>
      <point x="269.5" y="363.3"/>
      <point x="264.6" y="363.3" type="curve" smooth="yes"/>
      <point x="248.5" y="363.3" type="line"/>
      <point x="250.6" y="379.4" type="line" smooth="yes"/>
      <point x="254.8" y="406"/>
      <point x="265.3" y="431.9"/>
      <point x="272.3" y="455" type="curve" smooth="yes"/>
    </contour>
    <contour>
      <point x="106.4" y="655.2" type="line" smooth="yes"/>
      <point x="108.5" y="662.9"/>
      <point x="112" y="681.1"/>
      <point x="121.8" y="693.7" type="curve" smooth="yes"/>
      <point x="135.8" y="712.6"/>
      <point x="155.4" y="719.6"/>
      <point x="183.4" y="719.6" type="curve" smooth="yes"/>
      <point x="200.9" y="719.6"/>
      <point x="217.7" y="717.5"/>
      <point x="231" y="716.8" type="curve" smooth="yes"/>
      <point x="231.7" y="716.8" type="line" smooth="yes"/>
      <point x="235.2" y="716.8"/>
      <point x="238.7" y="716.8"/>
      <point x="242.9" y="716.8" type="curve" smooth="yes"/>
      <point x="243.6" y="716.8" type="line" smooth="yes"/>
      <point x="249.2" y="716.8"/>
      <point x="255.5" y="716.8"/>
      <point x="262.5" y="714.7" type="curve" smooth="yes"/>
      <point x="269.5" y="713.3"/>
      <point x="277.2" y="709.1"/>
      <point x="281.4" y="700.7" type="curve" smooth="yes"/>
      <point x="282.8" y="698.6"/>
      <point x="283.5" y="695.1"/>
      <point x="284.2" y="693.7" type="curve"/>
      <point x="284.2" y="693.7"/>
      <point x="284.2" y="691.6"/>
      <point x="284.2" y="690.9" type="curve" smooth="yes"/>
      <point x="284.2" y="688.8" type="line" smooth="yes"/>
      <point x="284.2" y="679.7"/>
      <point x="282.1" y="672.7"/>
      <point x="280.7" y="667.1" type="curve" smooth="yes"/>
      <point x="275.1" y="639.1"/>
      <point x="261.1" y="614.6"/>
      <point x="247.1" y="592.9" type="curve" smooth="yes"/>
      <point x="135.8" y="431.2" type="line"/>
      <point x="105.7" y="387.8" type="line" smooth="yes"/>
      <point x="102.2" y="382.2"/>
      <point x="99.4004" y="377.3"/>
      <point x="95.2002" y="372.4" type="curve"/>
      <point x="95.2002" y="371.7"/>
      <point x="94.5" y="371"/>
      <point x="93.0996" y="370.3" type="curve"/>
      <point x="93.0996" y="369.6"/>
      <point x="92.4004" y="368.9"/>
      <point x="91" y="368.2" type="curve" smooth="yes"/>
      <point x="91" y="368.2"/>
      <point x="90.2998" y="366.8"/>
      <point x="88.2002" y="366.1" type="curve" smooth="yes"/>
      <point x="86.7998" y="365.4"/>
      <point x="82.5996" y="364"/>
      <point x="81.2002" y="363.3" type="curve"/>
      <point x="79.0996" y="363.3"/>
      <point x="77.7002" y="363.3"/>
      <point x="75.5996" y="363.3" type="curve" smooth="yes"/>
      <point x="72.7998" y="363.3"/>
      <point x="70" y="363.3"/>
      <point x="69.2998" y="363.3" type="curve" smooth="yes"/>
      <point x="24.5" y="363.3" type="line"/>
      <point x="28" y="380.1" type="line" smooth="yes"/>
      <point x="44.7998" y="452.2"/>
      <point x="68.5996" y="522.2"/>
      <point x="88.2002" y="592.2" type="curve" smooth="yes"/>
    </contour>
  </outline>
</glyph>
<glyph name="percent" format="2">
  <advance width="1064"/>
  <unicode hex="0025"/>
  <outline>
    <contour>
      <point x="834.4" y="441.7" type="curve" smooth="yes"/>
      <point x="865.9" y="439.6"/>
      <point x="909.3" y="436.1"/>
      <point x="941.5" y="410.2" type="curve" smooth="yes"/>
      <point x="970.2" y="386.4"/>
      <point x="982.8" y="350.7"/>
      <point x="989.8" y="322" type="curve" smooth="yes"/>
      <point x="998.2" y="289.1"/>
      <point x="1001.7" y="254.8"/>
      <point x="1001.7" y="220.5" type="curve" smooth="yes"/>
      <point x="1001.7" y="191.8"/>
      <point x="998.9" y="163.8"/>
      <point x="994.7" y="135.8" type="curve" smooth="yes"/>
      <point x="986.3" y="86.0996"/>
      <point x="965.3" y="-15.4004"/>
      <point x="876.4" y="-23.0996" type="curve" smooth="yes"/>
      <point x="860.3" y="-24.5"/>
      <point x="843.5" y="-25.9004"/>
      <point x="826.7" y="-25.9004" type="curve" smooth="yes"/>
      <point x="786.8" y="-25.9004"/>
      <point x="744.8" y="-20.2998"/>
      <point x="709.8" y="2.7998" type="curve" smooth="yes"/>
      <point x="681.1" y="21.7002"/>
      <point x="667.8" y="49"/>
      <point x="659.4" y="74.9004" type="curve" smooth="yes"/>
      <point x="648.2" y="110.6"/>
      <point x="643.3" y="147.7"/>
      <point x="643.3" y="184.8" type="curve" smooth="yes"/>
      <point x="643.3" y="204.4"/>
      <point x="644.7" y="224.7"/>
      <point x="647.5" y="244.3" type="curve" smooth="yes"/>
      <point x="652.4" y="278.6"/>
      <point x="661.5" y="312.2"/>
      <point x="673.4" y="345.1" type="curve" smooth="yes"/>
      <point x="678.3" y="357"/>
      <point x="681.8" y="371"/>
      <point x="692.3" y="385.7" type="curve" smooth="yes"/>
      <point x="706.3" y="403.9"/>
      <point x="728.7" y="421.4"/>
      <point x="758.1" y="433.3" type="curve" smooth="yes"/>
      <point x="768.6" y="437.5"/>
      <point x="780.5" y="441.7"/>
      <point x="794.5" y="443.1" type="curve" smooth="yes"/>
      <point x="798" y="443.1"/>
      <point x="801.5" y="443.8"/>
      <point x="804.3" y="443.8" type="curve" smooth="yes"/>
      <point x="815.5" y="443.8"/>
      <point x="825.3" y="442.4"/>
    </contour>
    <contour>
      <point x="324.1" y="2.7998" type="curve"/>
      <point x="407.4" y="2.7998" type="line"/>
      <point x="413.7" y="20.2998"/>
      <point x="422.8" y="37.0996"/>
      <point x="429.1" y="53.9004" type="curve" smooth="yes"/>
      <point x="447.3" y="98"/>
      <point x="466.9" y="142.1"/>
      <point x="488.6" y="184.8" type="curve" smooth="yes"/>
      <point x="539.7" y="285.6"/>
      <point x="592.9" y="385"/>
      <point x="649.6" y="483" type="curve" smooth="yes"/>
      <point x="674.8" y="526.4"/>
      <point x="703.5" y="569.8"/>
      <point x="725.2" y="613.9" type="curve"/>
      <point x="665.7" y="613.9" type="line" smooth="yes"/>
      <point x="662.2" y="613.9"/>
      <point x="653.8" y="614.6"/>
      <point x="648.9" y="614.6" type="curve" smooth="yes"/>
      <point x="648.2" y="614.6" type="line"/>
      <point x="648.2" y="614.6" type="line"/>
      <point x="646.8" y="614.6" type="line"/>
      <point x="646.8" y="613.9" type="line"/>
      <point x="644.7" y="614.6" type="line"/>
      <point x="642.6" y="609.7" type="line"/>
      <point x="623" y="562.8" type="line" smooth="yes"/>
      <point x="602" y="514.5"/>
      <point x="578.2" y="466.9"/>
      <point x="555.8" y="420" type="curve" smooth="yes"/>
      <point x="529.9" y="366.8"/>
      <point x="502.6" y="315"/>
      <point x="476" y="263.2" type="curve" smooth="yes"/>
      <point x="449.4" y="211.4"/>
      <point x="422.8" y="158.2"/>
      <point x="392.7" y="107.1" type="curve" smooth="yes"/>
      <point x="371.7" y="72.0996"/>
      <point x="345.1" y="37.7998"/>
    </contour>
    <contour>
      <point x="382.9" y="588" type="curve" smooth="yes"/>
      <point x="391.3" y="578.2"/>
      <point x="395.5" y="564.9"/>
      <point x="398.3" y="559.3" type="curve" smooth="yes"/>
      <point x="406.7" y="536.2"/>
      <point x="411.6" y="513.1"/>
      <point x="415.1" y="489.3" type="curve" smooth="yes"/>
      <point x="417.9" y="471.8"/>
      <point x="418.6" y="454.3"/>
      <point x="418.6" y="436.8" type="curve" smooth="yes"/>
      <point x="418.6" y="381.5"/>
      <point x="407.4" y="324.8"/>
      <point x="385" y="274.4" type="curve" smooth="yes"/>
      <point x="379.4" y="261.8"/>
      <point x="366.1" y="227.5"/>
      <point x="345.8" y="209.3" type="curve" smooth="yes"/>
      <point x="332.5" y="198.1"/>
      <point x="309.4" y="184.8"/>
      <point x="256.9" y="179.2" type="curve" smooth="yes"/>
      <point x="247.1" y="177.8"/>
      <point x="236.6" y="177.1"/>
      <point x="225.4" y="177.1" type="curve" smooth="yes"/>
      <point x="189.7" y="177.1"/>
      <point x="135.8" y="184.1"/>
      <point x="104.3" y="215.6" type="curve" smooth="yes"/>
      <point x="84.7002" y="235.2"/>
      <point x="57.4004" y="276.5"/>
      <point x="57.4004" y="362.6" type="curve" smooth="yes"/>
      <point x="57.4004" y="373.8"/>
      <point x="57.4004" y="383.6"/>
      <point x="58.0996" y="393.4" type="curve" smooth="yes"/>
      <point x="60.2002" y="423.5"/>
      <point x="58.7998" y="456.4"/>
      <point x="64.4004" y="489.3" type="curve" smooth="yes"/>
      <point x="69.2998" y="515.2"/>
      <point x="81.2002" y="540.4"/>
      <point x="91" y="562.1" type="curve" smooth="yes"/>
      <point x="100.8" y="583.8"/>
      <point x="116.2" y="612.5"/>
      <point x="146.3" y="628.6" type="curve" smooth="yes"/>
      <point x="169.4" y="640.5"/>
      <point x="193.9" y="641.2"/>
      <point x="214.2" y="643.3" type="curve" smooth="yes"/>
      <point x="221.9" y="644"/>
      <point x="229.6" y="644.7"/>
      <point x="237.3" y="644.7" type="curve" smooth="yes"/>
      <point x="287.7" y="644.7"/>
      <point x="350.7" y="626.5"/>
    </contour>
    <contour>
      <point x="648.2" y="620.9" type="line"/>
      <point x="648.2" y="614.6" type="line"/>
      <point x="647.5" y="614.6"/>
      <point x="647.5" y="614.6"/>
      <point x="646.8" y="614.6" type="curve"/>
      <point x="646.8" y="614.6" type="line"/>
      <point x="646.1" y="614.6"/>
      <point x="645.4" y="614.6"/>
      <point x="644.7" y="614.6" type="curve"/>
      <point x="644.7" y="614.6" type="line"/>
      <point x="644" y="614.6" type="line"/>
      <point x="641.2" y="613.9" type="line"/>
      <point x="641.2" y="614.6" type="line"/>
      <point x="639.8" y="614.6" type="line"/>
      <point x="640.5" y="616.7" type="line"/>
      <point x="638.4" y="617.4" type="line"/>
      <point x="641.2" y="622.3" type="line"/>
      <point x="640.5" y="623" type="line"/>
      <point x="641.2" y="623" type="line"/>
      <point x="641.9" y="624.4" type="line"/>
      <point x="642.6" y="623.7" type="line"/>
      <point x="643.3" y="624.4"/>
      <point x="645.4" y="624.4"/>
      <point x="646.8" y="624.4" type="curve" smooth="yes"/>
      <point x="647.5" y="624.4"/>
      <point x="648.2" y="624.4"/>
      <point x="648.2" y="624.4" type="curve"/>
      <point x="648.2" y="624.4" type="line"/>
      <point x="648.2" y="624.4" type="line"/>
      <point x="648.9" y="623.7"/>
      <point x="648.9" y="623"/>
      <point x="648.2" y="621.6" type="curve"/>
    </contour>
  </outline>
</glyph>
<glyph name="ampersand" format="2">
  <advance width="894"/>
  <unicode hex="0026"/>
  <outline>
    <contour>
      <point x="592.2" y="-10.5" type="curve" smooth="yes"/>
      <point x="562.1" y="6.2998"/>
      <point x="536.9" y="29.4004"/>
      <point x="513.8" y="52.5" type="curve" smooth="yes"/>
      <point x="508.2" y="58.0996"/>
      <point x="502.6" y="64.4004"/>
      <point x="497.7" y="70.7002" type="curve"/>
      <point x="492.1" y="65.7998"/>
      <point x="486.5" y="61.5996"/>
      <point x="480.9" y="57.4004" type="curve" smooth="yes"/>
      <point x="459.2" y="41.2998"/>
      <point x="434.7" y="27.2998"/>
      <point x="410.2" y="16.0996" type="curve" smooth="yes"/>
      <point x="391.3" y="7.7002"/>
      <point x="372.4" y="0"/>
      <point x="352.1" y="-5.59961" type="curve" smooth="yes"/>
      <point x="316.4" y="-16.7998"/>
      <point x="273.7" y="-24.5"/>
      <point x="231.7" y="-24.5" type="curve" smooth="yes"/>
      <point x="164.5" y="-24.5"/>
      <point x="94.5" y="-4.90039"/>
      <point x="53.9004" y="54.5996" type="curve" smooth="yes"/>
      <point x="44.7998" y="67.2002"/>
      <point x="37.7998" y="81.2002"/>
      <point x="32.9004" y="95.2002" type="curve" smooth="yes"/>
      <point x="26.5996" y="114.8"/>
      <point x="23.0996" y="135.1"/>
      <point x="21.7002" y="154.7" type="curve" smooth="yes"/>
      <point x="21.7002" y="163.1"/>
      <point x="21" y="171.5"/>
      <point x="21" y="179.9" type="curve" smooth="yes"/>
      <point x="21" y="192.5"/>
      <point x="21.7002" y="205.1"/>
      <point x="24.5" y="218.4" type="curve" smooth="yes"/>
      <point x="39.2002" y="292.6"/>
      <point x="95.9004" y="347.2"/>
      <point x="148.4" y="386.4" type="curve" smooth="yes"/>
      <point x="172.9" y="403.9"/>
      <point x="198.8" y="420"/>
      <point x="224" y="435.4" type="curve" smooth="yes"/>
      <point x="244.3" y="448.7" type="line"/>
      <point x="244.3" y="448.7" type="line"/>
      <point x="241.5" y="456.4"/>
      <point x="238.7" y="464.1"/>
      <point x="236.6" y="471.8" type="curve" smooth="yes"/>
      <point x="226.8" y="500.5"/>
      <point x="218.4" y="529.9"/>
      <point x="212.8" y="560.7" type="curve" smooth="yes"/>
      <point x="210" y="578.9"/>
      <point x="207.9" y="598.5"/>
      <point x="207.9" y="618.8" type="curve" smooth="yes"/>
      <point x="207.9" y="637"/>
      <point x="209.3" y="655.9"/>
      <point x="214.9" y="673.4" type="curve" smooth="yes"/>
      <point x="241.5" y="756"/>
      <point x="326.2" y="807.1"/>
      <point x="408.1" y="809.9" type="curve"/>
      <point x="410.2" y="810.6"/>
      <point x="411.6" y="810.6"/>
      <point x="413.7" y="810.6" type="curve" smooth="yes"/>
      <point x="507.5" y="810.6"/>
      <point x="573.3" y="727.3"/>
      <point x="573.3" y="641.9" type="curve" smooth="yes"/>
      <point x="573.3" y="623.7"/>
      <point x="570.5" y="606.2"/>
      <point x="564.2" y="588.7" type="curve" smooth="yes"/>
      <point x="539.7" y="515.9"/>
      <point x="469" y="464.1"/>
      <point x="409.5" y="436.8" type="curve"/>
      <point x="483.7" y="315.7" type="line"/>
      <point x="521.5" y="254.1" type="line"/>
      <point x="534.1" y="233.1" type="line"/>
      <point x="553" y="263.2" type="line"/>
      <point x="575.4" y="297.5" type="line"/>
      <point x="592.9" y="323.4" type="line" smooth="yes"/>
      <point x="611.8" y="352.1"/>
      <point x="630" y="385"/>
      <point x="630" y="412.3" type="curve" smooth="yes"/>
      <point x="630" y="426.3"/>
      <point x="625.1" y="438.2"/>
      <point x="614.6" y="447.3" type="curve" smooth="yes"/>
      <point x="610.4" y="451.5"/>
      <point x="605.5" y="454.3"/>
      <point x="599.2" y="456.4" type="curve" smooth="yes"/>
      <point x="587.3" y="462"/>
      <point x="573.3" y="463.4"/>
      <point x="567" y="464.1" type="curve" smooth="yes"/>
      <point x="554.4" y="466.2" type="line"/>
      <point x="554.4" y="511" type="line"/>
      <point x="826.7" y="511" type="line"/>
      <point x="826.7" y="497" type="line" smooth="yes"/>
      <point x="826.7" y="494.9"/>
      <point x="827.4" y="491.4"/>
      <point x="827.4" y="487.2" type="curve" smooth="yes"/>
      <point x="827.4" y="486.5" type="line" smooth="yes"/>
      <point x="827.4" y="481.6"/>
      <point x="827.4" y="479.5"/>
      <point x="825.3" y="475.3" type="curve" smooth="yes"/>
      <point x="825.3" y="474.6"/>
      <point x="823.9" y="471.8"/>
      <point x="822.5" y="470.4" type="curve" smooth="yes"/>
      <point x="819" y="466.9"/>
      <point x="819" y="466.2"/>
      <point x="818.3" y="466.2" type="curve"/>
      <point x="818.3" y="465.5"/>
      <point x="818.3" y="465.5"/>
      <point x="817.6" y="465.5" type="curve"/>
      <point x="816.9" y="464.8"/>
      <point x="816.9" y="464.8"/>
      <point x="815.5" y="464.1" type="curve" smooth="yes"/>
      <point x="805" y="457.8"/>
      <point x="795.9" y="457.1"/>
      <point x="788.9" y="454.3" type="curve" smooth="yes"/>
      <point x="768.6" y="446.6"/>
      <point x="751.1" y="439.6"/>
      <point x="739.2" y="427" type="curve" smooth="yes"/>
      <point x="723.1" y="409.5"/>
      <point x="710.5" y="383.6"/>
      <point x="696.5" y="360.5" type="curve" smooth="yes"/>
      <point x="620.9" y="238" type="line"/>
      <point x="591.5" y="189" type="line" smooth="yes"/>
      <point x="584.5" y="178.5"/>
      <point x="583.1" y="177.1"/>
      <point x="582.4" y="174.3" type="curve"/>
      <point x="581.7" y="173.6" type="line"/>
      <point x="581.7" y="173.6" type="line"/>
      <point x="581.7" y="170.8"/>
      <point x="585.2" y="165.2"/>
      <point x="590.8" y="158.9" type="curve" smooth="yes"/>
      <point x="602.7" y="145.6"/>
      <point x="618.1" y="133.7"/>
      <point x="634.2" y="122.5" type="curve" smooth="yes"/>
      <point x="663.6" y="102.9"/>
      <point x="701.4" y="88.2002"/>
      <point x="736.4" y="88.2002" type="curve" smooth="yes"/>
      <point x="765.8" y="88.2002"/>
      <point x="791.7" y="98.7002"/>
      <point x="810.6" y="121.1" type="curve" smooth="yes"/>
      <point x="818.3" y="130.2"/>
      <point x="822.5" y="135.1"/>
      <point x="825.3" y="141.4" type="curve" smooth="yes"/>
      <point x="832.3" y="155.4" type="line"/>
      <point x="886.2" y="122.5" type="line"/>
      <point x="879.2" y="110.6" type="line" smooth="yes"/>
      <point x="840.7" y="40.5996"/>
      <point x="758.8" y="-31.5"/>
      <point x="669.9" y="-31.5" type="curve" smooth="yes"/>
      <point x="644" y="-31.5"/>
      <point x="617.4" y="-25.2002"/>
    </contour>
  </outline>
</glyph>
<glyph name="asterisk" format="2">
  <advance width="658"/>
  <unicode hex="002A"/>
  <outline>
    <contour>
      <point x="278.6" y="746.9" type="curve" smooth="yes"/>
      <point x="294.7" y="763"/>
      <point x="316.4" y="770"/>
      <point x="337.4" y="770" type="curve" smooth="yes"/>
      <point x="380.8" y="770"/>
      <point x="403.2" y="740.6"/>
      <point x="410.2" y="719.6" type="curve" smooth="yes"/>
      <point x="413.7" y="708.4"/>
      <point x="414.4" y="697.9"/>
      <point x="414.4" y="689.5" type="curve" smooth="yes"/>
      <point x="414.4" y="681.8"/>
      <point x="413.7" y="676.9"/>
      <point x="413.7" y="669.2" type="curve" smooth="yes"/>
      <point x="413.7" y="667.8" type="line" smooth="yes"/>
      <point x="413.7" y="665"/>
      <point x="413.7" y="659.4"/>
      <point x="413.7" y="655.9" type="curve" smooth="yes"/>
      <point x="413.7" y="648.2"/>
      <point x="413" y="643.3"/>
      <point x="412.3" y="639.8" type="curve" smooth="yes"/>
      <point x="410.9" y="630.7"/>
      <point x="408.8" y="621.6"/>
      <point x="406" y="613.2" type="curve"/>
      <point x="421.4" y="627.9" type="line" smooth="yes"/>
      <point x="434.7" y="641.2"/>
      <point x="452.9" y="658.7"/>
      <point x="480.2" y="665.7" type="curve" smooth="yes"/>
      <point x="487.9" y="667.8"/>
      <point x="497" y="669.9"/>
      <point x="507.5" y="669.9" type="curve" smooth="yes"/>
      <point x="508.2" y="669.9"/>
      <point x="508.9" y="669.9"/>
      <point x="509.6" y="669.9" type="curve" smooth="yes"/>
      <point x="517.3" y="669.2"/>
      <point x="520.8" y="669.2"/>
      <point x="528.5" y="667.8" type="curve"/>
      <point x="529.9" y="667.1"/>
      <point x="532.7" y="666.4"/>
      <point x="533.4" y="665.7" type="curve"/>
      <point x="535.5" y="665.7"/>
      <point x="537.6" y="664.3"/>
      <point x="539" y="664.3" type="curve"/>
      <point x="541.1" y="662.9"/>
      <point x="543.9" y="661.5"/>
      <point x="543.9" y="661.5" type="curve" smooth="yes"/>
      <point x="570.5" y="646.8"/>
      <point x="585.9" y="616.7"/>
      <point x="585.9" y="587.3" type="curve" smooth="yes"/>
      <point x="585.9" y="587.3"/>
      <point x="585.9" y="586.6"/>
      <point x="585.9" y="585.9" type="curve" smooth="yes"/>
      <point x="585.9" y="575.4"/>
      <point x="584.5" y="569.1"/>
      <point x="581" y="559.3" type="curve" smooth="yes"/>
      <point x="576.8" y="548.1"/>
      <point x="569.8" y="539.7"/>
      <point x="563.5" y="534.1" type="curve" smooth="yes"/>
      <point x="552.3" y="524.3"/>
      <point x="528.5" y="504.7"/>
      <point x="501.2" y="494.9" type="curve" smooth="yes"/>
      <point x="494.2" y="492.8"/>
      <point x="487.9" y="491.4"/>
      <point x="482.3" y="490" type="curve"/>
      <point x="491.4" y="487.9" type="line" smooth="yes"/>
      <point x="509.6" y="484.4"/>
      <point x="536.2" y="480.2"/>
      <point x="559.3" y="458.5" type="curve" smooth="yes"/>
      <point x="563.5" y="454.3"/>
      <point x="566.3" y="452.2"/>
      <point x="567.7" y="450.1" type="curve"/>
      <point x="569.1" y="449.4"/>
      <point x="570.5" y="447.3"/>
      <point x="571.2" y="446.6" type="curve" smooth="yes"/>
      <point x="572.6" y="445.2"/>
      <point x="574" y="443.1"/>
      <point x="574.7" y="441.7" type="curve" smooth="yes"/>
      <point x="577.5" y="438.2"/>
      <point x="578.2" y="436.1"/>
      <point x="578.9" y="434.7" type="curve" smooth="yes"/>
      <point x="579.6" y="432.6"/>
      <point x="582.4" y="427.7"/>
      <point x="583.8" y="417.2" type="curve" smooth="yes"/>
      <point x="583.8" y="416.5"/>
      <point x="583.8" y="413"/>
      <point x="583.8" y="412.3" type="curve" smooth="yes"/>
      <point x="583.8" y="410.9"/>
      <point x="584.5" y="408.1"/>
      <point x="584.5" y="407.4" type="curve" smooth="yes"/>
      <point x="584.5" y="396.9"/>
      <point x="582.4" y="387.1"/>
      <point x="582.4" y="382.2" type="curve" smooth="yes"/>
      <point x="582.4" y="380.1"/>
      <point x="583.1" y="378.7"/>
      <point x="583.1" y="377.3" type="curve" smooth="yes"/>
      <point x="583.1" y="369.6"/>
      <point x="581.7" y="360.5"/>
      <point x="576.1" y="352.8" type="curve" smooth="yes"/>
      <point x="560.7" y="328.3"/>
      <point x="534.1" y="315"/>
      <point x="503.3" y="315" type="curve" smooth="yes"/>
      <point x="492.8" y="315"/>
      <point x="482.3" y="316.4"/>
      <point x="472.5" y="319.9" type="curve" smooth="yes"/>
      <point x="442.4" y="328.3"/>
      <point x="424.2" y="350.7"/>
      <point x="410.2" y="365.4" type="curve" smooth="yes"/>
      <point x="408.8" y="366.8" type="line"/>
      <point x="413.7" y="351.4"/>
      <point x="417.2" y="333.2"/>
      <point x="417.2" y="316.4" type="curve" smooth="yes"/>
      <point x="417.2" y="305.9"/>
      <point x="416.5" y="295.4"/>
      <point x="413" y="284.2" type="curve" smooth="yes"/>
      <point x="410.9" y="277.2"/>
      <point x="406.7" y="262.5"/>
      <point x="399" y="250.6" type="curve" smooth="yes"/>
      <point x="398.3" y="249.9"/>
      <point x="396.9" y="247.8"/>
      <point x="395.5" y="245.7" type="curve" smooth="yes"/>
      <point x="394.1" y="244.3"/>
      <point x="392.7" y="242.9"/>
      <point x="392" y="241.5" type="curve"/>
      <point x="390.6" y="240.8"/>
      <point x="389.2" y="238.7"/>
      <point x="387.1" y="236.6" type="curve" smooth="yes"/>
      <point x="371.7" y="225.4"/>
      <point x="354.2" y="219.1"/>
      <point x="337.4" y="219.1" type="curve" smooth="yes"/>
      <point x="294.7" y="219.1"/>
      <point x="258.3" y="252.7"/>
      <point x="252.7" y="295.4" type="curve" smooth="yes"/>
      <point x="252" y="299.6"/>
      <point x="252" y="303.8"/>
      <point x="252" y="308" type="curve" smooth="yes"/>
      <point x="252" y="330.4"/>
      <point x="261.1" y="359.1"/>
      <point x="263.2" y="364.7" type="curve" smooth="yes"/>
      <point x="264.6" y="371" type="line"/>
      <point x="264.6" y="370.3" type="line"/>
      <point x="248.5" y="352.1"/>
      <point x="228.2" y="329.7"/>
      <point x="198.8" y="321.3" type="curve" smooth="yes"/>
      <point x="189.7" y="318.5"/>
      <point x="177.1" y="315.7"/>
      <point x="163.1" y="315.7" type="curve" smooth="yes"/>
      <point x="163.1" y="315.7"/>
      <point x="161.7" y="315.7"/>
      <point x="161" y="315.7" type="curve" smooth="yes"/>
      <point x="150.5" y="316.4"/>
      <point x="144.9" y="316.4"/>
      <point x="135.1" y="319.2" type="curve" smooth="yes"/>
      <point x="133" y="319.9"/>
      <point x="130.2" y="321.3"/>
      <point x="129.5" y="321.3" type="curve"/>
      <point x="128.1" y="322"/>
      <point x="125.3" y="323.4"/>
      <point x="123.9" y="324.1" type="curve"/>
      <point x="123.2" y="324.8"/>
      <point x="119" y="326.2"/>
      <point x="116.9" y="328.3" type="curve" smooth="yes"/>
      <point x="114.8" y="330.4"/>
      <point x="107.1" y="335.3"/>
      <point x="100.1" y="348.6" type="curve" smooth="yes"/>
      <point x="90.2998" y="367.5"/>
      <point x="88.9004" y="392.7"/>
      <point x="88.9004" y="403.2" type="curve" smooth="yes"/>
      <point x="88.9004" y="404.6"/>
      <point x="88.9004" y="408.1"/>
      <point x="88.9004" y="410.9" type="curve" smooth="yes"/>
      <point x="88.9004" y="417.9"/>
      <point x="89.5996" y="424.2"/>
      <point x="91.7002" y="429.8" type="curve" smooth="yes"/>
      <point x="93.7998" y="434"/>
      <point x="100.1" y="450.1"/>
      <point x="121.8" y="468.3" type="curve" smooth="yes"/>
      <point x="137.9" y="481.6"/>
      <point x="156.1" y="488.6"/>
      <point x="175" y="493.5" type="curve"/>
      <point x="157.5" y="499.1"/>
      <point x="140.7" y="506.8"/>
      <point x="126" y="518.7" type="curve" smooth="yes"/>
      <point x="119" y="524.3"/>
      <point x="103.6" y="538.3"/>
      <point x="96.5996" y="554.4" type="curve" smooth="yes"/>
      <point x="93.7998" y="560"/>
      <point x="93.0996" y="566.3"/>
      <point x="93.0996" y="573.3" type="curve" smooth="yes"/>
      <point x="93.0996" y="580.3"/>
      <point x="93.7998" y="583.1"/>
      <point x="93.7998" y="587.3" type="curve" smooth="yes"/>
      <point x="95.2002" y="600.6"/>
      <point x="95.2002" y="611.1"/>
      <point x="98.7002" y="623" type="curve" smooth="yes"/>
      <point x="101.5" y="632.8"/>
      <point x="107.1" y="643.3"/>
      <point x="116.9" y="651.7" type="curve" smooth="yes"/>
      <point x="118.3" y="653.1"/>
      <point x="123.2" y="657.3"/>
      <point x="133.7" y="661.5" type="curve" smooth="yes"/>
      <point x="135.8" y="662.2"/>
      <point x="137.9" y="662.9"/>
      <point x="139.3" y="662.9" type="curve" smooth="yes"/>
      <point x="152.6" y="667.1"/>
      <point x="167.3" y="667.8"/>
      <point x="174.3" y="667.8" type="curve" smooth="yes"/>
      <point x="187.6" y="667.8"/>
      <point x="196" y="666.4"/>
      <point x="201.6" y="665" type="curve" smooth="yes"/>
      <point x="225.4" y="658.7"/>
      <point x="245" y="640.5"/>
      <point x="256.2" y="627.9" type="curve"/>
      <point x="254.1" y="637"/>
      <point x="252.7" y="646.8"/>
      <point x="252.7" y="656.6" type="curve" smooth="yes"/>
      <point x="252" y="660.1"/>
      <point x="252" y="664.3"/>
      <point x="252" y="668.5" type="curve" smooth="yes"/>
      <point x="252" y="715.4"/>
      <point x="268.1" y="736.4"/>
    </contour>
  </outline>
</glyph>
<glyph name="plus" format="2">
  <advance width="854"/>
  <unicode hex="002B"/>
  <outline>
    <contour>
      <point x="370.3" y="656.6" type="line"/>
      <point x="516.6" y="656.6" type="line"/>
      <point x="516.6" y="363.3" type="line"/>
      <point x="805.7" y="363.3" type="line"/>
      <point x="805.7" y="216.3" type="line"/>
      <point x="516.6" y="216.3" type="line"/>
      <point x="516.6" y="-77" type="line"/>
      <point x="370.3" y="-77" type="line"/>
      <point x="370.3" y="216.3" type="line"/>
      <point x="91" y="216.3" type="line"/>
      <point x="91" y="363.3" type="line"/>
      <point x="370.3" y="363.3" type="line"/>
    </contour>
  </outline>
</glyph>
<glyph name="comma" format="2">
  <advance width="270"/>
  <unicode hex="002C"/>
  <outline>
    <contour>
      <point x="64.4004" y="58.7998" type="line"/>
      <point x="79.7998" y="118.3" type="line" smooth="yes"/>
      <point x="83.2998" y="130.2"/>
      <point x="84.7002" y="145.6"/>
      <point x="95.2002" y="159.6" type="curve" smooth="yes"/>
      <point x="115.5" y="189"/>
      <point x="147.7" y="191.8"/>
      <point x="171.5" y="191.8" type="curve" smooth="yes"/>
      <point x="183.4" y="191.8"/>
      <point x="194.6" y="191.1"/>
      <point x="204.4" y="191.1" type="curve" smooth="yes"/>
      <point x="205.1" y="191.1" type="line" smooth="yes"/>
      <point x="205.8" y="191.1"/>
      <point x="205.8" y="191.1"/>
      <point x="207.2" y="191.1" type="curve" smooth="yes"/>
      <point x="207.9" y="191.1" type="line" smooth="yes"/>
      <point x="220.5" y="191.1"/>
      <point x="236.6" y="191.1"/>
      <point x="249.9" y="182" type="curve" smooth="yes"/>
      <point x="254.8" y="179.2"/>
      <point x="258.3" y="175.7"/>
      <point x="260.4" y="171.5" type="curve" smooth="yes"/>
      <point x="264.6" y="163.8"/>
      <point x="264.6" y="163.8"/>
      <point x="266.7" y="158.2" type="curve" smooth="yes"/>
      <point x="268.1" y="152.6"/>
      <point x="268.8" y="146.3"/>
      <point x="268.8" y="140.7" type="curve" smooth="yes"/>
      <point x="268.8" y="112"/>
      <point x="254.1" y="88.9004"/>
      <point x="233.1" y="56" type="curve" smooth="yes"/>
      <point x="100.1" y="-148.4" type="line" smooth="yes"/>
      <point x="94.5" y="-157.5"/>
      <point x="93.7998" y="-159.6"/>
      <point x="90.2998" y="-164.5" type="curve" smooth="yes"/>
      <point x="89.5996" y="-165.2"/>
      <point x="88.2002" y="-166.6"/>
      <point x="87.5" y="-168" type="curve"/>
      <point x="87.5" y="-168"/>
      <point x="85.4004" y="-170.1"/>
      <point x="84" y="-171.5" type="curve"/>
      <point x="83.2998" y="-171.5"/>
      <point x="81.2002" y="-173.6"/>
      <point x="79.0996" y="-174.3" type="curve" smooth="yes"/>
      <point x="64.4004" y="-184.1"/>
      <point x="46.2002" y="-184.1"/>
      <point x="37.7998" y="-184.1" type="curve" smooth="yes"/>
      <point x="35.7002" y="-184.1" type="line" smooth="yes"/>
      <point x="35" y="-184.1"/>
      <point x="28.7002" y="-184.1"/>
      <point x="27.2998" y="-184.1" type="curve" smooth="yes"/>
      <point x="4.2002" y="-184.1" type="line"/>
      <point x="6.2998" y="-161.7" type="line" smooth="yes"/>
      <point x="8.40039" y="-134.4"/>
      <point x="17.5" y="-116.9"/>
      <point x="24.5" y="-89.5996" type="curve" smooth="yes"/>
    </contour>
  </outline>
</glyph>
<glyph name="period" format="2">
  <advance width="270"/>
  <unicode hex="002E"/>
  <outline>
    <contour>
      <point x="239.4" y="71.4004" type="curve" smooth="yes"/>
      <point x="240.1" y="67.2002"/>
      <point x="240.1" y="63"/>
      <point x="240.1" y="59.5" type="curve" smooth="yes"/>
      <point x="240.1" y="20.2998"/>
      <point x="221.2" y="-16.0996"/>
      <point x="189" y="-37.7998" type="curve" smooth="yes"/>
      <point x="173.6" y="-48.2998"/>
      <point x="159.6" y="-53.9004"/>
      <point x="145.6" y="-55.2998" type="curve" smooth="yes"/>
      <point x="139.3" y="-56.7002"/>
      <point x="133" y="-56.7002"/>
      <point x="126.7" y="-56.7002" type="curve" smooth="yes"/>
      <point x="109.9" y="-56.7002"/>
      <point x="93.0996" y="-53.9004"/>
      <point x="77.7002" y="-46.9004" type="curve" smooth="yes"/>
      <point x="34.2998" y="-27.2998"/>
      <point x="12.5996" y="15.4004"/>
      <point x="12.5996" y="56.7002" type="curve" smooth="yes"/>
      <point x="12.5996" y="93.7998"/>
      <point x="30.0996" y="131.6"/>
      <point x="64.4004" y="154.7" type="curve" smooth="yes"/>
      <point x="81.9004" y="167.3"/>
      <point x="100.8" y="170.8"/>
      <point x="116.9" y="172.9" type="curve" smooth="yes"/>
      <point x="121.1" y="173.6"/>
      <point x="124.6" y="173.6"/>
      <point x="128.8" y="173.6" type="curve" smooth="yes"/>
      <point x="186.2" y="173.6"/>
      <point x="234.5" y="122.5"/>
    </contour>
  </outline>
</glyph>
<glyph name="slash" format="2">
  <advance width="501"/>
  <unicode hex="002F"/>
  <outline>
    <contour>
      <point x="100.1" y="134.4" type="curve" smooth="yes"/>
      <point x="264.6" y="471.1" type="line"/>
      <point x="329" y="601.3" type="line"/>
      <point x="347.2" y="639.1" type="line" smooth="yes"/>
      <point x="350.7" y="646.8"/>
      <point x="350" y="646.1"/>
      <point x="351.4" y="648.9" type="curve"/>
      <point x="352.1" y="649.6"/>
      <point x="353.5" y="651.7"/>
      <point x="353.5" y="653.1" type="curve"/>
      <point x="354.2" y="653.1"/>
      <point x="355.6" y="655.9"/>
      <point x="357" y="657.3" type="curve"/>
      <point x="357" y="658"/>
      <point x="359.8" y="660.8"/>
      <point x="361.2" y="661.5" type="curve"/>
      <point x="361.2" y="662.2" type="line"/>
      <point x="361.9" y="662.2" type="line"/>
      <point x="363.3" y="662.9"/>
      <point x="372.4" y="667.8"/>
      <point x="375.2" y="668.5" type="curve" smooth="yes"/>
      <point x="377.3" y="669.2"/>
      <point x="380.8" y="669.2"/>
      <point x="385.7" y="669.2" type="curve" smooth="yes"/>
      <point x="393.4" y="669.2"/>
      <point x="399.7" y="668.5"/>
      <point x="401.8" y="668.5" type="curve" smooth="yes"/>
      <point x="503.3" y="668.5" type="line"/>
      <point x="495.6" y="641.9" type="line" smooth="yes"/>
      <point x="490" y="621.6"/>
      <point x="480.9" y="610.4"/>
      <point x="472.5" y="593.6" type="curve" smooth="yes"/>
      <point x="422.8" y="491.4" type="line" smooth="yes"/>
      <point x="370.3" y="386.4"/>
      <point x="316.4" y="282.1"/>
      <point x="268.1" y="177.1" type="curve" smooth="yes"/>
      <point x="245.7" y="128.1"/>
      <point x="221.9" y="80.5"/>
      <point x="198.1" y="33.5996" type="curve" smooth="yes"/>
      <point x="178.5" y="-6.2998" type="line" smooth="yes"/>
      <point x="175" y="-14.7002"/>
      <point x="175.7" y="-14"/>
      <point x="173.6" y="-16.7998" type="curve"/>
      <point x="173.6" y="-18.2002"/>
      <point x="172.2" y="-20.2998"/>
      <point x="171.5" y="-21" type="curve"/>
      <point x="171.5" y="-21.7002"/>
      <point x="169.4" y="-24.5"/>
      <point x="168.7" y="-25.9004" type="curve"/>
      <point x="168" y="-26.5996"/>
      <point x="165.2" y="-29.4004"/>
      <point x="163.8" y="-30.7998" type="curve"/>
      <point x="163.8" y="-30.7998" type="line"/>
      <point x="163.1" y="-31.5" type="line"/>
      <point x="161.7" y="-32.2002"/>
      <point x="152.6" y="-37.0996"/>
      <point x="149.8" y="-37.7998" type="curve"/>
      <point x="147.7" y="-37.7998"/>
      <point x="144.2" y="-38.5"/>
      <point x="139.3" y="-38.5" type="curve" smooth="yes"/>
      <point x="131.6" y="-38.5"/>
      <point x="125.3" y="-37.7998"/>
      <point x="123.2" y="-37.7998" type="curve" smooth="yes"/>
      <point x="21.7002" y="-37.7998" type="line"/>
      <point x="29.4004" y="-10.5" type="line" smooth="yes"/>
      <point x="34.2998" y="7"/>
      <point x="42" y="16.0996"/>
      <point x="49" y="30.0996" type="curve" smooth="yes"/>
      <point x="65.0996" y="65.7998"/>
      <point x="84" y="100.1"/>
    </contour>
  </outline>
</glyph>
<glyph name="zero" format="2">
  <advance width="585"/>
  <unicode hex="0030"/>
  <outline>
    <contour>
      <point x="324.8" y="541.1" type="line"/>
      <point x="303.1" y="571.9" type="line"/>
      <point x="284.9" y="580.3" type="line"/>
      <point x="272.3" y="578.2" type="line"/>
      <point x="236.6" y="478.1" type="line"/>
      <point x="236.6" y="321.3" type="line"/>
      <point x="244.3" y="266.7" type="line"/>
      <point x="266.7" y="126.7" type="line"/>
      <point x="298.2" y="65.0996" type="line"/>
      <point x="322.7" y="58.7998" type="line"/>
      <point x="333.2" y="63" type="line"/>
      <point x="368.9" y="174.3" type="line"/>
      <point x="371" y="233.1" type="line"/>
      <point x="371" y="301" type="line"/>
      <point x="368.9" y="351.4" type="line"/>
      <point x="357" y="424.9" type="line"/>
    </contour>
    <contour>
      <point x="408.1" y="285.6" type="curve" smooth="yes"/>
      <point x="396.2" y="285.6"/>
      <point x="387.1" y="294.7"/>
      <point x="387.1" y="306.6" type="curve" smooth="yes"/>
      <point x="387.1" y="317.8"/>
      <point x="396.2" y="327.6"/>
      <point x="408.1" y="327.6" type="curve" smooth="yes"/>
      <point x="420" y="327.6"/>
      <point x="429.8" y="317.8"/>
      <point x="429.8" y="306.6" type="curve" smooth="yes"/>
      <point x="429.8" y="294.7"/>
      <point x="420" y="285.6"/>
    </contour>
    <contour>
      <point x="282.8" y="653.8" type="curve" smooth="yes"/>
      <point x="291.2" y="654.5"/>
      <point x="298.9" y="655.2"/>
      <point x="306.6" y="655.2" type="curve" smooth="yes"/>
      <point x="416.5" y="655.2"/>
      <point x="489.3" y="564.2"/>
      <point x="515.9" y="497" type="curve" smooth="yes"/>
      <point x="538.3" y="440.3"/>
      <point x="550.9" y="377.3"/>
      <point x="550.9" y="314.3" type="curve" smooth="yes"/>
      <point x="550.9" y="249.2"/>
      <point x="536.9" y="183.4"/>
      <point x="506.1" y="124.6" type="curve" smooth="yes"/>
      <point x="491.4" y="98"/>
      <point x="474.6" y="68.5996"/>
      <point x="448.7" y="44.7998" type="curve" smooth="yes"/>
      <point x="417.9" y="16.0996"/>
      <point x="376.6" y="0.700195"/>
      <point x="329" y="-4.2002" type="curve" smooth="yes"/>
      <point x="318.5" y="-5.59961"/>
      <point x="298.2" y="-7.7002"/>
      <point x="277.9" y="-7.7002" type="curve" smooth="yes"/>
      <point x="265.3" y="-7.7002"/>
      <point x="252.7" y="-7"/>
      <point x="240.8" y="-4.90039" type="curve" smooth="yes"/>
      <point x="129.5" y="14"/>
      <point x="86.7998" y="102.2"/>
      <point x="65.0996" y="168" type="curve" smooth="yes"/>
      <point x="46.2002" y="229.6"/>
      <point x="37.7998" y="287"/>
      <point x="37.7998" y="338.1" type="curve" smooth="yes"/>
      <point x="37.7998" y="407.4"/>
      <point x="52.5" y="477.4"/>
      <point x="92.4004" y="539" type="curve" smooth="yes"/>
      <point x="128.8" y="595"/>
      <point x="193.9" y="644.7"/>
    </contour>
  </outline>
</glyph>
<glyph name="three" format="2">
  <advance width="585"/>
  <unicode hex="0033"/>
  <outline>
    <contour>
      <point x="98.7002" y="508.9" type="line" smooth="yes"/>
      <point x="91.7002" y="519.4"/>
      <point x="88.9004" y="527.1"/>
      <point x="83.2998" y="537.6" type="curve"/>
      <point x="81.9004" y="539"/>
      <point x="79.0996" y="543.9"/>
      <point x="77" y="548.8" type="curve" smooth="yes"/>
      <point x="76.2998" y="550.9"/>
      <point x="75.5996" y="556.5"/>
      <point x="75.5996" y="557.9" type="curve" smooth="yes"/>
      <point x="75.5996" y="560.7"/>
      <point x="75.5996" y="563.5"/>
      <point x="76.2998" y="564.9" type="curve" smooth="yes"/>
      <point x="78.4004" y="569.8"/>
      <point x="81.2002" y="574.7"/>
      <point x="82.5996" y="576.8" type="curve" smooth="yes"/>
      <point x="90.2998" y="585.9"/>
      <point x="100.8" y="591.5"/>
      <point x="105.7" y="595" type="curve" smooth="yes"/>
      <point x="130.2" y="613.2"/>
      <point x="161.7" y="628.6"/>
      <point x="196.7" y="639.8" type="curve" smooth="yes"/>
      <point x="236.6" y="651.7"/>
      <point x="282.8" y="659.4"/>
      <point x="329" y="659.4" type="curve" smooth="yes"/>
      <point x="368.9" y="659.4"/>
      <point x="403.2" y="653.8"/>
      <point x="433.3" y="638.4" type="curve" smooth="yes"/>
      <point x="482.3" y="613.9"/>
      <point x="508.2" y="568.4"/>
      <point x="508.2" y="522.2" type="curve" smooth="yes"/>
      <point x="508.2" y="487.2"/>
      <point x="493.5" y="451.5"/>
      <point x="463.4" y="424.9" type="curve" smooth="yes"/>
      <point x="448" y="410.9"/>
      <point x="431.2" y="401.1"/>
      <point x="413.7" y="392" type="curve"/>
      <point x="427.7" y="387.8"/>
      <point x="441" y="382.2"/>
      <point x="454.3" y="373.1" type="curve" smooth="yes"/>
      <point x="512.4" y="335.3"/>
      <point x="540.4" y="270.9"/>
      <point x="540.4" y="207.9" type="curve" smooth="yes"/>
      <point x="540.4" y="163.8"/>
      <point x="526.4" y="118.3"/>
      <point x="497.7" y="81.2002" type="curve" smooth="yes"/>
      <point x="457.8" y="30.0996"/>
      <point x="390.6" y="-0.700195"/>
      <point x="322" y="-9.7998" type="curve" smooth="yes"/>
      <point x="301" y="-13.2998"/>
      <point x="279.3" y="-14"/>
      <point x="258.3" y="-14" type="curve" smooth="yes"/>
      <point x="208.6" y="-14"/>
      <point x="158.9" y="-7"/>
      <point x="117.6" y="3.5" type="curve" smooth="yes"/>
      <point x="103.6" y="7"/>
      <point x="90.2998" y="12.5996"/>
      <point x="77.7002" y="18.2002" type="curve" smooth="yes"/>
      <point x="72.0996" y="20.2998"/>
      <point x="70.7002" y="21"/>
      <point x="68.5996" y="21.7002" type="curve" smooth="yes"/>
      <point x="64.4004" y="23.7998"/>
      <point x="58.7998" y="28"/>
      <point x="56" y="33.5996" type="curve" smooth="yes"/>
      <point x="54.5996" y="35.7002"/>
      <point x="53.2002" y="42.7002"/>
      <point x="53.2002" y="46.2002" type="curve" smooth="yes"/>
      <point x="53.2002" y="57.4004"/>
      <point x="54.5996" y="55.2998"/>
      <point x="58.0996" y="64.4004" type="curve" smooth="yes"/>
      <point x="61.5996" y="74.9004"/>
      <point x="65.7998" y="85.4004"/>
      <point x="69.2998" y="95.9004" type="curve" smooth="yes"/>
      <point x="74.9004" y="112.7" type="line"/>
      <point x="92.4004" y="109.9" type="line" smooth="yes"/>
      <point x="112.7" y="107.1"/>
      <point x="123.9" y="98.7002"/>
      <point x="141.4" y="94.5" type="curve" smooth="yes"/>
      <point x="165.9" y="88.9004"/>
      <point x="192.5" y="85.4004"/>
      <point x="217.7" y="85.4004" type="curve" smooth="yes"/>
      <point x="249.2" y="85.4004"/>
      <point x="277.9" y="91"/>
      <point x="301.7" y="103.6" type="curve" smooth="yes"/>
      <point x="317.8" y="112.7"/>
      <point x="331.1" y="128.1"/>
      <point x="340.9" y="144.9" type="curve" smooth="yes"/>
      <point x="350" y="160.3"/>
      <point x="354.9" y="178.5"/>
      <point x="354.9" y="196.7" type="curve" smooth="yes"/>
      <point x="354.9" y="235.2"/>
      <point x="331.8" y="272.3"/>
      <point x="282.1" y="287.7" type="curve" smooth="yes"/>
      <point x="273" y="289.8"/>
      <point x="265.3" y="291.2"/>
      <point x="257.6" y="291.2" type="curve" smooth="yes"/>
      <point x="239.4" y="291.2"/>
      <point x="232.4" y="287"/>
      <point x="193.2" y="279.3" type="curve" smooth="yes"/>
      <point x="172.2" y="275.1" type="line"/>
      <point x="133.7" y="343" type="line"/>
      <point x="154" y="351.4" type="line" smooth="yes"/>
      <point x="172.9" y="359.8"/>
      <point x="192.5" y="371"/>
      <point x="212.8" y="381.5" type="curve" smooth="yes"/>
      <point x="256.2" y="404.6"/>
      <point x="294" y="427"/>
      <point x="311.5" y="458.5" type="curve" smooth="yes"/>
      <point x="316.4" y="466.9"/>
      <point x="317.8" y="475.3"/>
      <point x="317.8" y="482.3" type="curve" smooth="yes"/>
      <point x="317.8" y="511.7"/>
      <point x="291.9" y="539"/>
      <point x="249.2" y="542.5" type="curve" smooth="yes"/>
      <point x="246.4" y="542.5"/>
      <point x="244.3" y="542.5"/>
      <point x="242.2" y="542.5" type="curve" smooth="yes"/>
      <point x="200.2" y="542.5"/>
      <point x="168" y="511.7"/>
      <point x="121.8" y="500.5" type="curve" smooth="yes"/>
      <point x="107.1" y="496.3" type="line"/>
    </contour>
  </outline>
</glyph>
<glyph name="five" format="2">
  <advance width="585"/>
  <unicode hex="0035"/>
  <outline>
    <contour>
      <point x="69.2998" y="320.6" type="line" smooth="yes"/>
      <point x="85.4004" y="396.2"/>
      <point x="106.4" y="471.1"/>
      <point x="123.2" y="545.3" type="curve" smooth="yes"/>
      <point x="138.6" y="603.4" type="line" smooth="yes"/>
      <point x="140" y="609"/>
      <point x="140.7" y="616.7"/>
      <point x="144.2" y="623.7" type="curve" smooth="yes"/>
      <point x="146.3" y="627.9"/>
      <point x="149.1" y="632.1"/>
      <point x="155.4" y="636.3" type="curve" smooth="yes"/>
      <point x="159.6" y="638.4"/>
      <point x="164.5" y="641.2"/>
      <point x="178.5" y="641.2" type="curve" smooth="yes"/>
      <point x="186.9" y="641.2"/>
      <point x="188.3" y="641.2"/>
      <point x="190.4" y="641.2" type="curve" smooth="yes"/>
      <point x="384.3" y="641.2" type="line" smooth="yes"/>
      <point x="397.6" y="641.2"/>
      <point x="410.2" y="640.5"/>
      <point x="422.1" y="640.5" type="curve" smooth="yes"/>
      <point x="428.4" y="640.5"/>
      <point x="434" y="640.5"/>
      <point x="438.9" y="641.2" type="curve" smooth="yes"/>
      <point x="439.6" y="641.2"/>
      <point x="440.3" y="641.9"/>
      <point x="441" y="643.3" type="curve" smooth="yes"/>
      <point x="443.8" y="647.5"/>
      <point x="447.3" y="653.1"/>
      <point x="452.9" y="658.7" type="curve"/>
      <point x="453.6" y="660.1"/>
      <point x="455" y="662.9"/>
      <point x="457.1" y="665.7" type="curve"/>
      <point x="457.8" y="666.4" type="line"/>
      <point x="459.2" y="667.1" type="line"/>
      <point x="464.8" y="667.8"/>
      <point x="471.1" y="668.5"/>
      <point x="476" y="668.5" type="curve" smooth="yes"/>
      <point x="477.4" y="668.5"/>
      <point x="480.9" y="667.8"/>
      <point x="482.3" y="667.8" type="curve" smooth="yes"/>
      <point x="536.9" y="667.8" type="line"/>
      <point x="502.6" y="505.4" type="line"/>
      <point x="228.9" y="505.4" type="line"/>
      <point x="225.4" y="491.4"/>
      <point x="221.2" y="477.4"/>
      <point x="217" y="464.1" type="curve"/>
      <point x="229.6" y="465.5"/>
      <point x="245" y="466.9"/>
      <point x="263.2" y="466.9" type="curve" smooth="yes"/>
      <point x="268.8" y="466.9"/>
      <point x="273.7" y="466.9"/>
      <point x="278.6" y="466.9" type="curve" smooth="yes"/>
      <point x="392.7" y="462.7"/>
      <point x="490" y="403.9"/>
      <point x="520.8" y="309.4" type="curve" smooth="yes"/>
      <point x="527.8" y="287"/>
      <point x="531.3" y="262.5"/>
      <point x="531.3" y="238" type="curve" smooth="yes"/>
      <point x="531.3" y="199.5"/>
      <point x="522.9" y="159.6"/>
      <point x="504" y="126.7" type="curve" smooth="yes"/>
      <point x="457.1" y="42.7002"/>
      <point x="338.1" y="-16.7998"/>
      <point x="223.3" y="-17.5" type="curve" smooth="yes"/>
      <point x="218.4" y="-17.5"/>
      <point x="214.2" y="-17.5"/>
      <point x="209.3" y="-17.5" type="curve" smooth="yes"/>
      <point x="172.9" y="-17.5"/>
      <point x="135.1" y="-16.0996"/>
      <point x="101.5" y="-3.5" type="curve" smooth="yes"/>
      <point x="85.4004" y="2.09961"/>
      <point x="72.0996" y="10.5"/>
      <point x="60.9004" y="17.5" type="curve" smooth="yes"/>
      <point x="44.7998" y="25.9004" type="line"/>
      <point x="74.2002" y="104.3" type="line"/>
      <point x="92.4004" y="100.1" type="line" smooth="yes"/>
      <point x="110.6" y="95.2002"/>
      <point x="119.7" y="88.9004"/>
      <point x="136.5" y="84.7002" type="curve" smooth="yes"/>
      <point x="161.7" y="77.7002"/>
      <point x="189.7" y="73.5"/>
      <point x="216.3" y="73.5" type="curve" smooth="yes"/>
      <point x="234.5" y="73.5"/>
      <point x="252" y="75.5996"/>
      <point x="268.1" y="79.7998" type="curve" smooth="yes"/>
      <point x="311.5" y="91"/>
      <point x="357.7" y="130.2"/>
      <point x="375.2" y="162.4" type="curve" smooth="yes"/>
      <point x="375.9" y="164.5"/>
      <point x="375.9" y="166.6"/>
      <point x="375.9" y="168" type="curve" smooth="yes"/>
      <point x="375.9" y="172.9"/>
      <point x="375.2" y="178.5"/>
      <point x="373.1" y="187.6" type="curve" smooth="yes"/>
      <point x="368.2" y="220.5"/>
      <point x="353.5" y="250.6"/>
      <point x="324.1" y="272.3" type="curve" smooth="yes"/>
      <point x="303.8" y="288.4"/>
      <point x="274.4" y="294.7"/>
      <point x="241.5" y="294.7" type="curve" smooth="yes"/>
      <point x="224.7" y="294.7"/>
      <point x="206.5" y="292.6"/>
      <point x="190.4" y="289.8" type="curve" smooth="yes"/>
      <point x="179.2" y="287.7"/>
      <point x="168.7" y="284.9"/>
      <point x="158.2" y="281.4" type="curve"/>
      <point x="156.8" y="281.4"/>
      <point x="151.9" y="279.3"/>
      <point x="150.5" y="278.6" type="curve"/>
      <point x="149.8" y="277.9"/>
      <point x="146.3" y="277.2"/>
      <point x="145.6" y="277.2" type="curve"/>
      <point x="144.2" y="276.5"/>
      <point x="140.7" y="275.8"/>
      <point x="139.3" y="275.1" type="curve"/>
      <point x="137.9" y="275.1"/>
      <point x="133" y="274.4"/>
      <point x="130.9" y="274.4" type="curve"/>
      <point x="130.9" y="274.4" type="line"/>
      <point x="119" y="274.4"/>
      <point x="115.5" y="279.3"/>
      <point x="108.5" y="282.8" type="curve" smooth="yes"/>
      <point x="66.5" y="305.9" type="line"/>
    </contour>
  </outline>
</glyph>
<glyph name="six" format="2">
  <advance width="585"/>
  <unicode hex="0036"/>
  <outline>
    <contour>
      <point x="284.9" y="430.5" type="curve" smooth="yes"/>
      <point x="285.6" y="430.5"/>
      <point x="286.3" y="430.5"/>
      <point x="286.3" y="430.5" type="curve" smooth="yes"/>
      <point x="308" y="429.8"/>
      <point x="329" y="426.3"/>
      <point x="347.9" y="419.3" type="curve" smooth="yes"/>
      <point x="431.9" y="388.5"/>
      <point x="473.2" y="299.6"/>
      <point x="473.2" y="213.5" type="curve" smooth="yes"/>
      <point x="473.2" y="191.8"/>
      <point x="470.4" y="170.1"/>
      <point x="465.5" y="149.8" type="curve" smooth="yes"/>
      <point x="454.3" y="108.5"/>
      <point x="431.9" y="70"/>
      <point x="401.1" y="39.9004" type="curve" smooth="yes"/>
      <point x="374.5" y="14"/>
      <point x="343" y="-7"/>
      <point x="305.2" y="-14" type="curve" smooth="yes"/>
      <point x="293.3" y="-16.7998"/>
      <point x="280.7" y="-17.5"/>
      <point x="268.8" y="-17.5" type="curve" smooth="yes"/>
      <point x="193.2" y="-17.5"/>
      <point x="124.6" y="25.2002"/>
      <point x="84.7002" y="85.4004" type="curve" smooth="yes"/>
      <point x="60.2002" y="122.5"/>
      <point x="46.9004" y="168.7"/>
      <point x="42" y="212.8" type="curve" smooth="yes"/>
      <point x="39.9004" y="228.2"/>
      <point x="39.2002" y="244.3"/>
      <point x="39.2002" y="259.7" type="curve" smooth="yes"/>
      <point x="39.2002" y="329.7"/>
      <point x="55.2998" y="401.1"/>
      <point x="91" y="461.3" type="curve" smooth="yes"/>
      <point x="118.3" y="506.8"/>
      <point x="159.6" y="548.1"/>
      <point x="203.7" y="579.6" type="curve" smooth="yes"/>
      <point x="257.6" y="619.5"/>
      <point x="326.9" y="648.2"/>
      <point x="394.8" y="648.2" type="curve" smooth="yes"/>
      <point x="406.7" y="648.2"/>
      <point x="418.6" y="647.5"/>
      <point x="431.2" y="645.4" type="curve"/>
      <point x="431.2" y="652.4" type="line"/>
      <point x="436.1" y="644" type="line"/>
      <point x="438.2" y="644" type="line"/>
      <point x="438.2" y="644" type="line"/>
      <point x="457.8" y="618.8" type="line"/>
      <point x="448" y="620.2" type="line" smooth="yes"/>
      <point x="443.8" y="620.9"/>
      <point x="439.6" y="621.6"/>
      <point x="435.4" y="622.3" type="curve"/>
      <point x="435.4" y="622.3"/>
      <point x="435.4" y="623"/>
      <point x="434.7" y="623" type="curve"/>
      <point x="424.9" y="590.1"/>
      <point x="380.1" y="595"/>
      <point x="359.1" y="581" type="curve" smooth="yes"/>
      <point x="345.1" y="572.6"/>
      <point x="329.7" y="567"/>
      <point x="317.1" y="557.9" type="curve" smooth="yes"/>
      <point x="280.7" y="534.1"/>
      <point x="250.6" y="501.2"/>
      <point x="231" y="464.1" type="curve" smooth="yes"/>
      <point x="224" y="450.1"/>
      <point x="213.5" y="431.9"/>
      <point x="212.8" y="416.5" type="curve"/>
      <point x="235.9" y="424.9"/>
      <point x="259.7" y="430.5"/>
    </contour>
    <contour>
      <point x="256.9" y="341.6" type="line"/>
      <point x="231.7" y="340.2" type="line"/>
      <point x="211.4" y="323.4" type="line"/>
      <point x="202.3" y="252.7" type="line"/>
      <point x="192.5" y="206.5" type="line"/>
      <point x="199.5" y="154.7" type="line"/>
      <point x="212.8" y="115.5" type="line"/>
      <point x="234.5" y="84.7002" type="line"/>
      <point x="263.2" y="68.5996" type="line"/>
      <point x="291.9" y="68.5996" type="line"/>
      <point x="303.1" y="74.2002" type="line"/>
      <point x="313.6" y="126.7" type="line"/>
      <point x="313.6" y="233.8" type="line"/>
      <point x="298.2" y="285.6" type="line"/>
      <point x="275.1" y="331.1" type="line"/>
    </contour>
  </outline>
</glyph>
<glyph name="eight" format="2">
  <advance width="585"/>
  <unicode hex="0038"/>
  <outline>
    <contour>
      <point x="343" y="191.1" type="line"/>
      <point x="283.5" y="222.6" type="line"/>
      <point x="227.5" y="245" type="line"/>
      <point x="221.9" y="239.4" type="line"/>
      <point x="212.1" y="199.5" type="line"/>
      <point x="207.9" y="158.9" type="line"/>
      <point x="212.1" y="114.8" type="line"/>
      <point x="216.3" y="93.7998" type="line"/>
      <point x="242.9" y="67.9004" type="line"/>
      <point x="283.5" y="48.2998" type="line"/>
      <point x="324.1" y="46.2002" type="line"/>
      <point x="360.5" y="61.5996" type="line"/>
      <point x="389.2" y="82.5996" type="line"/>
      <point x="396.9" y="102.9" type="line"/>
      <point x="388.5" y="142.8" type="line"/>
      <point x="377.3" y="165.9" type="line"/>
    </contour>
    <contour>
      <point x="302.4" y="553" type="line"/>
      <point x="278.6" y="553" type="line"/>
      <point x="238.7" y="540.4" type="line"/>
      <point x="217.7" y="517.3" type="line"/>
      <point x="212.8" y="499.8" type="line"/>
      <point x="218.4" y="468.3" type="line"/>
      <point x="233.1" y="454.3" type="line"/>
      <point x="263.9" y="429.1" type="line"/>
      <point x="304.5" y="412.3" type="line"/>
      <point x="304.5" y="412.3" type="line"/>
      <point x="304.5" y="412.3" type="line"/>
      <point x="353.5" y="382.9" type="line"/>
      <point x="357" y="382.2" type="line"/>
      <point x="374.5" y="406" type="line"/>
      <point x="389.2" y="430.5" type="line"/>
      <point x="389.9" y="478.8" type="line"/>
      <point x="385.7" y="511" type="line"/>
      <point x="375.9" y="532.7" type="line"/>
      <point x="362.6" y="541.1" type="line"/>
      <point x="333.9" y="548.1" type="line"/>
    </contour>
    <contour>
      <point x="132.3" y="301.7" type="line"/>
      <point x="101.5" y="326.9"/>
      <point x="81.9004" y="358.4"/>
      <point x="72.0996" y="396.9" type="curve" smooth="yes"/>
      <point x="67.2002" y="414.4"/>
      <point x="65.0996" y="433.3"/>
      <point x="65.0996" y="452.9" type="curve" smooth="yes"/>
      <point x="65.0996" y="471.8"/>
      <point x="67.2002" y="490.7"/>
      <point x="73.5" y="508.2" type="curve" smooth="yes"/>
      <point x="104.3" y="599.2"/>
      <point x="206.5" y="650.3"/>
      <point x="313.6" y="650.3" type="curve" smooth="yes"/>
      <point x="354.2" y="650.3"/>
      <point x="394.8" y="642.6"/>
      <point x="432.6" y="627.2" type="curve" smooth="yes"/>
      <point x="468.3" y="611.8"/>
      <point x="499.1" y="586.6"/>
      <point x="517.3" y="555.8" type="curve" smooth="yes"/>
      <point x="532" y="532.7"/>
      <point x="539" y="504.7"/>
      <point x="539" y="476.7" type="curve" smooth="yes"/>
      <point x="539" y="445.9"/>
      <point x="530.6" y="415.1"/>
      <point x="509.6" y="390.6" type="curve" smooth="yes"/>
      <point x="497" y="375.2"/>
      <point x="483" y="362.6"/>
      <point x="467.6" y="350.7" type="curve"/>
      <point x="479.5" y="341.6"/>
      <point x="489.3" y="331.8"/>
      <point x="494.2" y="326.9" type="curve" smooth="yes"/>
      <point x="533.4" y="287.7"/>
      <point x="553.7" y="235.2"/>
      <point x="553.7" y="182" type="curve" smooth="yes"/>
      <point x="553.7" y="140.7"/>
      <point x="541.1" y="98.7002"/>
      <point x="515.2" y="63.7002" type="curve" smooth="yes"/>
      <point x="467.6" y="-0.700195"/>
      <point x="378.7" y="-27.2998"/>
      <point x="291.9" y="-27.2998" type="curve" smooth="yes"/>
      <point x="271.6" y="-27.2998"/>
      <point x="252" y="-25.2002"/>
      <point x="231.7" y="-22.4004" type="curve" smooth="yes"/>
      <point x="160.3" y="-12.5996"/>
      <point x="98.7002" y="21"/>
      <point x="68.5996" y="77" type="curve" smooth="yes"/>
      <point x="56.7002" y="99.4004"/>
      <point x="51.7998" y="123.2"/>
      <point x="51.7998" y="147" type="curve" smooth="yes"/>
      <point x="51.7998" y="200.2"/>
      <point x="79.0996" y="261.8"/>
      <point x="129.5" y="298.9" type="curve"/>
    </contour>
  </outline>
</glyph>
<glyph name="semicolon" format="2">
  <advance width="426"/>
  <unicode hex="003B"/>
  <outline>
    <contour>
      <point x="210" y="650.3" type="curve" smooth="yes"/>
      <point x="262.5" y="637"/>
      <point x="290.5" y="590.1"/>
      <point x="290.5" y="544.6" type="curve" smooth="yes"/>
      <point x="290.5" y="509.6"/>
      <point x="273.7" y="473.9"/>
      <point x="239.4" y="452.9" type="curve" smooth="yes"/>
      <point x="226.1" y="445.2"/>
      <point x="212.1" y="440.3"/>
      <point x="196.7" y="438.2" type="curve" smooth="yes"/>
      <point x="192.5" y="437.5"/>
      <point x="188.3" y="437.5"/>
      <point x="184.1" y="437.5" type="curve" smooth="yes"/>
      <point x="121.8" y="437.5"/>
      <point x="76.2998" y="492.1"/>
      <point x="76.2998" y="548.1" type="curve" smooth="yes"/>
      <point x="76.2998" y="569.1"/>
      <point x="82.5996" y="590.8"/>
      <point x="96.5996" y="609.7" type="curve" smooth="yes"/>
      <point x="104.3" y="619.5"/>
      <point x="114.1" y="629.3"/>
      <point x="126" y="636.3" type="curve" smooth="yes"/>
      <point x="140" y="645.4"/>
      <point x="154.7" y="650.3"/>
      <point x="170.1" y="652.4" type="curve" smooth="yes"/>
      <point x="175" y="653.1"/>
      <point x="179.2" y="653.1"/>
      <point x="184.1" y="653.1" type="curve" smooth="yes"/>
      <point x="192.5" y="653.1"/>
      <point x="201.6" y="652.4"/>
    </contour>
    <contour>
      <point x="80.5" y="117.6" type="line" smooth="yes"/>
      <point x="83.2998" y="128.8"/>
      <point x="85.4004" y="143.5"/>
      <point x="95.2002" y="156.8" type="curve" smooth="yes"/>
      <point x="112" y="181.3"/>
      <point x="136.5" y="184.8"/>
      <point x="157.5" y="184.8" type="curve" smooth="yes"/>
      <point x="163.1" y="184.8"/>
      <point x="168.7" y="184.1"/>
      <point x="174.3" y="184.1" type="curve" smooth="yes"/>
      <point x="179.9" y="184.1"/>
      <point x="186.9" y="184.8"/>
      <point x="193.9" y="184.8" type="curve" smooth="yes"/>
      <point x="203.7" y="184.8"/>
      <point x="209.3" y="184.1"/>
      <point x="212.8" y="183.4" type="curve" smooth="yes"/>
      <point x="221.9" y="182.7"/>
      <point x="234.5" y="183.4"/>
      <point x="245.7" y="177.8" type="curve" smooth="yes"/>
      <point x="254.8" y="172.9"/>
      <point x="258.3" y="167.3"/>
      <point x="259" y="165.2" type="curve" smooth="yes"/>
      <point x="260.4" y="162.4"/>
      <point x="262.5" y="159.6"/>
      <point x="263.9" y="149.8" type="curve" smooth="yes"/>
      <point x="263.9" y="148.4"/>
      <point x="263.9" y="145.6"/>
      <point x="263.9" y="142.1" type="curve" smooth="yes"/>
      <point x="263.9" y="137.2"/>
      <point x="263.9" y="137.9"/>
      <point x="263.9" y="135.1" type="curve" smooth="yes"/>
      <point x="263.9" y="102.9"/>
      <point x="245.7" y="77.7002"/>
      <point x="233.8" y="53.9004" type="curve" smooth="yes"/>
      <point x="221.9" y="29.4004"/>
      <point x="205.1" y="7.7002"/>
      <point x="191.8" y="-11.9004" type="curve" smooth="yes"/>
      <point x="94.5" y="-159.6" type="line" smooth="yes"/>
      <point x="90.2998" y="-166.6"/>
      <point x="89.5996" y="-168"/>
      <point x="86.7998" y="-172.2" type="curve" smooth="yes"/>
      <point x="81.2002" y="-179.9"/>
      <point x="75.5996" y="-182.7"/>
      <point x="74.2002" y="-183.4" type="curve" smooth="yes"/>
      <point x="68.5996" y="-186.9"/>
      <point x="63" y="-187.6"/>
      <point x="58.0996" y="-187.6" type="curve" smooth="yes"/>
      <point x="56.7002" y="-187.6"/>
      <point x="52.5" y="-187.6"/>
      <point x="51.7998" y="-187.6" type="curve" smooth="yes"/>
      <point x="-6.2998" y="-187.6" type="line"/>
      <point x="2.09961" y="-159.6" type="line" smooth="yes"/>
      <point x="24.5" y="-91"/>
      <point x="42" y="-18.9004"/>
      <point x="62.2998" y="52.5" type="curve" smooth="yes"/>
    </contour>
  </outline>
</glyph>
<glyph name="greater" format="2">
  <advance width="782"/>
  <unicode hex="003E"/>
  <outline>
    <contour>
      <point x="665" y="374.5" type="line" smooth="yes"/>
      <point x="673.4" y="370.3"/>
      <point x="682.5" y="366.8"/>
      <point x="691.6" y="362.6" type="curve" smooth="yes"/>
      <point x="694.4" y="361.2"/>
      <point x="708.4" y="356.3"/>
      <point x="711.9" y="341.6" type="curve" smooth="yes"/>
      <point x="713.3" y="337.4"/>
      <point x="714.7" y="329.7"/>
      <point x="714.7" y="318.5" type="curve" smooth="yes"/>
      <point x="714.7" y="303.8"/>
      <point x="713.3" y="293.3"/>
      <point x="713.3" y="282.8" type="curve" smooth="yes"/>
      <point x="713.3" y="282.1"/>
      <point x="714" y="276.5"/>
      <point x="714" y="272.3" type="curve" smooth="yes"/>
      <point x="714" y="266.7"/>
      <point x="712.6" y="259.7"/>
      <point x="709.1" y="253.4" type="curve" smooth="yes"/>
      <point x="699.3" y="238.7"/>
      <point x="674.1" y="233.1"/>
      <point x="667.1" y="229.6" type="curve" smooth="yes"/>
      <point x="152.6" y="1.40039" type="line" smooth="yes"/>
      <point x="135.8" y="-6.2998"/>
      <point x="117.6" y="-16.0996"/>
      <point x="97.2998" y="-23.0996" type="curve" smooth="yes"/>
      <point x="69.2998" y="-32.2002" type="line"/>
      <point x="69.2998" y="60.9004" type="line"/>
      <point x="71.4004" y="86.7998" type="line"/>
      <point x="72.0996" y="98" type="line"/>
      <point x="82.5996" y="103.6" type="line"/>
      <point x="93.0996" y="109.2" type="line"/>
      <point x="119" y="120.4" type="line"/>
      <point x="529.2" y="301.7" type="line"/>
      <point x="533.4" y="303.1" type="line"/>
      <point x="117.6" y="497" type="line"/>
      <point x="92.4004" y="508.9" type="line"/>
      <point x="81.2002" y="515.2" type="line"/>
      <point x="70.7002" y="520.8" type="line"/>
      <point x="69.2998" y="556.5" type="line"/>
      <point x="69.2998" y="652.4" type="line"/>
      <point x="98.7002" y="640.5" type="line" smooth="yes"/>
      <point x="156.8" y="616.7"/>
      <point x="211.4" y="587.3"/>
      <point x="266.7" y="562.1" type="curve" smooth="yes"/>
    </contour>
  </outline>
</glyph>
<glyph name="backslash" format="2">
  <advance width="385"/>
  <unicode hex="005C"/>
  <outline>
    <contour>
      <point x="96.5996" y="837.9" type="curve" smooth="yes"/>
      <point x="98" y="837.9" type="line" smooth="yes"/>
      <point x="99.4004" y="837.9"/>
      <point x="105.7" y="837.2"/>
      <point x="108.5" y="836.5" type="curve" smooth="yes"/>
      <point x="118.3" y="835.1"/>
      <point x="122.5" y="830.2"/>
      <point x="123.9" y="828.8" type="curve" smooth="yes"/>
      <point x="133.7" y="819"/>
      <point x="133.7" y="806.4"/>
      <point x="135.1" y="802.9" type="curve" smooth="yes"/>
      <point x="399" y="-21" type="line"/>
      <point x="251.3" y="-21" type="line"/>
      <point x="248.5" y="-2.7998" type="line" smooth="yes"/>
      <point x="245.7" y="18.2002"/>
      <point x="235.2" y="38.5"/>
      <point x="225.4" y="66.5" type="curve" smooth="yes"/>
      <point x="4.2002" y="736.4" type="line" smooth="yes"/>
      <point x="-3.5" y="758.8"/>
      <point x="-14" y="784"/>
      <point x="-20.2998" y="811.3" type="curve" smooth="yes"/>
      <point x="-26.5996" y="836.5" type="line"/>
      <point x="80.5" y="836.5" type="line" smooth="yes"/>
      <point x="84" y="836.5"/>
      <point x="88.9004" y="837.9"/>
    </contour>
  </outline>
</glyph>
<glyph name="bracketright" format="2">
  <advance width="387"/>
  <unicode hex="005D"/>
  <outline>
    <contour>
      <point x="21" y="702.8" type="line"/>
      <point x="320.6" y="702.8" type="line"/>
      <point x="320.6" y="-228.9" type="line"/>
      <point x="21" y="-228.9" type="line"/>
      <point x="21" y="-138.6" type="line"/>
      <point x="182" y="-138.6" type="line"/>
      <point x="182" y="613.9" type="line"/>
      <point x="21" y="613.9" type="line"/>
    </contour>
  </outline>
</glyph>
<glyph name="braceright" format="2">
  <advance width="671"/>
  <unicode hex="007D"/>
  <outline>
    <contour>
      <point x="356.3" y="946.4" type="curve" smooth="yes"/>
      <point x="401.1" y="909.3"/>
      <point x="415.1" y="848.4"/>
      <point x="422.1" y="805.7" type="curve" smooth="yes"/>
      <point x="427" y="775.6"/>
      <point x="428.4" y="744.8"/>
      <point x="428.4" y="714.7" type="curve" smooth="yes"/>
      <point x="428.4" y="681.8"/>
      <point x="427" y="648.9"/>
      <point x="425.6" y="617.4" type="curve" smooth="yes"/>
      <point x="424.9" y="603.4"/>
      <point x="424.2" y="588.7"/>
      <point x="424.2" y="574.7" type="curve" smooth="yes"/>
      <point x="424.2" y="530.6"/>
      <point x="429.1" y="487.2"/>
      <point x="446.6" y="451.5" type="curve" smooth="yes"/>
      <point x="458.5" y="428.4"/>
      <point x="479.5" y="413.7"/>
      <point x="499.1" y="403.9" type="curve" smooth="yes"/>
      <point x="504.7" y="401.1"/>
      <point x="518" y="399"/>
      <point x="528.5" y="392" type="curve" smooth="yes"/>
      <point x="576.8" y="361.9" type="line"/>
      <point x="520.1" y="353.5" type="line" smooth="yes"/>
      <point x="515.2" y="352.8"/>
      <point x="509.6" y="351.4"/>
      <point x="495.6" y="344.4" type="curve" smooth="yes"/>
      <point x="436.8" y="315"/>
      <point x="428.4" y="245"/>
      <point x="428.4" y="170.1" type="curve" smooth="yes"/>
      <point x="428.4" y="169.4" type="line" smooth="yes"/>
      <point x="428.4" y="147"/>
      <point x="428.4" y="125.3"/>
      <point x="429.1" y="104.3" type="curve" smooth="yes"/>
      <point x="430.5" y="73.5"/>
      <point x="433.3" y="41.2998"/>
      <point x="433.3" y="9.09961" type="curve" smooth="yes"/>
      <point x="433.3" y="-25.2002"/>
      <point x="430.5" y="-60.9004"/>
      <point x="420" y="-95.9004" type="curve" smooth="yes"/>
      <point x="408.8" y="-135.8"/>
      <point x="387.1" y="-176.4"/>
      <point x="347.2" y="-200.2" type="curve" smooth="yes"/>
      <point x="331.1" y="-210"/>
      <point x="313.6" y="-216.3"/>
      <point x="296.8" y="-220.5" type="curve" smooth="yes"/>
      <point x="265.3" y="-228.2"/>
      <point x="232.4" y="-231"/>
      <point x="201.6" y="-231" type="curve" smooth="yes"/>
      <point x="180.6" y="-231" type="line"/>
      <point x="180.6" y="-190.4" type="line"/>
      <point x="198.1" y="-188.3" type="line" smooth="yes"/>
      <point x="203" y="-187.6"/>
      <point x="207.9" y="-186.2"/>
      <point x="221.2" y="-180.6" type="curve" smooth="yes"/>
      <point x="266.7" y="-161.7"/>
      <point x="280.7" y="-116.9"/>
      <point x="287.7" y="-62.2998" type="curve" smooth="yes"/>
      <point x="290.5" y="-40.5996"/>
      <point x="291.2" y="-18.9004"/>
      <point x="291.2" y="3.5" type="curve" smooth="yes"/>
      <point x="291.2" y="56.7002"/>
      <point x="285.6" y="112"/>
      <point x="285.6" y="168.7" type="curve" smooth="yes"/>
      <point x="285.6" y="197.4"/>
      <point x="287" y="226.1"/>
      <point x="291.9" y="255.5" type="curve" smooth="yes"/>
      <point x="298.9" y="297.5"/>
      <point x="318.5" y="345.8"/>
      <point x="357" y="374.5" type="curve"/>
      <point x="305.9" y="410.2"/>
      <point x="291.9" y="478.8"/>
      <point x="287" y="529.9" type="curve" smooth="yes"/>
      <point x="285.6" y="547.4"/>
      <point x="284.9" y="564.9"/>
      <point x="284.9" y="582.4" type="curve" smooth="yes"/>
      <point x="284.9" y="638.4"/>
      <point x="291.2" y="693.7"/>
      <point x="291.2" y="746.9" type="curve" smooth="yes"/>
      <point x="291.2" y="775.6"/>
      <point x="289.1" y="803.6"/>
      <point x="284.2" y="830.9" type="curve" smooth="yes"/>
      <point x="279.3" y="854"/>
      <point x="273" y="877.1"/>
      <point x="262.5" y="894.6" type="curve" smooth="yes"/>
      <point x="246.4" y="921.2"/>
      <point x="216.3" y="941.5"/>
      <point x="185.5" y="947.8" type="curve" smooth="yes"/>
      <point x="168.7" y="951.3" type="line"/>
      <point x="168.7" y="990.5" type="line"/>
      <point x="189.7" y="990.5" type="line" smooth="yes"/>
      <point x="221.9" y="990.5"/>
      <point x="254.8" y="987.7"/>
      <point x="287" y="979.3" type="curve" smooth="yes"/>
      <point x="323.4" y="970.2"/>
      <point x="345.1" y="955.5"/>
    </contour>
  </outline>
</glyph>
<glyph name="holam" format="2">
  <advance width="308"/>
  <unicode hex="05B9"/>
  <outline>
    <contour>
      <point x="198.1" y="818.3" type="curve" smooth="yes"/>
      <point x="200.2" y="818.3"/>
      <point x="201.6" y="818.3"/>
      <point x="203" y="818.3" type="curve" smooth="yes"/>
      <point x="207.9" y="818.3"/>
      <point x="212.8" y="817.6"/>
      <point x="217.7" y="816.9" type="curve" smooth="yes"/>
      <point x="245.7" y="810.6"/>
      <point x="259.7" y="786.1"/>
      <point x="259.7" y="762.3" type="curve" smooth="yes"/>
      <point x="259.7" y="735.7"/>
      <point x="243.6" y="708.4"/>
      <point x="212.8" y="704.2" type="curve" smooth="yes"/>
      <point x="209.3" y="703.5"/>
      <point x="206.5" y="703.5"/>
      <point x="203" y="703.5" type="curve" smooth="yes"/>
      <point x="189.7" y="703.5"/>
      <point x="175.7" y="707.7"/>
      <point x="165.2" y="716.1" type="curve" smooth="yes"/>
      <point x="151.2" y="727.3"/>
      <point x="143.5" y="745.5"/>
      <point x="143.5" y="763" type="curve" smooth="yes"/>
      <point x="143.5" y="777.7"/>
      <point x="149.1" y="791.7"/>
      <point x="159.6" y="802.2" type="curve" smooth="yes"/>
      <point x="170.1" y="812.7"/>
      <point x="183.4" y="816.2"/>
    </contour>
    <contour>
      <point x="182" y="-15.4004" type="curve"/>
      <point x="182" y="46.2002"/>
      <point x="186.9" y="109.2"/>
      <point x="186.9" y="171.5" type="curve" smooth="yes"/>
      <point x="186.9" y="239.4"/>
      <point x="180.6" y="306.6"/>
      <point x="154.7" y="370.3" type="curve" smooth="yes"/>
      <point x="140" y="407.4"/>
      <point x="114.8" y="438.2"/>
      <point x="83.2998" y="462.7" type="curve" smooth="yes"/>
      <point x="65.7998" y="476.7"/>
      <point x="35.7002" y="485.1"/>
      <point x="31.5" y="509.6" type="curve" smooth="yes"/>
      <point x="30.7998" y="513.8"/>
      <point x="30.7998" y="518.7"/>
      <point x="30.7998" y="523.6" type="curve" smooth="yes"/>
      <point x="30.7998" y="557.9"/>
      <point x="47.5996" y="595.7"/>
      <point x="65.7998" y="623" type="curve" smooth="yes"/>
      <point x="72.0996" y="633.5"/>
      <point x="79.7998" y="647.5"/>
      <point x="91.7002" y="653.1" type="curve" smooth="yes"/>
      <point x="98.7002" y="657.3"/>
      <point x="107.1" y="658.7"/>
      <point x="116.2" y="658.7" type="curve" smooth="yes"/>
      <point x="135.1" y="658.7"/>
      <point x="155.4" y="651"/>
      <point x="170.1" y="641.9" type="curve" smooth="yes"/>
      <point x="219.8" y="612.5"/>
      <point x="242.2" y="553"/>
      <point x="250.6" y="498.4" type="curve" smooth="yes"/>
      <point x="254.8" y="469.7"/>
      <point x="256.2" y="439.6"/>
      <point x="256.2" y="409.5" type="curve" smooth="yes"/>
      <point x="256.2" y="391.3"/>
      <point x="255.5" y="373.1"/>
      <point x="254.8" y="354.9" type="curve" smooth="yes"/>
      <point x="252" y="287"/>
      <point x="247.8" y="219.8"/>
      <point x="241.5" y="151.9" type="curve" smooth="yes"/>
      <point x="237.3" y="113.4"/>
      <point x="234.5" y="74.9004"/>
      <point x="231.7" y="37.0996" type="curve" smooth="yes"/>
      <point x="231" y="26.5996"/>
      <point x="230.3" y="15.4004"/>
      <point x="228.9" y="4.90039" type="curve" smooth="yes"/>
      <point x="228.2" y="1.40039"/>
      <point x="229.6" y="-3.5"/>
      <point x="226.8" y="-6.2998" type="curve" smooth="yes"/>
      <point x="217.7" y="-16.7998"/>
      <point x="194.6" y="-13.2998"/>
    </contour>
  </outline>
</glyph>
<glyph name="afii57666" format="2">
  <advance width="510"/>
  <unicode hex="05D2"/>
  <outline>
    <contour>
      <point x="198.1" y="237.3" type="curve" smooth="yes"/>
      <point x="251.3" y="237.3"/>
      <point x="305.9" y="215.6"/>
      <point x="346.5" y="196.7" type="curve"/>
      <point x="345.8" y="210.7"/>
      <point x="342.3" y="231"/>
      <point x="340.9" y="244.3" type="curve" smooth="yes"/>
      <point x="332.5" y="320.6"/>
      <point x="317.8" y="396.9"/>
      <point x="264.6" y="442.4" type="curve" smooth="yes"/>
      <point x="254.1" y="452.2"/>
      <point x="230.3" y="471.8"/>
      <point x="202.3" y="482.3" type="curve" smooth="yes"/>
      <point x="180.6" y="490.7"/>
      <point x="153.3" y="496.3"/>
      <point x="135.8" y="516.6" type="curve" smooth="yes"/>
      <point x="135.1" y="517.3"/>
      <point x="135.1" y="517.3"/>
      <point x="132.3" y="520.1" type="curve"/>
      <point x="131.6" y="521.5"/>
      <point x="132.3" y="520.8"/>
      <point x="129.5" y="525" type="curve"/>
      <point x="129.5" y="525" type="line"/>
      <point x="129.5" y="525"/>
      <point x="129.5" y="525"/>
      <point x="129.5" y="525.7" type="curve"/>
      <point x="128.8" y="526.4"/>
      <point x="128.1" y="527.8"/>
      <point x="127.4" y="529.9" type="curve" smooth="yes"/>
      <point x="126.7" y="531.3"/>
      <point x="123.9" y="535.5"/>
      <point x="123.2" y="544.6" type="curve" smooth="yes"/>
      <point x="123.2" y="545.3"/>
      <point x="123.2" y="548.1"/>
      <point x="123.2" y="548.8" type="curve" smooth="yes"/>
      <point x="123.2" y="558.6"/>
      <point x="125.3" y="567.7"/>
      <point x="126" y="572.6" type="curve" smooth="yes"/>
      <point x="131.6" y="607.6"/>
      <point x="147.7" y="641.2"/>
      <point x="175.7" y="669.2" type="curve" smooth="yes"/>
      <point x="184.8" y="679"/>
      <point x="191.8" y="686"/>
      <point x="201.6" y="692.3" type="curve" smooth="yes"/>
      <point x="207.9" y="697.2"/>
      <point x="217" y="702.1"/>
      <point x="228.9" y="702.8" type="curve" smooth="yes"/>
      <point x="233.1" y="703.5"/>
      <point x="237.3" y="703.5"/>
      <point x="241.5" y="703.5" type="curve" smooth="yes"/>
      <point x="301.7" y="703.5"/>
      <point x="353.5" y="666.4"/>
      <point x="391.3" y="627.9" type="curve" smooth="yes"/>
      <point x="436.1" y="581"/>
      <point x="440.3" y="506.1"/>
      <point x="441.7" y="454.3" type="curve" smooth="yes"/>
      <point x="444.5" y="353.5"/>
      <point x="444.5" y="253.4"/>
      <point x="444.5" y="153.3" type="curve" smooth="yes"/>
      <point x="444.5" y="53.2002" type="line" smooth="yes"/>
      <point x="444.5" y="42.7002"/>
      <point x="443.8" y="30.7998"/>
      <point x="437.5" y="17.5" type="curve" smooth="yes"/>
      <point x="434.7" y="11.2002"/>
      <point x="430.5" y="3.5"/>
      <point x="422.8" y="-2.09961" type="curve" smooth="yes"/>
      <point x="415.8" y="-6.2998"/>
      <point x="408.1" y="-7"/>
      <point x="403.2" y="-7" type="curve" smooth="yes"/>
      <point x="402.5" y="-7"/>
      <point x="399" y="-7"/>
      <point x="397.6" y="-7" type="curve" smooth="yes"/>
      <point x="345.1" y="-7" type="line"/>
      <point x="345.1" y="75.5996" type="line" smooth="yes"/>
      <point x="345.1" y="81.2002"/>
      <point x="346.5" y="90.2998"/>
      <point x="346.5" y="94.5" type="curve" smooth="yes"/>
      <point x="346.5" y="97.2998"/>
      <point x="345.8" y="98"/>
      <point x="345.8" y="98.7002" type="curve"/>
      <point x="345.8" y="98.7002" type="line"/>
      <point x="345.8" y="99.4004" type="line"/>
      <point x="345.1" y="100.8"/>
      <point x="344.4" y="102.9"/>
      <point x="336.7" y="104.3" type="curve" smooth="yes"/>
      <point x="333.9" y="105"/>
      <point x="330.4" y="105"/>
      <point x="326.2" y="105" type="curve" smooth="yes"/>
      <point x="311.5" y="105"/>
      <point x="301" y="100.8"/>
      <point x="297.5" y="98.7002" type="curve" smooth="yes"/>
      <point x="265.3" y="74.9004"/>
      <point x="253.4" y="23.7998"/>
      <point x="203" y="-0.700195" type="curve" smooth="yes"/>
      <point x="180.6" y="-11.9004"/>
      <point x="154" y="-15.4004"/>
      <point x="129.5" y="-15.4004" type="curve" smooth="yes"/>
      <point x="98" y="-15.4004"/>
      <point x="70" y="-7.7002"/>
      <point x="46.9004" y="4.2002" type="curve" smooth="yes"/>
      <point x="28" y="14.7002"/>
      <point x="2.7998" y="30.7998"/>
      <point x="-2.7998" y="62.2998" type="curve" smooth="yes"/>
      <point x="-5.59961" y="79.7998" type="line"/>
      <point x="11.9004" y="85.4004" type="line" smooth="yes"/>
      <point x="30.0996" y="91.7002"/>
      <point x="44.7998" y="103.6"/>
      <point x="51.7998" y="119.7" type="curve" smooth="yes"/>
      <point x="59.5" y="137.9"/>
      <point x="59.5" y="166.6"/>
      <point x="80.5" y="190.4" type="curve" smooth="yes"/>
      <point x="90.2998" y="200.9"/>
      <point x="102.2" y="209.3"/>
      <point x="114.8" y="216.3" type="curve" smooth="yes"/>
      <point x="141.4" y="231.7"/>
      <point x="170.1" y="237.3"/>
    </contour>
  </outline>
</glyph>
<glyph name="afii57668" format="2">
  <advance width="664"/>
  <unicode hex="05D4"/>
  <outline>
    <contour>
      <point x="74.9004" y="703.5" type="curve" smooth="yes"/>
      <point x="80.5" y="707.7"/>
      <point x="87.5" y="709.1"/>
      <point x="93.0996" y="709.1" type="curve" smooth="yes"/>
      <point x="94.5" y="709.1"/>
      <point x="98" y="708.4"/>
      <point x="98.7002" y="708.4" type="curve" smooth="yes"/>
      <point x="101.5" y="708.4"/>
      <point x="105" y="709.1"/>
      <point x="108.5" y="709.1" type="curve" smooth="yes"/>
      <point x="109.2" y="709.1"/>
      <point x="109.9" y="709.1"/>
      <point x="110.6" y="709.1" type="curve" smooth="yes"/>
      <point x="122.5" y="708.4"/>
      <point x="129.5" y="707.7"/>
      <point x="139.3" y="702.1" type="curve" smooth="yes"/>
      <point x="140.7" y="701.4"/>
      <point x="144.2" y="700"/>
      <point x="145.6" y="698.6" type="curve" smooth="yes"/>
      <point x="148.4" y="695.1"/>
      <point x="153.3" y="689.5"/>
      <point x="154.7" y="687.4" type="curve" smooth="yes"/>
      <point x="158.2" y="679.7"/>
      <point x="158.2" y="675.5"/>
      <point x="158.9" y="674.1" type="curve" smooth="yes"/>
      <point x="163.8" y="667.1"/>
      <point x="175" y="654.5"/>
      <point x="202.3" y="651.7" type="curve" smooth="yes"/>
      <point x="214.9" y="651"/>
      <point x="227.5" y="650.3"/>
      <point x="240.8" y="650.3" type="curve" smooth="yes"/>
      <point x="277.2" y="650.3"/>
      <point x="316.4" y="653.8"/>
      <point x="356.3" y="653.8" type="curve" smooth="yes"/>
      <point x="412.3" y="653.8"/>
      <point x="471.8" y="647.5"/>
      <point x="523.6" y="611.1" type="curve" smooth="yes"/>
      <point x="563.5" y="582.4"/>
      <point x="581.7" y="536.2"/>
      <point x="592.9" y="505.4" type="curve" smooth="yes"/>
      <point x="613.2" y="450.1"/>
      <point x="621.6" y="391.3"/>
      <point x="621.6" y="333.2" type="curve" smooth="yes"/>
      <point x="621.6" y="296.1"/>
      <point x="618.1" y="259.7"/>
      <point x="612.5" y="224" type="curve" smooth="yes"/>
      <point x="608.3" y="196"/>
      <point x="602" y="168"/>
      <point x="594.3" y="140.7" type="curve" smooth="yes"/>
      <point x="590.8" y="128.8"/>
      <point x="587.3" y="114.8"/>
      <point x="576.8" y="102.9" type="curve" smooth="yes"/>
      <point x="576.1" y="102.2"/>
      <point x="574.7" y="101.5"/>
      <point x="573.3" y="100.1" type="curve" smooth="yes"/>
      <point x="572.6" y="99.4004"/>
      <point x="571.9" y="98.7002"/>
      <point x="569.8" y="96.5996" type="curve"/>
      <point x="568.4" y="95.9004"/>
      <point x="568.4" y="95.2002"/>
      <point x="565.6" y="93.7998" type="curve" smooth="yes"/>
      <point x="564.9" y="93.0996"/>
      <point x="564.2" y="92.4004"/>
      <point x="561.4" y="91" type="curve" smooth="yes"/>
      <point x="553.7" y="86.7998"/>
      <point x="543.9" y="84"/>
      <point x="532.7" y="84" type="curve" smooth="yes"/>
      <point x="513.1" y="84"/>
      <point x="485.1" y="91"/>
      <point x="469.7" y="109.2" type="curve" smooth="yes"/>
      <point x="467.6" y="111.3"/>
      <point x="461.3" y="117.6"/>
      <point x="457.8" y="131.6" type="curve" smooth="yes"/>
      <point x="457.1" y="135.8"/>
      <point x="456.4" y="140.7"/>
      <point x="456.4" y="144.9" type="curve" smooth="yes"/>
      <point x="456.4" y="150.5"/>
      <point x="457.1" y="156.1"/>
      <point x="458.5" y="161.7" type="curve" smooth="yes"/>
      <point x="464.8" y="185.5"/>
      <point x="483" y="207.2"/>
      <point x="494.9" y="225.4" type="curve" smooth="yes"/>
      <point x="506.8" y="244.3"/>
      <point x="515.2" y="264.6"/>
      <point x="520.1" y="287" type="curve" smooth="yes"/>
      <point x="522.2" y="298.9"/>
      <point x="523.6" y="311.5"/>
      <point x="523.6" y="324.1" type="curve" smooth="yes"/>
      <point x="523.6" y="332.5"/>
      <point x="523.6" y="340.2"/>
      <point x="522.2" y="347.9" type="curve" smooth="yes"/>
      <point x="520.1" y="359.1"/>
      <point x="517.3" y="369.6"/>
      <point x="511.7" y="378.7" type="curve" smooth="yes"/>
      <point x="480.2" y="436.1"/>
      <point x="404.6" y="445.2"/>
      <point x="319.9" y="445.2" type="curve" smooth="yes"/>
      <point x="299.6" y="445.2"/>
      <point x="280.7" y="444.5"/>
      <point x="261.8" y="444.5" type="curve" smooth="yes"/>
      <point x="241.5" y="444.5"/>
      <point x="220.5" y="443.8"/>
      <point x="198.8" y="443.8" type="curve" smooth="yes"/>
      <point x="189.7" y="443.8"/>
      <point x="179.2" y="443.1"/>
      <point x="168.7" y="443.1" type="curve" smooth="yes"/>
      <point x="144.2" y="443.1"/>
      <point x="117.6" y="444.5"/>
      <point x="93.7998" y="457.1" type="curve" smooth="yes"/>
      <point x="59.5" y="474.6"/>
      <point x="51.0996" y="502.6"/>
      <point x="47.5996" y="535.5" type="curve" smooth="yes"/>
      <point x="46.2002" y="546"/>
      <point x="46.2002" y="556.5"/>
      <point x="46.2002" y="567" type="curve" smooth="yes"/>
      <point x="46.2002" y="591.5"/>
      <point x="49" y="616"/>
      <point x="53.2002" y="639.1" type="curve" smooth="yes"/>
      <point x="56" y="652.4"/>
      <point x="58.7998" y="665.7"/>
      <point x="62.2998" y="679" type="curve" smooth="yes"/>
      <point x="63.7002" y="684.6"/>
      <point x="64.4004" y="686.7"/>
      <point x="65.0996" y="688.8" type="curve" smooth="yes"/>
      <point x="67.9004" y="698.6"/>
      <point x="73.5" y="702.8"/>
    </contour>
    <contour>
      <point x="148.4" y="377.3" type="line" smooth="yes"/>
      <point x="152.6" y="329.7"/>
      <point x="172.2" y="280"/>
      <point x="207.9" y="250.6" type="curve" smooth="yes"/>
      <point x="221.2" y="239.4"/>
      <point x="241.5" y="230.3"/>
      <point x="261.8" y="220.5" type="curve" smooth="yes"/>
      <point x="289.8" y="207.9"/>
      <point x="341.6" y="205.8"/>
      <point x="370.3" y="175" type="curve" smooth="yes"/>
      <point x="377.3" y="167.3"/>
      <point x="376.6" y="167.3"/>
      <point x="380.1" y="161" type="curve" smooth="yes"/>
      <point x="380.8" y="159.6"/>
      <point x="381.5" y="157.5"/>
      <point x="381.5" y="156.8" type="curve" smooth="yes"/>
      <point x="386.4" y="144.2"/>
      <point x="386.4" y="131.6"/>
      <point x="387.1" y="125.3" type="curve" smooth="yes"/>
      <point x="388.5" y="110.6"/>
      <point x="389.2" y="95.2002"/>
      <point x="389.2" y="79.0996" type="curve" smooth="yes"/>
      <point x="389.2" y="62.2998"/>
      <point x="388.5" y="44.7998"/>
      <point x="384.3" y="28" type="curve" smooth="yes"/>
      <point x="382.2" y="21"/>
      <point x="379.4" y="4.90039"/>
      <point x="369.6" y="-8.40039" type="curve" smooth="yes"/>
      <point x="366.1" y="-14"/>
      <point x="361.9" y="-17.5"/>
      <point x="357.7" y="-20.2998" type="curve"/>
      <point x="357" y="-21" type="line"/>
      <point x="357" y="-21" type="line"/>
      <point x="352.1" y="-22.4004"/>
      <point x="349.3" y="-25.9004"/>
      <point x="338.1" y="-27.2998" type="curve" smooth="yes"/>
      <point x="336.7" y="-27.2998"/>
      <point x="333.9" y="-28"/>
      <point x="333.2" y="-28" type="curve" smooth="yes"/>
      <point x="332.5" y="-28"/>
      <point x="328.3" y="-28"/>
      <point x="326.9" y="-28" type="curve" smooth="yes"/>
      <point x="320.6" y="-28.7002"/>
      <point x="315" y="-29.4004"/>
      <point x="308.7" y="-29.4004" type="curve" smooth="yes"/>
      <point x="289.8" y="-29.4004"/>
      <point x="270.9" y="-25.9004"/>
      <point x="253.4" y="-20.2998" type="curve" smooth="yes"/>
      <point x="219.8" y="-9.09961"/>
      <point x="184.1" y="7.7002"/>
      <point x="156.1" y="30.7998" type="curve" smooth="yes"/>
      <point x="133" y="49.7002"/>
      <point x="72.0996" y="112.7"/>
      <point x="59.5" y="245.7" type="curve" smooth="yes"/>
      <point x="58.0996" y="260.4"/>
      <point x="57.4004" y="275.1"/>
      <point x="57.4004" y="289.8" type="curve" smooth="yes"/>
      <point x="57.4004" y="309.4"/>
      <point x="58.7998" y="329"/>
      <point x="60.9004" y="347.9" type="curve" smooth="yes"/>
      <point x="62.2998" y="356.3"/>
      <point x="61.5996" y="366.8"/>
      <point x="65.0996" y="376.6" type="curve" smooth="yes"/>
      <point x="66.5" y="381.5"/>
      <point x="69.2998" y="387.1"/>
      <point x="74.9004" y="391.3" type="curve" smooth="yes"/>
      <point x="77.7002" y="393.4"/>
      <point x="81.9004" y="396.9"/>
      <point x="93.0996" y="396.9" type="curve" smooth="yes"/>
      <point x="94.5" y="396.9"/>
      <point x="97.2998" y="396.9"/>
      <point x="98.7002" y="396.9" type="curve" smooth="yes"/>
      <point x="146.3" y="396.9" type="line"/>
    </contour>
  </outline>
</glyph>
<glyph name="afii57670" format="2">
  <advance width="354"/>
  <unicode hex="05D6"/>
  <outline>
    <contour>
      <point x="262.5" y="693.7" type="line"/>
      <point x="270.9" y="691.6"/>
      <point x="278.6" y="692.3"/>
      <point x="287.7" y="679.7" type="curve" smooth="yes"/>
      <point x="296.1" y="669.2"/>
      <point x="298.9" y="653.8"/>
      <point x="301.7" y="646.8" type="curve" smooth="yes"/>
      <point x="310.1" y="620.9"/>
      <point x="326.2" y="585.2"/>
      <point x="326.2" y="550.9" type="curve" smooth="yes"/>
      <point x="326.2" y="543.2"/>
      <point x="325.5" y="535.5"/>
      <point x="323.4" y="527.8" type="curve" smooth="yes"/>
      <point x="314.3" y="485.8"/>
      <point x="282.1" y="459.2"/>
      <point x="256.9" y="432.6" type="curve" smooth="yes"/>
      <point x="238" y="412.3"/>
      <point x="231" y="408.1"/>
      <point x="227.5" y="398.3" type="curve" smooth="yes"/>
      <point x="226.8" y="395.5"/>
      <point x="226.1" y="393.4"/>
      <point x="226.1" y="391.3" type="curve" smooth="yes"/>
      <point x="226.1" y="380.1"/>
      <point x="231" y="375.9"/>
      <point x="243.6" y="350.7" type="curve"/>
      <point x="243.6" y="350" type="line"/>
      <point x="243.6" y="350" type="line"/>
      <point x="249.9" y="329.7"/>
      <point x="253.4" y="308.7"/>
      <point x="255.5" y="289.1" type="curve" smooth="yes"/>
      <point x="257.6" y="270.2"/>
      <point x="259" y="251.3"/>
      <point x="259" y="232.4" type="curve" smooth="yes"/>
      <point x="259" y="185.5"/>
      <point x="252.7" y="139.3"/>
      <point x="248.5" y="94.5" type="curve" smooth="yes"/>
      <point x="245.7" y="70"/>
      <point x="241.5" y="47.5996"/>
      <point x="226.1" y="23.7998" type="curve" smooth="yes"/>
      <point x="213.5" y="2.7998"/>
      <point x="200.2" y="-9.7998"/>
      <point x="177.1" y="-18.9004" type="curve"/>
      <point x="175.7" y="-18.9004"/>
      <point x="174.3" y="-19.5996"/>
      <point x="170.1" y="-21" type="curve" smooth="yes"/>
      <point x="153.3" y="-25.9004"/>
      <point x="137.2" y="-26.5996"/>
      <point x="126.7" y="-26.5996" type="curve" smooth="yes"/>
      <point x="121.8" y="-26.5996"/>
      <point x="117.6" y="-26.5996"/>
      <point x="114.1" y="-25.9004" type="curve" smooth="yes"/>
      <point x="112.7" y="-25.9004"/>
      <point x="106.4" y="-25.9004"/>
      <point x="105" y="-25.2002" type="curve" smooth="yes"/>
      <point x="93.0996" y="-23.0996"/>
      <point x="87.5" y="-15.4004"/>
      <point x="86.7998" y="-14" type="curve" smooth="yes"/>
      <point x="82.5996" y="-8.40039"/>
      <point x="81.2002" y="-1.40039"/>
      <point x="81.2002" y="3.5" type="curve" smooth="yes"/>
      <point x="81.2002" y="8.40039"/>
      <point x="81.9004" y="11.2002"/>
      <point x="82.5996" y="14" type="curve" smooth="yes"/>
      <point x="83.2998" y="22.4004"/>
      <point x="83.2998" y="30.7998"/>
      <point x="84.7002" y="42" type="curve" smooth="yes"/>
      <point x="89.5996" y="88.2002"/>
      <point x="91.7002" y="137.9"/>
      <point x="91.7002" y="185.5" type="curve" smooth="yes"/>
      <point x="91.7002" y="188.3"/>
      <point x="91.7002" y="190.4"/>
      <point x="91.7002" y="192.5" type="curve" smooth="yes"/>
      <point x="91.7002" y="268.1"/>
      <point x="90.2998" y="342.3"/>
      <point x="75.5996" y="415.8" type="curve" smooth="yes"/>
      <point x="70" y="445.2"/>
      <point x="60.9004" y="474.6"/>
      <point x="52.5" y="506.1" type="curve" smooth="yes"/>
      <point x="49" y="520.8"/>
      <point x="44.7998" y="537.6"/>
      <point x="44.7998" y="555.8" type="curve" smooth="yes"/>
      <point x="44.7998" y="562.1"/>
      <point x="45.5" y="568.4"/>
      <point x="46.2002" y="575.4" type="curve" smooth="yes"/>
      <point x="52.5" y="605.5"/>
      <point x="74.2002" y="620.9"/>
      <point x="88.2002" y="632.8" type="curve" smooth="yes"/>
      <point x="119" y="660.1"/>
      <point x="184.1" y="693.7"/>
      <point x="259" y="693.7" type="curve" smooth="yes"/>
      <point x="259" y="693.7"/>
      <point x="261.1" y="693.7"/>
      <point x="261.8" y="693.7" type="curve" smooth="yes"/>
      <point x="262.5" y="693.7" type="line"/>
    </contour>
  </outline>
</glyph>
<glyph name="afii57671" format="2">
  <advance width="625"/>
  <unicode hex="05D7"/>
  <outline>
    <contour>
      <point x="168.7" y="669.9" type="line"/>
      <point x="168.7" y="669.9" type="line"/>
      <point x="168.7" y="669.9" type="line"/>
      <point x="175" y="663.6"/>
      <point x="184.1" y="662.2"/>
      <point x="202.3" y="659.4" type="curve" smooth="yes"/>
      <point x="224.7" y="657.3"/>
      <point x="247.1" y="656.6"/>
      <point x="270.9" y="656.6" type="curve" smooth="yes"/>
      <point x="294.7" y="656.6"/>
      <point x="319.2" y="657.3"/>
      <point x="345.1" y="657.3" type="curve" smooth="yes"/>
      <point x="365.4" y="657.3"/>
      <point x="386.4" y="656.6"/>
      <point x="407.4" y="653.8" type="curve" smooth="yes"/>
      <point x="438.2" y="650.3"/>
      <point x="476" y="644"/>
      <point x="504" y="620.2" type="curve" smooth="yes"/>
      <point x="542.5" y="587.3"/>
      <point x="560.7" y="532.7"/>
      <point x="571.9" y="493.5" type="curve" smooth="yes"/>
      <point x="585.2" y="447.3"/>
      <point x="592.2" y="396.9"/>
      <point x="592.2" y="345.8" type="curve" smooth="yes"/>
      <point x="592.2" y="267.4"/>
      <point x="575.4" y="197.4"/>
      <point x="549.5" y="142.8" type="curve" smooth="yes"/>
      <point x="525" y="89.5996"/>
      <point x="490" y="36.4004"/>
      <point x="423.5" y="13.2998" type="curve" smooth="yes"/>
      <point x="405.3" y="6.2998"/>
      <point x="386.4" y="3.5"/>
      <point x="368.9" y="2.09961" type="curve" smooth="yes"/>
      <point x="366.8" y="2.09961"/>
      <point x="361.9" y="1.40039"/>
      <point x="356.3" y="1.40039" type="curve" smooth="yes"/>
      <point x="350" y="1.40039"/>
      <point x="343" y="2.09961"/>
      <point x="336" y="5.59961" type="curve" smooth="yes"/>
      <point x="331.1" y="8.40039"/>
      <point x="324.8" y="10.5"/>
      <point x="316.4" y="22.4004" type="curve" smooth="yes"/>
      <point x="312.9" y="26.5996"/>
      <point x="311.5" y="30.0996"/>
      <point x="309.4" y="32.9004" type="curve" smooth="yes"/>
      <point x="308.7" y="33.5996"/>
      <point x="305.9" y="37.7998"/>
      <point x="305.2" y="39.2002" type="curve" smooth="yes"/>
      <point x="301.7" y="44.7998"/>
      <point x="298.2" y="52.5"/>
      <point x="298.2" y="61.5996" type="curve" smooth="yes"/>
      <point x="298.2" y="63.7002"/>
      <point x="298.9" y="69.2998"/>
      <point x="298.9" y="70.7002" type="curve"/>
      <point x="308.7" y="116.9"/>
      <point x="361.9" y="130.9"/>
      <point x="390.6" y="146.3" type="curve" smooth="yes"/>
      <point x="418.6" y="161.7"/>
      <point x="443.8" y="189.7"/>
      <point x="460.6" y="216.3" type="curve" smooth="yes"/>
      <point x="481.6" y="250.6"/>
      <point x="491.4" y="289.8"/>
      <point x="491.4" y="329.7" type="curve" smooth="yes"/>
      <point x="491.4" y="338.1"/>
      <point x="491.4" y="346.5"/>
      <point x="490" y="354.9" type="curve" smooth="yes"/>
      <point x="487.2" y="381.5"/>
      <point x="481.6" y="401.8"/>
      <point x="464.1" y="417.9" type="curve" smooth="yes"/>
      <point x="447.3" y="434"/>
      <point x="418.6" y="440.3"/>
      <point x="406" y="442.4" type="curve" smooth="yes"/>
      <point x="384.3" y="446.6"/>
      <point x="361.9" y="447.3"/>
      <point x="338.1" y="447.3" type="curve" smooth="yes"/>
      <point x="314.3" y="447.3"/>
      <point x="290.5" y="446.6"/>
      <point x="266" y="444.5" type="curve" smooth="yes"/>
      <point x="261.8" y="444.5"/>
      <point x="257.6" y="444.5"/>
      <point x="253.4" y="444.5" type="curve" smooth="yes"/>
      <point x="240.1" y="444.5"/>
      <point x="228.9" y="445.2"/>
      <point x="217.7" y="445.9" type="curve" smooth="yes"/>
      <point x="217" y="445.9"/>
      <point x="215.6" y="445.9"/>
      <point x="214.9" y="445.9" type="curve"/>
      <point x="213.5" y="442.4"/>
      <point x="212.8" y="438.2"/>
      <point x="211.4" y="435.4" type="curve" smooth="yes"/>
      <point x="203" y="416.5"/>
      <point x="196" y="398.3"/>
      <point x="196" y="382.9" type="curve" smooth="yes"/>
      <point x="196" y="377.3"/>
      <point x="196.7" y="372.4"/>
      <point x="198.1" y="367.5" type="curve" smooth="yes"/>
      <point x="207.9" y="336.7"/>
      <point x="210" y="305.9"/>
      <point x="216.3" y="280" type="curve" smooth="yes"/>
      <point x="226.8" y="237.3"/>
      <point x="241.5" y="192.5"/>
      <point x="247.8" y="146.3" type="curve" smooth="yes"/>
      <point x="249.9" y="133.7"/>
      <point x="254.1" y="115.5"/>
      <point x="254.1" y="96.5996" type="curve" smooth="yes"/>
      <point x="254.1" y="88.2002"/>
      <point x="253.4" y="80.5"/>
      <point x="250.6" y="72.0996" type="curve" smooth="yes"/>
      <point x="246.4" y="59.5"/>
      <point x="234.5" y="44.7998"/>
      <point x="232.4" y="42" type="curve" smooth="yes"/>
      <point x="213.5" y="17.5"/>
      <point x="182.7" y="-12.5996"/>
      <point x="141.4" y="-26.5996" type="curve" smooth="yes"/>
      <point x="135.8" y="-28"/>
      <point x="124.6" y="-32.9004"/>
      <point x="113.4" y="-32.9004" type="curve" smooth="yes"/>
      <point x="112" y="-32.9004"/>
      <point x="107.8" y="-32.2002"/>
      <point x="105.7" y="-32.2002" type="curve"/>
      <point x="100.8" y="-30.7998"/>
      <point x="94.5" y="-30.0996"/>
      <point x="84" y="-20.2998" type="curve" smooth="yes"/>
      <point x="77.7002" y="-15.4004"/>
      <point x="65.0996" y="0"/>
      <point x="61.5996" y="16.0996" type="curve" smooth="yes"/>
      <point x="60.9004" y="16.7998"/>
      <point x="60.2002" y="22.4004"/>
      <point x="60.2002" y="24.5" type="curve" smooth="yes"/>
      <point x="60.2002" y="30.0996"/>
      <point x="61.5996" y="35"/>
      <point x="61.5996" y="37.0996" type="curve" smooth="yes"/>
      <point x="61.5996" y="49"/>
      <point x="61.5996" y="60.9004"/>
      <point x="62.2998" y="74.2002" type="curve" smooth="yes"/>
      <point x="64.4004" y="101.5"/>
      <point x="63" y="130.9"/>
      <point x="65.0996" y="161" type="curve" smooth="yes"/>
      <point x="68.5996" y="208.6"/>
      <point x="69.2998" y="256.9"/>
      <point x="73.5" y="305.2" type="curve" smooth="yes"/>
      <point x="74.9004" y="329"/>
      <point x="74.2002" y="356.3"/>
      <point x="81.2002" y="384.3" type="curve" smooth="yes"/>
      <point x="86.0996" y="406.7"/>
      <point x="95.2002" y="423.5"/>
      <point x="105" y="443.8" type="curve"/>
      <point x="90.2998" y="450.8"/>
      <point x="60.9004" y="483.7"/>
      <point x="60.9004" y="483.7" type="curve"/>
      <point x="55.2998" y="496.3"/>
      <point x="56.7002" y="508.2"/>
      <point x="55.2998" y="517.3" type="curve" smooth="yes"/>
      <point x="54.5996" y="527.1"/>
      <point x="54.5996" y="536.9"/>
      <point x="54.5996" y="546" type="curve" smooth="yes"/>
      <point x="54.5996" y="569.1"/>
      <point x="56.7002" y="591.5"/>
      <point x="58.7998" y="613.9" type="curve" smooth="yes"/>
      <point x="60.2002" y="631.4"/>
      <point x="63.7002" y="648.9"/>
      <point x="65.7998" y="665" type="curve" smooth="yes"/>
      <point x="66.5" y="672"/>
      <point x="66.5" y="672"/>
      <point x="66.5" y="674.1" type="curve"/>
      <point x="67.9004" y="680.4"/>
      <point x="71.4004" y="692.3"/>
      <point x="85.4004" y="696.5" type="curve" smooth="yes"/>
      <point x="88.9004" y="697.9"/>
      <point x="93.7998" y="698.6"/>
      <point x="102.2" y="698.6" type="curve" smooth="yes"/>
      <point x="109.2" y="698.6"/>
      <point x="119.7" y="697.9"/>
      <point x="123.2" y="697.9" type="curve" smooth="yes"/>
      <point x="124.6" y="697.9"/>
      <point x="128.1" y="697.9"/>
      <point x="128.8" y="697.9" type="curve" smooth="yes"/>
      <point x="131.6" y="697.9"/>
      <point x="139.3" y="697.9"/>
      <point x="147" y="694.4" type="curve" smooth="yes"/>
      <point x="161" y="687.4"/>
      <point x="164.5" y="675.5"/>
      <point x="168.7" y="669.9" type="curve"/>
      <point x="168.7" y="669.9" type="line"/>
      <point x="168.7" y="669.9" type="line"/>
      <point x="168.7" y="669.9" type="line"/>
      <point x="168.7" y="669.9" type="line"/>
      <point x="168.7" y="669.9" type="line"/>
      <point x="168.7" y="669.9" type="line"/>
    </contour>
    <contour>
      <point x="168.7" y="669.9" type="line"/>
      <point x="168.7" y="669.9" type="line"/>
      <point x="168.7" y="669.9" type="line"/>
    </contour>
  </outline>
</glyph>
<glyph name="afii57672" format="2">
  <advance width="745"/>
  <unicode hex="05D8"/>
  <outline>
    <contour>
      <point x="304.5" y="520.8" type="curve" smooth="yes"/>
      <point x="304.5" y="522.2"/>
      <point x="304.5" y="527.1"/>
      <point x="305.2" y="529.9" type="curve"/>
      <point x="305.9" y="531.3"/>
      <point x="306.6" y="535.5"/>
      <point x="311.5" y="542.5" type="curve"/>
      <point x="313.6" y="543.9"/>
      <point x="314.3" y="545.3"/>
      <point x="314.3" y="545.3" type="curve" smooth="yes"/>
      <point x="324.1" y="557.2"/>
      <point x="334.6" y="564.9"/>
      <point x="340.9" y="571.9" type="curve" smooth="yes"/>
      <point x="418.6" y="655.9" type="line"/>
      <point x="452.2" y="691.6" type="line" smooth="yes"/>
      <point x="460.6" y="701.4"/>
      <point x="462" y="702.1"/>
      <point x="464.8" y="704.2" type="curve" smooth="yes"/>
      <point x="470.4" y="707.7"/>
      <point x="475.3" y="709.8"/>
      <point x="480.2" y="710.5" type="curve" smooth="yes"/>
      <point x="481.6" y="711.2"/>
      <point x="487.9" y="711.9"/>
      <point x="490" y="711.9" type="curve" smooth="yes"/>
      <point x="500.5" y="711.9"/>
      <point x="511" y="709.1"/>
      <point x="515.2" y="708.4" type="curve" smooth="yes"/>
      <point x="537.6" y="704.2"/>
      <point x="567.7" y="695.1"/>
      <point x="592.2" y="674.8" type="curve" smooth="yes"/>
      <point x="629.3" y="644"/>
      <point x="649.6" y="603.4"/>
      <point x="668.5" y="569.1" type="curve" smooth="yes"/>
      <point x="672.7" y="561.4"/>
      <point x="683.2" y="543.2"/>
      <point x="688.8" y="526.4" type="curve" smooth="yes"/>
      <point x="700.7" y="490.7"/>
      <point x="704.2" y="452.9"/>
      <point x="707.7" y="419.3" type="curve" smooth="yes"/>
      <point x="709.8" y="398.3"/>
      <point x="710.5" y="375.9"/>
      <point x="710.5" y="354.2" type="curve" smooth="yes"/>
      <point x="710.5" y="247.1"/>
      <point x="683.2" y="130.9"/>
      <point x="597.1" y="51.7998" type="curve" smooth="yes"/>
      <point x="579.6" y="35.7002"/>
      <point x="559.3" y="21"/>
      <point x="534.1" y="8.40039" type="curve" smooth="yes"/>
      <point x="484.4" y="-15.4004"/>
      <point x="426.3" y="-23.7998"/>
      <point x="371.7" y="-23.7998" type="curve" smooth="yes"/>
      <point x="355.6" y="-23.7998"/>
      <point x="340.2" y="-23.0996"/>
      <point x="324.8" y="-22.4004" type="curve" smooth="yes"/>
      <point x="305.2" y="-20.2998"/>
      <point x="284.9" y="-17.5"/>
      <point x="266" y="-11.9004" type="curve" smooth="yes"/>
      <point x="264.6" y="-11.9004"/>
      <point x="262.5" y="-11.2002"/>
      <point x="260.4" y="-10.5" type="curve"/>
      <point x="260.4" y="-12.5996"/>
      <point x="259.7" y="-15.4004"/>
      <point x="259.7" y="-18.2002" type="curve"/>
      <point x="256.2" y="-33.5996"/>
      <point x="253.4" y="-48.2998"/>
      <point x="248.5" y="-64.4004" type="curve"/>
      <point x="248.5" y="-65.7998"/>
      <point x="245.7" y="-74.2002"/>
      <point x="242.9" y="-80.5" type="curve" smooth="yes"/>
      <point x="238.7" y="-88.9004"/>
      <point x="233.1" y="-93.7998"/>
      <point x="229.6" y="-96.5996" type="curve"/>
      <point x="227.5" y="-97.2998"/>
      <point x="219.8" y="-102.9"/>
      <point x="205.1" y="-102.9" type="curve" smooth="yes"/>
      <point x="197.4" y="-102.9"/>
      <point x="197.4" y="-102.2"/>
      <point x="193.9" y="-102.2" type="curve" smooth="yes"/>
      <point x="182" y="-101.5"/>
      <point x="163.1" y="-98.7002"/>
      <point x="150.5" y="-98" type="curve" smooth="yes"/>
      <point x="120.4" y="-97.2998" type="line"/>
      <point x="128.1" y="-74.2002" type="line" smooth="yes"/>
      <point x="151.9" y="3.5"/>
      <point x="163.8" y="86.0996"/>
      <point x="199.5" y="168" type="curve"/>
      <point x="200.9" y="180.6"/>
      <point x="201.6" y="193.9"/>
      <point x="201.6" y="206.5" type="curve" smooth="yes"/>
      <point x="201.6" y="266"/>
      <point x="189.7" y="325.5"/>
      <point x="160.3" y="381.5" type="curve" smooth="yes"/>
      <point x="148.4" y="404.6"/>
      <point x="135.1" y="429.1"/>
      <point x="115.5" y="446.6" type="curve"/>
      <point x="115.5" y="446.6" type="line"/>
      <point x="115.5" y="447.3" type="line"/>
      <point x="104.3" y="461.3"/>
      <point x="89.5996" y="475.3"/>
      <point x="74.9004" y="491.4" type="curve" smooth="yes"/>
      <point x="65.7998" y="501.2"/>
      <point x="56" y="511.7"/>
      <point x="46.2002" y="521.5" type="curve" smooth="yes"/>
      <point x="38.5" y="528.5"/>
      <point x="39.2002" y="527.1"/>
      <point x="37.0996" y="529.2" type="curve" smooth="yes"/>
      <point x="33.5996" y="533.4"/>
      <point x="30.0996" y="538.3"/>
      <point x="28" y="545.3" type="curve" smooth="yes"/>
      <point x="27.2998" y="548.8"/>
      <point x="26.5996" y="555.1"/>
      <point x="26.5996" y="557.2" type="curve" smooth="yes"/>
      <point x="26.5996" y="562.1"/>
      <point x="27.2998" y="566.3"/>
      <point x="27.2998" y="568.4" type="curve" smooth="yes"/>
      <point x="30.7998" y="603.4"/>
      <point x="49" y="630.7"/>
      <point x="64.4004" y="653.8" type="curve" smooth="yes"/>
      <point x="70" y="662.9"/>
      <point x="76.2998" y="674.8"/>
      <point x="87.5" y="686" type="curve" smooth="yes"/>
      <point x="110.6" y="707.7"/>
      <point x="152.6" y="707.7"/>
      <point x="160.3" y="707.7" type="curve" smooth="yes"/>
      <point x="180.6" y="707.7"/>
      <point x="193.2" y="705.6"/>
      <point x="200.9" y="702.8" type="curve"/>
      <point x="204.4" y="702.1"/>
      <point x="210" y="700.7"/>
      <point x="217" y="693" type="curve" smooth="yes"/>
      <point x="222.6" y="686"/>
      <point x="226.1" y="678.3"/>
      <point x="228.2" y="674.1" type="curve" smooth="yes"/>
      <point x="238.7" y="655.2"/>
      <point x="248.5" y="635.6"/>
      <point x="255.5" y="613.9" type="curve" smooth="yes"/>
      <point x="278.6" y="545.3"/>
      <point x="291.9" y="471.1"/>
      <point x="296.8" y="399" type="curve" smooth="yes"/>
      <point x="301.7" y="329.7"/>
      <point x="301" y="261.1"/>
      <point x="305.2" y="193.2" type="curve"/>
      <point x="324.1" y="191.1"/>
      <point x="341.6" y="187.6"/>
      <point x="357" y="186.2" type="curve" smooth="yes"/>
      <point x="374.5" y="184.1"/>
      <point x="392.7" y="183.4"/>
      <point x="410.2" y="183.4" type="curve" smooth="yes"/>
      <point x="458.5" y="183.4"/>
      <point x="504" y="191.1"/>
      <point x="539.7" y="214.2" type="curve" smooth="yes"/>
      <point x="588" y="245.7"/>
      <point x="613.2" y="296.1"/>
      <point x="613.2" y="345.1" type="curve" smooth="yes"/>
      <point x="613.2" y="392"/>
      <point x="591.5" y="434.7"/>
      <point x="551.6" y="463.4" type="curve" smooth="yes"/>
      <point x="538.3" y="471.1"/>
      <point x="523.6" y="477.4"/>
      <point x="508.9" y="481.6" type="curve" smooth="yes"/>
      <point x="487.2" y="488.6"/>
      <point x="472.5" y="490"/>
      <point x="463.4" y="490" type="curve" smooth="yes"/>
      <point x="462" y="490" type="line" smooth="yes"/>
      <point x="425.6" y="489.3"/>
      <point x="397.6" y="475.3"/>
      <point x="351.4" y="460.6" type="curve" smooth="yes"/>
      <point x="331.8" y="453.6" type="line"/>
      <point x="322" y="470.4" type="line" smooth="yes"/>
      <point x="317.1" y="476.7"/>
      <point x="304.5" y="500.5"/>
    </contour>
  </outline>
</glyph>
<glyph name="afii57675" format="2">
  <advance width="549"/>
  <unicode hex="05DB"/>
  <outline>
    <contour>
      <point x="100.8" y="708.4" type="curve" smooth="yes"/>
      <point x="107.8" y="708.4"/>
      <point x="119.7" y="703.5"/>
      <point x="123.2" y="700.7" type="curve"/>
      <point x="123.2" y="700.7"/>
      <point x="123.2" y="700.7"/>
      <point x="123.9" y="700.7" type="curve"/>
      <point x="132.3" y="691.6"/>
      <point x="130.2" y="685.3"/>
      <point x="130.9" y="681.8" type="curve" smooth="yes"/>
      <point x="132.3" y="674.1"/>
      <point x="134.4" y="669.2"/>
      <point x="136.5" y="667.1" type="curve"/>
      <point x="140" y="661.5"/>
      <point x="152.6" y="654.5"/>
      <point x="174.3" y="650.3" type="curve" smooth="yes"/>
      <point x="190.4" y="646.8"/>
      <point x="207.2" y="646.1"/>
      <point x="226.1" y="646.1" type="curve" smooth="yes"/>
      <point x="240.1" y="646.1"/>
      <point x="254.8" y="646.8"/>
      <point x="270.2" y="646.8" type="curve" smooth="yes"/>
      <point x="298.2" y="646.8"/>
      <point x="329" y="645.4"/>
      <point x="359.1" y="635.6" type="curve" smooth="yes"/>
      <point x="378" y="629.3"/>
      <point x="411.6" y="613.9"/>
      <point x="439.6" y="580.3" type="curve" smooth="yes"/>
      <point x="485.8" y="525"/>
      <point x="494.2" y="455"/>
      <point x="498.4" y="401.1" type="curve" smooth="yes"/>
      <point x="499.1" y="389.9"/>
      <point x="499.1" y="378"/>
      <point x="499.1" y="366.8" type="curve" smooth="yes"/>
      <point x="499.1" y="279.3"/>
      <point x="475.3" y="193.2"/>
      <point x="421.4" y="119.7" type="curve" smooth="yes"/>
      <point x="420.7" y="119"/>
      <point x="420" y="114.1"/>
      <point x="415.1" y="107.8" type="curve" smooth="yes"/>
      <point x="352.8" y="42"/>
      <point x="258.3" y="8.40039"/>
      <point x="180.6" y="-5.59961" type="curve" smooth="yes"/>
      <point x="151.9" y="-11.2002"/>
      <point x="122.5" y="-14"/>
      <point x="95.2002" y="-15.4004" type="curve" smooth="yes"/>
      <point x="87.5" y="-16.0996"/>
      <point x="81.9004" y="-16.7998"/>
      <point x="72.7998" y="-16.7998" type="curve" smooth="yes"/>
      <point x="69.2998" y="-16.7998"/>
      <point x="65.7998" y="-16.7998"/>
      <point x="61.5996" y="-16.0996" type="curve"/>
      <point x="60.9004" y="-16.0996" type="line"/>
      <point x="60.9004" y="-16.0996" type="line"/>
      <point x="53.2002" y="-13.2998"/>
      <point x="45.5" y="-13.2998"/>
      <point x="37.0996" y="-0.700195" type="curve" smooth="yes"/>
      <point x="28" y="12.5996"/>
      <point x="28" y="30.7998"/>
      <point x="27.2998" y="38.5" type="curve" smooth="yes"/>
      <point x="26.5996" y="46.2002"/>
      <point x="23.0996" y="55.2998"/>
      <point x="23.0996" y="67.9004" type="curve" smooth="yes"/>
      <point x="23.0996" y="68.5996" type="line" smooth="yes"/>
      <point x="23.0996" y="88.2002"/>
      <point x="27.2998" y="100.8"/>
      <point x="29.4004" y="119.7" type="curve" smooth="yes"/>
      <point x="30.0996" y="133"/>
      <point x="32.2002" y="151.2"/>
      <point x="42.7002" y="165.9" type="curve" smooth="yes"/>
      <point x="46.2002" y="170.1"/>
      <point x="49.7002" y="174.3"/>
      <point x="53.9004" y="177.8" type="curve" smooth="yes"/>
      <point x="73.5" y="192.5"/>
      <point x="93.7998" y="190.4"/>
      <point x="121.1" y="191.8" type="curve" smooth="yes"/>
      <point x="160.3" y="194.6"/>
      <point x="200.2" y="198.1"/>
      <point x="237.3" y="204.4" type="curve" smooth="yes"/>
      <point x="316.4" y="216.3"/>
      <point x="355.6" y="246.4"/>
      <point x="373.1" y="266" type="curve" smooth="yes"/>
      <point x="380.8" y="275.8"/>
      <point x="387.8" y="287"/>
      <point x="392" y="298.2" type="curve" smooth="yes"/>
      <point x="394.8" y="305.9"/>
      <point x="395.5" y="312.9"/>
      <point x="397.6" y="329" type="curve" smooth="yes"/>
      <point x="398.3" y="333.9"/>
      <point x="398.3" y="339.5"/>
      <point x="398.3" y="345.8" type="curve" smooth="yes"/>
      <point x="398.3" y="387.8"/>
      <point x="380.8" y="427"/>
      <point x="340.2" y="440.3" type="curve" smooth="yes"/>
      <point x="317.8" y="447.3"/>
      <point x="292.6" y="449.4"/>
      <point x="266" y="449.4" type="curve" smooth="yes"/>
      <point x="234.5" y="449.4"/>
      <point x="201.6" y="446.6"/>
      <point x="167.3" y="446.6" type="curve" smooth="yes"/>
      <point x="158.9" y="446.6"/>
      <point x="151.2" y="446.6"/>
      <point x="142.8" y="447.3" type="curve" smooth="yes"/>
      <point x="124.6" y="448"/>
      <point x="74.9004" y="449.4"/>
      <point x="48.2998" y="471.1" type="curve" smooth="yes"/>
      <point x="43.4004" y="474.6"/>
      <point x="25.9004" y="490"/>
      <point x="18.9004" y="523.6" type="curve" smooth="yes"/>
      <point x="16.0996" y="536.2"/>
      <point x="15.4004" y="548.1"/>
      <point x="15.4004" y="560" type="curve" smooth="yes"/>
      <point x="15.4004" y="586.6"/>
      <point x="20.2998" y="611.8"/>
      <point x="22.4004" y="634.9" type="curve" smooth="yes"/>
      <point x="23.7998" y="646.8"/>
      <point x="25.2002" y="659.4"/>
      <point x="30.7998" y="675.5" type="curve" smooth="yes"/>
      <point x="33.5996" y="684.6"/>
      <point x="34.2998" y="686"/>
      <point x="35.7002" y="688.8" type="curve"/>
      <point x="36.4004" y="689.5"/>
      <point x="38.5" y="693"/>
      <point x="39.9004" y="694.4" type="curve"/>
      <point x="40.5996" y="694.4" type="line"/>
      <point x="41.2998" y="694.4" type="line"/>
      <point x="42.7002" y="695.1"/>
      <point x="53.9004" y="702.1"/>
      <point x="57.4004" y="702.8" type="curve" smooth="yes"/>
      <point x="60.9004" y="703.5"/>
      <point x="64.4004" y="703.5"/>
      <point x="65.0996" y="703.5" type="curve" smooth="yes"/>
      <point x="74.9004" y="704.9"/>
      <point x="84.7002" y="706.3"/>
      <point x="94.5" y="708.4" type="curve"/>
      <point x="95.9004" y="708.4"/>
      <point x="99.4004" y="708.4"/>
    </contour>
  </outline>
</glyph>
<glyph name="afii57676" format="2">
  <advance width="471"/>
  <unicode hex="05DC"/>
  <outline>
    <contour>
      <point x="398.3" y="492.1" type="curve" smooth="yes"/>
      <point x="415.8" y="451.5"/>
      <point x="418.6" y="410.2"/>
      <point x="420.7" y="370.3" type="curve" smooth="yes"/>
      <point x="420.7" y="363.3"/>
      <point x="420.7" y="356.3"/>
      <point x="420.7" y="348.6" type="curve" smooth="yes"/>
      <point x="420.7" y="242.9"/>
      <point x="385" y="135.8"/>
      <point x="307.3" y="54.5996" type="curve" smooth="yes"/>
      <point x="294" y="41.2998"/>
      <point x="277.9" y="27.2998"/>
      <point x="257.6" y="15.4004" type="curve" smooth="yes"/>
      <point x="238" y="3.5"/>
      <point x="206.5" y="-12.5996"/>
      <point x="151.2" y="-28" type="curve" smooth="yes"/>
      <point x="137.2" y="-32.2002"/>
      <point x="105.7" y="-39.9004"/>
      <point x="77" y="-39.9004" type="curve" smooth="yes"/>
      <point x="72.0996" y="-39.9004"/>
      <point x="66.5" y="-39.2002"/>
      <point x="61.5996" y="-39.2002" type="curve"/>
      <point x="60.2002" y="-38.5"/>
      <point x="52.5" y="-38.5"/>
      <point x="44.0996" y="-35" type="curve"/>
      <point x="43.4004" y="-35" type="line"/>
      <point x="43.4004" y="-35" type="line"/>
      <point x="28.7002" y="-25.9004"/>
      <point x="25.2002" y="-9.7998"/>
      <point x="23.0996" y="0" type="curve" smooth="yes"/>
      <point x="22.4004" y="5.59961"/>
      <point x="21.7002" y="11.2002"/>
      <point x="21.7002" y="16.7998" type="curve" smooth="yes"/>
      <point x="21.7002" y="42.7002"/>
      <point x="27.2998" y="67.9004"/>
      <point x="30.0996" y="89.5996" type="curve" smooth="yes"/>
      <point x="32.2002" y="100.8"/>
      <point x="33.5996" y="126"/>
      <point x="43.4004" y="146.3" type="curve" smooth="yes"/>
      <point x="44.7998" y="148.4"/>
      <point x="49" y="161.7"/>
      <point x="61.5996" y="172.2" type="curve" smooth="yes"/>
      <point x="74.2002" y="182.7"/>
      <point x="91" y="185.5"/>
      <point x="98.7002" y="186.9" type="curve" smooth="yes"/>
      <point x="123.9" y="191.1"/>
      <point x="149.1" y="195.3"/>
      <point x="172.9" y="200.2" type="curve" smooth="yes"/>
      <point x="198.8" y="205.8"/>
      <point x="223.3" y="211.4"/>
      <point x="242.2" y="219.8" type="curve" smooth="yes"/>
      <point x="287" y="239.4"/>
      <point x="312.2" y="275.1"/>
      <point x="317.8" y="308" type="curve" smooth="yes"/>
      <point x="317.8" y="310.1"/>
      <point x="318.5" y="312.9"/>
      <point x="318.5" y="315" type="curve" smooth="yes"/>
      <point x="318.5" y="322"/>
      <point x="317.1" y="329.7"/>
      <point x="316.4" y="333.2" type="curve" smooth="yes"/>
      <point x="305.9" y="388.5"/>
      <point x="249.2" y="410.2"/>
      <point x="174.3" y="438.2" type="curve" smooth="yes"/>
      <point x="154.7" y="445.9"/>
      <point x="134.4" y="453.6"/>
      <point x="114.8" y="462.7" type="curve"/>
      <point x="104.3" y="459.2"/>
      <point x="102.2" y="458.5"/>
      <point x="99.4004" y="457.8" type="curve"/>
      <point x="97.2998" y="456.4" type="line"/>
      <point x="95.9004" y="457.8" type="line" smooth="yes"/>
      <point x="89.5996" y="463.4"/>
      <point x="85.4004" y="469"/>
      <point x="82.5996" y="474.6" type="curve" smooth="yes"/>
      <point x="74.2002" y="494.2"/>
      <point x="71.4004" y="514.5"/>
      <point x="71.4004" y="531.3" type="curve" smooth="yes"/>
      <point x="71.4004" y="550.2"/>
      <point x="74.9004" y="567.7"/>
      <point x="75.5996" y="581.7" type="curve" smooth="yes"/>
      <point x="77.7002" y="627.9"/>
      <point x="76.2998" y="676.9"/>
      <point x="79.7998" y="725.9" type="curve" smooth="yes"/>
      <point x="80.5" y="743.4"/>
      <point x="83.2998" y="760.2"/>
      <point x="83.2998" y="774.2" type="curve" smooth="yes"/>
      <point x="83.2998" y="779.8"/>
      <point x="82.5996" y="784"/>
      <point x="81.2002" y="788.2" type="curve" smooth="yes"/>
      <point x="77.7002" y="802.9"/>
      <point x="63" y="815.5"/>
      <point x="39.2002" y="831.6" type="curve"/>
      <point x="39.2002" y="831.6" type="line"/>
      <point x="39.2002" y="832.3" type="line"/>
      <point x="28.7002" y="842.1"/>
      <point x="12.5996" y="854.7"/>
      <point x="5.59961" y="872.2" type="curve"/>
      <point x="4.90039" y="872.2" type="line"/>
      <point x="4.90039" y="872.9" type="line"/>
      <point x="2.7998" y="879.9"/>
      <point x="2.09961" y="885.5"/>
      <point x="2.09961" y="891.8" type="curve" smooth="yes"/>
      <point x="1.40039" y="895.3"/>
      <point x="1.40039" y="899.5"/>
      <point x="1.40039" y="903" type="curve" smooth="yes"/>
      <point x="1.40039" y="926.1"/>
      <point x="9.09961" y="949.9"/>
      <point x="14.7002" y="968.1" type="curve" smooth="yes"/>
      <point x="16.0996" y="971.6"/>
      <point x="17.5" y="981.4"/>
      <point x="24.5" y="988.4" type="curve"/>
      <point x="25.2002" y="988.4" type="line"/>
      <point x="25.2002" y="988.4" type="line"/>
      <point x="26.5996" y="989.1"/>
      <point x="29.4004" y="990.5"/>
      <point x="30.0996" y="991.2" type="curve" smooth="yes"/>
      <point x="42" y="997.5"/>
      <point x="56.7002" y="1000.3"/>
      <point x="69.2998" y="1000.3" type="curve" smooth="yes"/>
      <point x="99.4004" y="1000.3"/>
      <point x="140" y="980.7"/>
      <point x="157.5" y="974.4" type="curve" smooth="yes"/>
      <point x="169.4" y="969.5"/>
      <point x="182.7" y="964.6"/>
      <point x="196" y="957.6" type="curve" smooth="yes"/>
      <point x="200.9" y="955.5"/>
      <point x="227.5" y="945"/>
      <point x="238" y="931.7" type="curve" smooth="yes"/>
      <point x="239.4" y="929.6"/>
      <point x="241.5" y="928.2"/>
      <point x="242.9" y="924" type="curve"/>
      <point x="242.9" y="923.3"/>
      <point x="242.9" y="921.2"/>
      <point x="242.9" y="921.2" type="curve"/>
      <point x="243.6" y="920.5"/>
      <point x="243.6" y="918.4"/>
      <point x="243.6" y="917.7" type="curve" smooth="yes"/>
      <point x="243.6" y="901.6"/>
      <point x="239.4" y="884.1"/>
      <point x="238" y="877.1" type="curve" smooth="yes"/>
      <point x="235.9" y="863.8"/>
      <point x="237.3" y="862.4"/>
      <point x="234.5" y="845.6" type="curve" smooth="yes"/>
      <point x="205.8" y="648.9" type="line"/>
      <point x="223.3" y="644.7"/>
      <point x="245" y="639.1"/>
      <point x="266.7" y="628.6" type="curve" smooth="yes"/>
      <point x="340.2" y="595"/>
      <point x="378.7" y="536.9"/>
    </contour>
  </outline>
</glyph>
<glyph name="afii57677" format="2">
  <advance width="664"/>
  <unicode hex="05DD"/>
  <outline>
    <contour>
      <point x="283.5" y="457.8" type="curve" smooth="yes"/>
      <point x="266" y="457.8"/>
      <point x="248.5" y="454.3"/>
      <point x="233.8" y="446.6" type="curve" smooth="yes"/>
      <point x="209.3" y="435.4"/>
      <point x="189.7" y="413.7"/>
      <point x="182.7" y="389.9" type="curve" smooth="yes"/>
      <point x="171.5" y="327.6" type="line"/>
      <point x="173.6" y="271.6" type="line"/>
      <point x="201.6" y="226.1" type="line"/>
      <point x="204.4" y="223.3"/>
      <point x="207.2" y="221.2"/>
      <point x="210" y="219.1" type="curve" smooth="yes"/>
      <point x="217.7" y="212.8"/>
      <point x="226.1" y="205.8"/>
      <point x="233.8" y="198.1" type="curve" smooth="yes"/>
      <point x="238" y="193.9"/>
      <point x="240.1" y="192.5"/>
      <point x="241.5" y="191.8" type="curve" smooth="yes"/>
      <point x="242.9" y="191.1"/>
      <point x="245.7" y="189.7"/>
      <point x="250.6" y="188.3" type="curve" smooth="yes"/>
      <point x="260.4" y="185.5"/>
      <point x="268.1" y="181.3"/>
      <point x="275.8" y="178.5" type="curve"/>
      <point x="277.9" y="177.1"/>
      <point x="280.7" y="176.4"/>
      <point x="282.8" y="175" type="curve"/>
      <point x="350.7" y="167.3" type="line"/>
      <point x="394.1" y="165.2" type="line"/>
      <point x="443.1" y="184.1" type="line"/>
      <point x="494.2" y="214.2" type="line"/>
      <point x="524.3" y="250.6" type="line"/>
      <point x="540.4" y="300.3" type="line"/>
      <point x="536.2" y="366.1" type="line"/>
      <point x="518" y="406" type="line"/>
      <point x="487.9" y="438.2" type="line"/>
      <point x="448" y="446.6" type="line"/>
      <point x="378" y="452.9" type="line"/>
      <point x="317.8" y="452.9" type="line"/>
      <point x="314.3" y="453.6" type="line" smooth="yes"/>
      <point x="304.5" y="456.4"/>
      <point x="294" y="457.8"/>
    </contour>
    <contour>
      <point x="166.6" y="698.6" type="line"/>
      <point x="159.6" y="686" type="line"/>
      <point x="162.4" y="668.5"/>
      <point x="190.4" y="663.6"/>
      <point x="206.5" y="662.2" type="curve" smooth="yes"/>
      <point x="241.5" y="659.4"/>
      <point x="279.3" y="658"/>
      <point x="315.7" y="658" type="curve" smooth="yes"/>
      <point x="326.2" y="658" type="line" smooth="yes"/>
      <point x="344.4" y="658"/>
      <point x="364" y="659.4"/>
      <point x="384.3" y="659.4" type="curve" smooth="yes"/>
      <point x="391.3" y="659.4"/>
      <point x="398.3" y="659.4"/>
      <point x="406" y="658.7" type="curve" smooth="yes"/>
      <point x="426.3" y="658"/>
      <point x="472.5" y="656.6"/>
      <point x="508.2" y="639.1" type="curve" smooth="yes"/>
      <point x="540.4" y="623.7"/>
      <point x="560.7" y="599.2"/>
      <point x="576.1" y="575.4" type="curve" smooth="yes"/>
      <point x="600.6" y="534.8"/>
      <point x="617.4" y="490"/>
      <point x="625.8" y="443.8" type="curve" smooth="yes"/>
      <point x="631.4" y="412.3"/>
      <point x="634.2" y="380.8"/>
      <point x="634.2" y="348.6" type="curve" smooth="yes"/>
      <point x="634.2" y="312.9"/>
      <point x="630.7" y="277.2"/>
      <point x="625.1" y="242.9" type="curve" smooth="yes"/>
      <point x="611.1" y="163.1"/>
      <point x="578.9" y="73.5"/>
      <point x="497.7" y="16.7998" type="curve" smooth="yes"/>
      <point x="449.4" y="-16.0996"/>
      <point x="387.8" y="-31.5"/>
      <point x="326.9" y="-31.5" type="curve" smooth="yes"/>
      <point x="278.6" y="-31.5"/>
      <point x="231" y="-21"/>
      <point x="189" y="-0.700195" type="curve" smooth="yes"/>
      <point x="150.5" y="18.2002"/>
      <point x="113.4" y="49"/>
      <point x="86.7998" y="93.0996" type="curve" smooth="yes"/>
      <point x="53.9004" y="147.7"/>
      <point x="44.7998" y="208.6"/>
      <point x="42" y="267.4" type="curve" smooth="yes"/>
      <point x="42" y="270.9"/>
      <point x="41.2998" y="274.4"/>
      <point x="41.2998" y="278.6" type="curve" smooth="yes"/>
      <point x="41.2998" y="311.5"/>
      <point x="48.2998" y="364"/>
      <point x="74.2002" y="410.2" type="curve" smooth="yes"/>
      <point x="84" y="426.3"/>
      <point x="95.9004" y="441"/>
      <point x="106.4" y="455" type="curve"/>
      <point x="104.3" y="455.7"/>
      <point x="102.2" y="456.4"/>
      <point x="100.1" y="457.8" type="curve" smooth="yes"/>
      <point x="63" y="475.3"/>
      <point x="49" y="510.3"/>
      <point x="49" y="543.9" type="curve" smooth="yes"/>
      <point x="49" y="550.2"/>
      <point x="49.7002" y="556.5"/>
      <point x="50.4004" y="562.8" type="curve" smooth="yes"/>
      <point x="56" y="600.6"/>
      <point x="65.7998" y="637"/>
      <point x="70" y="672" type="curve"/>
      <point x="62.2998" y="677.6" type="line"/>
      <point x="71.4004" y="688.8" type="line"/>
      <point x="72.0996" y="699.3" type="line"/>
      <point x="81.2002" y="700" type="line"/>
      <point x="88.9004" y="709.1" type="line"/>
      <point x="98.7002" y="701.4" type="line"/>
      <point x="122.5" y="703.5" type="line" smooth="yes"/>
      <point x="128.8" y="704.2"/>
      <point x="132.3" y="704.9"/>
      <point x="135.1" y="704.9" type="curve" smooth="yes"/>
      <point x="135.1" y="704.9"/>
      <point x="135.8" y="704.9"/>
      <point x="136.5" y="704.9" type="curve" smooth="yes"/>
      <point x="159.6" y="706.3" type="line"/>
      <point x="159.6" y="700.7" type="line"/>
    </contour>
  </outline>
</glyph>
<glyph name="afii57680" format="2">
  <advance width="431"/>
  <unicode hex="05E0"/>
  <outline>
    <contour>
      <point x="277.2" y="629.3" type="curve" smooth="yes"/>
      <point x="334.6" y="598.5"/>
      <point x="362.6" y="547.4"/>
      <point x="373.1" y="474.6" type="curve" smooth="yes"/>
      <point x="378.7" y="438.2"/>
      <point x="381.5" y="401.1"/>
      <point x="381.5" y="363.3" type="curve" smooth="yes"/>
      <point x="381.5" y="258.3"/>
      <point x="360.5" y="135.8"/>
      <point x="264.6" y="47.5996" type="curve" smooth="yes"/>
      <point x="196.7" y="-13.2998"/>
      <point x="128.1" y="-28"/>
      <point x="93.7998" y="-32.9004" type="curve" smooth="yes"/>
      <point x="85.4004" y="-34.2998"/>
      <point x="77" y="-37.7998"/>
      <point x="65.0996" y="-37.7998" type="curve" smooth="yes"/>
      <point x="61.5996" y="-37.7998"/>
      <point x="61.5996" y="-37.7998"/>
      <point x="60.9004" y="-38.5" type="curve"/>
      <point x="60.2002" y="-38.5" type="line"/>
      <point x="59.5" y="-38.5" type="line"/>
      <point x="46.9004" y="-36.4004"/>
      <point x="30.7998" y="-35"/>
      <point x="22.4004" y="-18.2002" type="curve"/>
      <point x="21.7002" y="-18.2002" type="line"/>
      <point x="21.7002" y="-18.2002" type="line"/>
      <point x="18.9004" y="-10.5"/>
      <point x="18.2002" y="-2.09961"/>
      <point x="17.5" y="2.09961" type="curve" smooth="yes"/>
      <point x="16.7998" y="6.2998"/>
      <point x="16.7998" y="10.5"/>
      <point x="16.7998" y="14.7002" type="curve" smooth="yes"/>
      <point x="16.7998" y="43.4004"/>
      <point x="23.0996" y="69.2998"/>
      <point x="25.2002" y="92.4004" type="curve" smooth="yes"/>
      <point x="26.5996" y="105.7"/>
      <point x="27.2998" y="137.9"/>
      <point x="39.2002" y="160.3" type="curve"/>
      <point x="39.2002" y="161" type="line"/>
      <point x="39.9004" y="161" type="line"/>
      <point x="42.7002" y="165.9"/>
      <point x="48.2998" y="177.8"/>
      <point x="65.0996" y="184.8" type="curve" smooth="yes"/>
      <point x="69.2998" y="186.2"/>
      <point x="73.5" y="186.9"/>
      <point x="76.2998" y="187.6" type="curve" smooth="yes"/>
      <point x="95.2002" y="192.5"/>
      <point x="116.2" y="198.8"/>
      <point x="138.6" y="203.7" type="curve" smooth="yes"/>
      <point x="176.4" y="212.1"/>
      <point x="228.9" y="221.9"/>
      <point x="255.5" y="244.3" type="curve"/>
      <point x="265.3" y="256.2"/>
      <point x="270.9" y="271.6"/>
      <point x="276.5" y="288.4" type="curve" smooth="yes"/>
      <point x="281.4" y="301.7"/>
      <point x="284.2" y="316.4"/>
      <point x="284.2" y="330.4" type="curve" smooth="yes"/>
      <point x="284.2" y="349.3"/>
      <point x="279.3" y="373.8"/>
      <point x="260.4" y="393.4" type="curve" smooth="yes"/>
      <point x="245" y="409.5"/>
      <point x="222.6" y="421.4"/>
      <point x="196.7" y="430.5" type="curve" smooth="yes"/>
      <point x="165.2" y="441"/>
      <point x="130.9" y="450.1"/>
      <point x="98" y="463.4" type="curve"/>
      <point x="88.9004" y="462.7"/>
      <point x="82.5996" y="462"/>
      <point x="75.5996" y="461.3" type="curve"/>
      <point x="74.2002" y="460.6" type="line"/>
      <point x="72.7998" y="462" type="line" smooth="yes"/>
      <point x="67.9004" y="466.9"/>
      <point x="64.4004" y="471.8"/>
      <point x="61.5996" y="476.7" type="curve" smooth="yes"/>
      <point x="54.5996" y="491.4"/>
      <point x="53.2002" y="510.3"/>
      <point x="52.5" y="518" type="curve" smooth="yes"/>
      <point x="51.7998" y="522.9"/>
      <point x="51.7998" y="527.1"/>
      <point x="51.7998" y="532" type="curve" smooth="yes"/>
      <point x="51.7998" y="548.1"/>
      <point x="57.4004" y="574.7"/>
      <point x="90.2998" y="615.3" type="curve" smooth="yes"/>
      <point x="98" y="624.4"/>
      <point x="103.6" y="634.2"/>
      <point x="117.6" y="641.2" type="curve"/>
      <point x="117.6" y="641.2" type="line"/>
      <point x="117.6" y="641.2" type="line"/>
      <point x="119" y="641.9"/>
      <point x="120.4" y="642.6"/>
      <point x="122.5" y="643.3" type="curve" smooth="yes"/>
      <point x="149.1" y="652.4"/>
      <point x="182" y="651"/>
      <point x="200.2" y="651.7" type="curve" smooth="yes"/>
      <point x="200.9" y="651.7"/>
      <point x="203.7" y="651.7"/>
      <point x="204.4" y="651.7" type="curve" smooth="yes"/>
      <point x="230.3" y="651.7"/>
      <point x="258.3" y="639.8"/>
    </contour>
  </outline>
</glyph>
<glyph name="afii57685" format="2">
  <advance width="510"/>
  <unicode hex="05E5"/>
  <outline>
    <contour>
      <point x="475.3" y="626.5" type="curve" smooth="yes"/>
      <point x="475.3" y="571.2"/>
      <point x="460.6" y="511.7"/>
      <point x="417.2" y="472.5" type="curve"/>
      <point x="417.2" y="471.8" type="line"/>
      <point x="416.5" y="471.8" type="line"/>
      <point x="399" y="465.5"/>
      <point x="377.3" y="462"/>
      <point x="353.5" y="458.5" type="curve" smooth="yes"/>
      <point x="342.3" y="456.4"/>
      <point x="336.7" y="455"/>
      <point x="333.2" y="453.6" type="curve"/>
      <point x="333.2" y="452.9"/>
      <point x="333.2" y="452.9"/>
      <point x="333.2" y="452.2" type="curve" smooth="yes"/>
      <point x="331.8" y="446.6"/>
      <point x="331.8" y="436.1"/>
      <point x="330.4" y="430.5" type="curve" smooth="yes"/>
      <point x="320.6" y="372.4"/>
      <point x="316.4" y="312.9"/>
      <point x="316.4" y="253.4" type="curve" smooth="yes"/>
      <point x="316.4" y="233.1"/>
      <point x="317.1" y="212.1"/>
      <point x="317.8" y="191.8" type="curve" smooth="yes"/>
      <point x="319.2" y="167.3"/>
      <point x="317.8" y="144.2"/>
      <point x="320.6" y="123.9" type="curve" smooth="yes"/>
      <point x="322" y="107.8"/>
      <point x="330.4" y="83.2998"/>
      <point x="333.2" y="68.5996" type="curve" smooth="yes"/>
      <point x="345.1" y="11.9004"/>
      <point x="357" y="-46.9004"/>
      <point x="357" y="-107.1" type="curve" smooth="yes"/>
      <point x="357" y="-117.6"/>
      <point x="356.3" y="-127.4"/>
      <point x="355.6" y="-137.2" type="curve" smooth="yes"/>
      <point x="353.5" y="-162.4"/>
      <point x="342.3" y="-183.4"/>
      <point x="333.9" y="-203" type="curve" smooth="yes"/>
      <point x="320.6" y="-231.7"/>
      <point x="307.3" y="-260.4"/>
      <point x="290.5" y="-287.7" type="curve" smooth="yes"/>
      <point x="282.1" y="-301"/>
      <point x="271.6" y="-312.9"/>
      <point x="261.1" y="-324.1" type="curve" smooth="yes"/>
      <point x="255.5" y="-329.7"/>
      <point x="254.8" y="-331.1"/>
      <point x="252.7" y="-332.5" type="curve"/>
      <point x="252.7" y="-332.5" type="line"/>
      <point x="252.7" y="-332.5" type="line"/>
      <point x="252" y="-333.2"/>
      <point x="249.9" y="-334.6"/>
      <point x="249.2" y="-334.6" type="curve"/>
      <point x="248.5" y="-335.3"/>
      <point x="245.7" y="-336"/>
      <point x="245" y="-336.7" type="curve"/>
      <point x="244.3" y="-336.7" type="line"/>
      <point x="244.3" y="-336.7" type="line"/>
      <point x="243.6" y="-336.7"/>
      <point x="240.8" y="-337.4"/>
      <point x="239.4" y="-337.4" type="curve"/>
      <point x="237.3" y="-338.1"/>
      <point x="231" y="-340.2"/>
      <point x="228.2" y="-340.9" type="curve"/>
      <point x="224" y="-340.9"/>
      <point x="219.8" y="-341.6"/>
      <point x="216.3" y="-341.6" type="curve"/>
      <point x="214.9" y="-340.9"/>
      <point x="206.5" y="-341.6"/>
      <point x="195.3" y="-338.8" type="curve"/>
      <point x="195.3" y="-338.8" type="line"/>
      <point x="195.3" y="-338.8" type="line"/>
      <point x="182.7" y="-333.9"/>
      <point x="173.6" y="-324.8"/>
      <point x="170.1" y="-320.6" type="curve" smooth="yes"/>
      <point x="143.5" y="-292.6"/>
      <point x="137.2" y="-252"/>
      <point x="133" y="-225.4" type="curve" smooth="yes"/>
      <point x="130.2" y="-205.8"/>
      <point x="128.8" y="-186.9"/>
      <point x="128.8" y="-168" type="curve" smooth="yes"/>
      <point x="128.8" y="-108.5"/>
      <point x="139.3" y="-51.0996"/>
      <point x="149.8" y="5.59961" type="curve" smooth="yes"/>
      <point x="158.9" y="57.4004"/>
      <point x="165.9" y="109.9"/>
      <point x="173.6" y="162.4" type="curve" smooth="yes"/>
      <point x="182.7" y="227.5"/>
      <point x="194.6" y="291.2"/>
      <point x="203.7" y="355.6" type="curve" smooth="yes"/>
      <point x="207.2" y="383.6"/>
      <point x="209.3" y="414.4"/>
      <point x="214.9" y="445.2" type="curve"/>
      <point x="118.3" y="448.7"/>
      <point x="74.9004" y="469"/>
      <point x="52.5" y="487.9" type="curve"/>
      <point x="52.5" y="487.9" type="line"/>
      <point x="51.7998" y="488.6" type="line" smooth="yes"/>
      <point x="28" y="518.7"/>
      <point x="20.2998" y="558.6"/>
      <point x="20.2998" y="595.7" type="curve" smooth="yes"/>
      <point x="20.2998" y="613.2"/>
      <point x="23.0996" y="630"/>
      <point x="27.2998" y="645.4" type="curve" smooth="yes"/>
      <point x="30.7998" y="656.6"/>
      <point x="39.2002" y="674.8"/>
      <point x="53.2002" y="686.7" type="curve"/>
      <point x="53.2002" y="686" type="line"/>
      <point x="53.9004" y="686.7" type="line"/>
      <point x="53.9004" y="686.7"/>
      <point x="54.5996" y="687.4"/>
      <point x="56.7002" y="688.1" type="curve"/>
      <point x="57.4004" y="688.8"/>
      <point x="58.0996" y="688.8"/>
      <point x="60.9004" y="690.2" type="curve"/>
      <point x="61.5996" y="690.2"/>
      <point x="61.5996" y="690.9"/>
      <point x="65.0996" y="691.6" type="curve"/>
      <point x="65.0996" y="691.6" type="line"/>
      <point x="65.7998" y="691.6" type="line" smooth="yes"/>
      <point x="67.9004" y="691.6"/>
      <point x="74.2002" y="691.6"/>
      <point x="76.2998" y="691.6" type="curve"/>
      <point x="76.2998" y="691.6" type="line"/>
      <point x="77" y="691.6" type="line" smooth="yes"/>
      <point x="79.7998" y="691.6"/>
      <point x="87.5" y="690.9"/>
      <point x="90.2998" y="690.2" type="curve"/>
      <point x="91" y="690.2" type="line"/>
      <point x="91.7002" y="690.2" type="line"/>
      <point x="100.8" y="685.3"/>
      <point x="109.2" y="674.8"/>
      <point x="110.6" y="674.1" type="curve" smooth="yes"/>
      <point x="132.3" y="655.9"/>
      <point x="158.9" y="643.3"/>
      <point x="186.9" y="637.7" type="curve" smooth="yes"/>
      <point x="210" y="632.8"/>
      <point x="235.2" y="630"/>
      <point x="260.4" y="630" type="curve" smooth="yes"/>
      <point x="291.9" y="630"/>
      <point x="324.1" y="634.2"/>
      <point x="350.7" y="643.3" type="curve" smooth="yes"/>
      <point x="379.4" y="653.1"/>
      <point x="408.8" y="674.1"/>
      <point x="430.5" y="694.4" type="curve" smooth="yes"/>
      <point x="448.7" y="709.8" type="line"/>
      <point x="462" y="694.4" type="line" smooth="yes"/>
      <point x="474.6" y="676.9"/>
      <point x="474.6" y="648.2"/>
      <point x="474.6" y="643.3" type="curve" smooth="yes"/>
      <point x="475.3" y="637.7"/>
      <point x="475.3" y="632.1"/>
    </contour>
  </outline>
</glyph>
<glyph name="afii57687" format="2">
  <advance width="664"/>
  <unicode hex="05E7"/>
  <outline>
    <contour>
      <point x="215.6" y="396.9" type="line" smooth="yes"/>
      <point x="202.3" y="355.6"/>
      <point x="198.8" y="310.8"/>
      <point x="196.7" y="265.3" type="curve" smooth="yes"/>
      <point x="196" y="249.9"/>
      <point x="195.3" y="234.5"/>
      <point x="195.3" y="219.1" type="curve" smooth="yes"/>
      <point x="195.3" y="201.6"/>
      <point x="196" y="184.1"/>
      <point x="198.1" y="166.6" type="curve" smooth="yes"/>
      <point x="202.3" y="129.5"/>
      <point x="213.5" y="91"/>
      <point x="221.2" y="50.4004" type="curve" smooth="yes"/>
      <point x="235.2" y="-23.7998"/>
      <point x="247.1" y="-100.1"/>
      <point x="247.1" y="-177.8" type="curve" smooth="yes"/>
      <point x="247.1" y="-184.1"/>
      <point x="247.1" y="-190.4"/>
      <point x="247.1" y="-197.4" type="curve" smooth="yes"/>
      <point x="246.4" y="-205.8"/>
      <point x="247.8" y="-228.9"/>
      <point x="242.2" y="-247.1" type="curve" smooth="yes"/>
      <point x="229.6" y="-284.9"/>
      <point x="191.8" y="-312.2"/>
      <point x="165.9" y="-327.6" type="curve" smooth="yes"/>
      <point x="152.6" y="-336"/>
      <point x="135.1" y="-345.8"/>
      <point x="114.8" y="-345.8" type="curve" smooth="yes"/>
      <point x="108.5" y="-345.8"/>
      <point x="95.9004" y="-344.4"/>
      <point x="82.5996" y="-335.3" type="curve"/>
      <point x="82.5996" y="-335.3" type="line"/>
      <point x="82.5996" y="-335.3" type="line"/>
      <point x="78.4004" y="-330.4"/>
      <point x="70" y="-326.2"/>
      <point x="65.7998" y="-308.7" type="curve" smooth="yes"/>
      <point x="63" y="-296.1"/>
      <point x="63.7002" y="-286.3"/>
      <point x="63" y="-277.2" type="curve" smooth="yes"/>
      <point x="62.2998" y="-270.2"/>
      <point x="62.2998" y="-262.5"/>
      <point x="62.2998" y="-255.5" type="curve" smooth="yes"/>
      <point x="62.2998" y="-239.4"/>
      <point x="63.7002" y="-223.3"/>
      <point x="64.4004" y="-208.6" type="curve" smooth="yes"/>
      <point x="64.4004" y="-205.1"/>
      <point x="64.4004" y="-200.9"/>
      <point x="64.4004" y="-197.4" type="curve" smooth="yes"/>
      <point x="64.4004" y="-180.6"/>
      <point x="63" y="-162.4"/>
      <point x="62.2998" y="-144.2" type="curve" smooth="yes"/>
      <point x="61.5996" y="-124.6"/>
      <point x="60.9004" y="-105.7"/>
      <point x="60.9004" y="-86.0996" type="curve" smooth="yes"/>
      <point x="60.9004" y="-37.7998"/>
      <point x="63" y="10.5"/>
      <point x="63" y="58.0996" type="curve" smooth="yes"/>
      <point x="63" y="61.5996"/>
      <point x="63" y="65.7998"/>
      <point x="63" y="69.2998" type="curve" smooth="yes"/>
      <point x="63" y="87.5"/>
      <point x="63" y="105"/>
      <point x="63" y="123.2" type="curve" smooth="yes"/>
      <point x="63" y="174.3"/>
      <point x="64.4004" y="226.1"/>
      <point x="74.9004" y="277.9" type="curve" smooth="yes"/>
      <point x="81.9004" y="312.9"/>
      <point x="93.0996" y="347.2"/>
      <point x="107.8" y="379.4" type="curve" smooth="yes"/>
      <point x="112" y="389.2"/>
      <point x="115.5" y="399.7"/>
      <point x="121.1" y="408.1" type="curve" smooth="yes"/>
      <point x="124.6" y="413.7"/>
      <point x="128.8" y="417.2"/>
      <point x="132.3" y="420" type="curve"/>
      <point x="138.6" y="423.5"/>
      <point x="144.9" y="424.2"/>
      <point x="150.5" y="424.2" type="curve" smooth="yes"/>
      <point x="154.7" y="424.2"/>
      <point x="156.8" y="424.2"/>
      <point x="158.2" y="424.2" type="curve" smooth="yes"/>
      <point x="224.7" y="424.2" type="line"/>
    </contour>
    <contour>
      <point x="135.1" y="707" type="curve" smooth="yes"/>
      <point x="135.8" y="707"/>
      <point x="137.9" y="707"/>
      <point x="138.6" y="707" type="curve" smooth="yes"/>
      <point x="139.3" y="707" type="line"/>
      <point x="140" y="707" type="line"/>
      <point x="140" y="707" type="line"/>
      <point x="144.9" y="705.6"/>
      <point x="158.2" y="706.3"/>
      <point x="165.9" y="686" type="curve" smooth="yes"/>
      <point x="171.5" y="670.6"/>
      <point x="170.1" y="665.7"/>
      <point x="170.1" y="665.7" type="curve"/>
      <point x="174.3" y="658.7"/>
      <point x="184.1" y="652.4"/>
      <point x="195.3" y="651" type="curve" smooth="yes"/>
      <point x="212.8" y="648.9"/>
      <point x="230.3" y="648.2"/>
      <point x="248.5" y="648.2" type="curve" smooth="yes"/>
      <point x="286.3" y="648.2"/>
      <point x="325.5" y="651.7"/>
      <point x="366.1" y="651.7" type="curve" smooth="yes"/>
      <point x="384.3" y="651.7"/>
      <point x="402.5" y="651"/>
      <point x="421.4" y="648.9" type="curve" smooth="yes"/>
      <point x="465.5" y="644.7"/>
      <point x="511" y="634.2"/>
      <point x="540.4" y="602" type="curve" smooth="yes"/>
      <point x="553.7" y="587.3"/>
      <point x="570.5" y="563.5"/>
      <point x="588.7" y="510.3" type="curve" smooth="yes"/>
      <point x="598.5" y="481.6"/>
      <point x="604.8" y="452.2"/>
      <point x="608.3" y="422.8" type="curve" smooth="yes"/>
      <point x="611.8" y="399"/>
      <point x="613.2" y="375.2"/>
      <point x="613.2" y="351.4" type="curve" smooth="yes"/>
      <point x="613.2" y="269.5"/>
      <point x="595.7" y="187.6"/>
      <point x="557.2" y="114.1" type="curve" smooth="yes"/>
      <point x="532" y="65.0996"/>
      <point x="466.2" y="12.5996"/>
      <point x="388.5" y="12.5996" type="curve" smooth="yes"/>
      <point x="383.6" y="12.5996"/>
      <point x="378.7" y="12.5996"/>
      <point x="373.8" y="13.2998" type="curve"/>
      <point x="373.1" y="13.2998" type="line"/>
      <point x="373.1" y="13.2998" type="line"/>
      <point x="358.4" y="17.5"/>
      <point x="361.9" y="15.4004"/>
      <point x="354.9" y="18.9004" type="curve" smooth="yes"/>
      <point x="351.4" y="21"/>
      <point x="348.6" y="23.0996"/>
      <point x="347.2" y="23.7998" type="curve" smooth="yes"/>
      <point x="343" y="25.2002"/>
      <point x="335.3" y="29.4004"/>
      <point x="328.3" y="35" type="curve" smooth="yes"/>
      <point x="324.8" y="37.7998"/>
      <point x="321.3" y="41.2998"/>
      <point x="318.5" y="45.5" type="curve" smooth="yes"/>
      <point x="317.1" y="46.9004"/>
      <point x="313.6" y="51.7998"/>
      <point x="312.2" y="61.5996" type="curve" smooth="yes"/>
      <point x="312.2" y="63"/>
      <point x="311.5" y="66.5"/>
      <point x="311.5" y="67.2002" type="curve" smooth="yes"/>
      <point x="311.5" y="80.5"/>
      <point x="317.8" y="96.5996"/>
      <point x="330.4" y="109.9" type="curve" smooth="yes"/>
      <point x="359.8" y="139.3"/>
      <point x="405.3" y="142.8"/>
      <point x="428.4" y="161" type="curve" smooth="yes"/>
      <point x="482.3" y="201.6"/>
      <point x="514.5" y="258.3"/>
      <point x="514.5" y="317.8" type="curve" smooth="yes"/>
      <point x="514.5" y="324.1"/>
      <point x="514.5" y="330.4"/>
      <point x="513.8" y="336.7" type="curve" smooth="yes"/>
      <point x="509.6" y="370.3"/>
      <point x="504.7" y="382.2"/>
      <point x="498.4" y="391.3" type="curve" smooth="yes"/>
      <point x="469.7" y="431.9"/>
      <point x="420" y="441.7"/>
      <point x="361.9" y="441.7" type="curve" smooth="yes"/>
      <point x="327.6" y="441.7"/>
      <point x="291.2" y="438.2"/>
      <point x="257.6" y="436.1" type="curve" smooth="yes"/>
      <point x="240.1" y="434.7"/>
      <point x="221.9" y="434"/>
      <point x="203" y="434" type="curve" smooth="yes"/>
      <point x="198.1" y="434"/>
      <point x="192.5" y="434"/>
      <point x="186.9" y="434" type="curve" smooth="yes"/>
      <point x="153.3" y="434"/>
      <point x="116.9" y="436.1"/>
      <point x="89.5996" y="460.6" type="curve" smooth="yes"/>
      <point x="67.2002" y="480.9"/>
      <point x="60.9004" y="504"/>
      <point x="60.2002" y="539.7" type="curve" smooth="yes"/>
      <point x="60.2002" y="543.2"/>
      <point x="60.2002" y="546"/>
      <point x="60.2002" y="549.5" type="curve" smooth="yes"/>
      <point x="60.2002" y="576.1"/>
      <point x="63" y="602.7"/>
      <point x="65.7998" y="628.6" type="curve" smooth="yes"/>
      <point x="67.9004" y="641.2"/>
      <point x="70" y="653.8"/>
      <point x="71.4004" y="666.4" type="curve" smooth="yes"/>
      <point x="72.7998" y="675.5"/>
      <point x="72.7998" y="676.2"/>
      <point x="73.5" y="677.6" type="curve" smooth="yes"/>
      <point x="74.2002" y="681.8"/>
      <point x="76.2998" y="687.4"/>
      <point x="81.2002" y="692.3" type="curve"/>
      <point x="81.2002" y="693" type="line"/>
      <point x="81.9004" y="693" type="line"/>
      <point x="85.4004" y="695.8"/>
      <point x="89.5996" y="701.4"/>
      <point x="104.3" y="704.2" type="curve" smooth="yes"/>
      <point x="116.9" y="707"/>
      <point x="129.5" y="706.3"/>
    </contour>
  </outline>
</glyph>
<glyph name="afii57688" format="2">
  <advance width="585"/>
  <unicode hex="05E8"/>
  <outline>
    <contour>
      <point x="53.2002" y="700.7" type="line" smooth="yes"/>
      <point x="60.2002" y="700.7"/>
      <point x="67.2002" y="700.7"/>
      <point x="73.5" y="700.7" type="curve" smooth="yes"/>
      <point x="84" y="700.7" type="line" smooth="yes"/>
      <point x="84.7002" y="700.7"/>
      <point x="84.7002" y="700.7"/>
      <point x="85.4004" y="700.7" type="curve"/>
      <point x="85.4004" y="700.7" type="line"/>
      <point x="86.7998" y="700.7"/>
      <point x="87.5" y="701.4"/>
      <point x="92.4004" y="701.4" type="curve" smooth="yes"/>
      <point x="96.5996" y="701.4"/>
      <point x="105.7" y="698.6"/>
      <point x="108.5" y="696.5" type="curve"/>
      <point x="108.5" y="696.5" type="line"/>
      <point x="109.2" y="696.5" type="line"/>
      <point x="109.9" y="695.1"/>
      <point x="117.6" y="690.2"/>
      <point x="119" y="688.1" type="curve" smooth="yes"/>
      <point x="123.2" y="681.8"/>
      <point x="124.6" y="673.4"/>
      <point x="124.6" y="673.4" type="curve" smooth="yes"/>
      <point x="128.8" y="665.7"/>
      <point x="131.6" y="660.1"/>
      <point x="144.9" y="658" type="curve" smooth="yes"/>
      <point x="165.2" y="655.2"/>
      <point x="186.2" y="654.5"/>
      <point x="208.6" y="654.5" type="curve" smooth="yes"/>
      <point x="238" y="654.5"/>
      <point x="268.8" y="656.6"/>
      <point x="300.3" y="656.6" type="curve" smooth="yes"/>
      <point x="338.1" y="656.6"/>
      <point x="378" y="653.8"/>
      <point x="415.8" y="636.3" type="curve" smooth="yes"/>
      <point x="471.1" y="611.1"/>
      <point x="497" y="552.3"/>
      <point x="511.7" y="508.9" type="curve" smooth="yes"/>
      <point x="529.2" y="457.8"/>
      <point x="537.6" y="403.9"/>
      <point x="537.6" y="349.3" type="curve" smooth="yes"/>
      <point x="537.6" y="282.1"/>
      <point x="525.7" y="214.9"/>
      <point x="504.7" y="154" type="curve" smooth="yes"/>
      <point x="491.4" y="115.5"/>
      <point x="475.3" y="77"/>
      <point x="450.8" y="42" type="curve" smooth="yes"/>
      <point x="437.5" y="23.0996"/>
      <point x="420" y="4.2002"/>
      <point x="393.4" y="-8.40039" type="curve" smooth="yes"/>
      <point x="375.2" y="-17.5"/>
      <point x="351.4" y="-25.2002"/>
      <point x="326.9" y="-25.2002" type="curve" smooth="yes"/>
      <point x="289.1" y="-25.2002"/>
      <point x="270.9" y="-7.7002"/>
      <point x="263.9" y="0.700195" type="curve" smooth="yes"/>
      <point x="254.1" y="13.2998"/>
      <point x="249.2" y="27.2998"/>
      <point x="249.2" y="41.2998" type="curve" smooth="yes"/>
      <point x="249.2" y="56.7002"/>
      <point x="254.8" y="71.4004"/>
      <point x="266" y="84" type="curve" smooth="yes"/>
      <point x="280" y="99.4004"/>
      <point x="293.3" y="105.7"/>
      <point x="306.6" y="116.2" type="curve" smooth="yes"/>
      <point x="317.8" y="125.3"/>
      <point x="328.3" y="135.8"/>
      <point x="338.8" y="145.6" type="curve" smooth="yes"/>
      <point x="396.9" y="203.7"/>
      <point x="438.2" y="265.3"/>
      <point x="438.2" y="337.4" type="curve" smooth="yes"/>
      <point x="438.2" y="375.9"/>
      <point x="428.4" y="403.9"/>
      <point x="401.8" y="423.5" type="curve" smooth="yes"/>
      <point x="390.6" y="431.9"/>
      <point x="368.9" y="443.1"/>
      <point x="324.8" y="448" type="curve" smooth="yes"/>
      <point x="307.3" y="449.4"/>
      <point x="289.1" y="450.1"/>
      <point x="271.6" y="450.1" type="curve" smooth="yes"/>
      <point x="235.2" y="450.1"/>
      <point x="197.4" y="447.3"/>
      <point x="158.9" y="447.3" type="curve" smooth="yes"/>
      <point x="119" y="447.3"/>
      <point x="53.2002" y="448.7"/>
      <point x="28.7002" y="502.6" type="curve" smooth="yes"/>
      <point x="23.7998" y="513.1"/>
      <point x="24.5" y="522.9"/>
      <point x="23.0996" y="530.6" type="curve" smooth="yes"/>
      <point x="21.7002" y="543.2"/>
      <point x="21" y="555.8"/>
      <point x="21" y="567.7" type="curve" smooth="yes"/>
      <point x="21" y="576.1"/>
      <point x="21.7002" y="584.5"/>
      <point x="21.7002" y="592.9" type="curve" smooth="yes"/>
      <point x="21.7002" y="625.1"/>
      <point x="28.7002" y="655.2"/>
      <point x="32.2002" y="683.2" type="curve" smooth="yes"/>
      <point x="34.2998" y="700.7" type="line"/>
    </contour>
  </outline>
</glyph>
<glyph name="afii57689" format="2">
  <advance width="664"/>
  <unicode hex="05E9"/>
  <outline>
    <contour>
      <point x="99.4004" y="637" type="line" smooth="yes"/>
      <point x="107.1" y="655.9"/>
      <point x="116.2" y="674.1"/>
      <point x="120.4" y="690.2" type="curve" smooth="yes"/>
      <point x="123.9" y="705.6" type="line"/>
      <point x="212.1" y="705.6" type="line"/>
      <point x="212.1" y="684.6" type="line" smooth="yes"/>
      <point x="212.1" y="653.1"/>
      <point x="231" y="646.8"/>
      <point x="237.3" y="644.7" type="curve" smooth="yes"/>
      <point x="241.5" y="643.3"/>
      <point x="249.2" y="644"/>
      <point x="260.4" y="643.3" type="curve" smooth="yes"/>
      <point x="276.5" y="641.9"/>
      <point x="291.9" y="640.5"/>
      <point x="306.6" y="640.5" type="curve" smooth="yes"/>
      <point x="328.3" y="639.1"/>
      <point x="350" y="638.4"/>
      <point x="371" y="638.4" type="curve" smooth="yes"/>
      <point x="402.5" y="638.4"/>
      <point x="433.3" y="640.5"/>
      <point x="463.4" y="646.1" type="curve" smooth="yes"/>
      <point x="487.2" y="650.3"/>
      <point x="509.6" y="665.7"/>
      <point x="514.5" y="684.6" type="curve" smooth="yes"/>
      <point x="518" y="701.4" type="line"/>
      <point x="608.3" y="701.4" type="line"/>
      <point x="608.3" y="681.8" type="line" smooth="yes"/>
      <point x="608.3" y="653.1"/>
      <point x="600.6" y="623"/>
      <point x="592.9" y="597.8" type="curve" smooth="yes"/>
      <point x="585.2" y="574.7"/>
      <point x="577.5" y="550.2"/>
      <point x="567" y="526.4" type="curve" smooth="yes"/>
      <point x="562.8" y="518"/>
      <point x="560" y="506.1"/>
      <point x="550.2" y="496.3" type="curve" smooth="yes"/>
      <point x="525.7" y="470.4"/>
      <point x="477.4" y="459.9"/>
      <point x="453.6" y="455" type="curve" smooth="yes"/>
      <point x="423.5" y="448.7"/>
      <point x="393.4" y="447.3"/>
      <point x="364" y="447.3" type="curve" smooth="yes"/>
      <point x="320.6" y="447.3"/>
      <point x="279.3" y="450.8"/>
      <point x="239.4" y="450.8" type="curve" smooth="yes"/>
      <point x="230.3" y="450.8"/>
      <point x="221.2" y="450.8"/>
      <point x="212.1" y="450.8" type="curve"/>
      <point x="210.7" y="387.8"/>
      <point x="206.5" y="326.2"/>
      <point x="206.5" y="265.3" type="curve" smooth="yes"/>
      <point x="206.5" y="264.6" type="line" smooth="yes"/>
      <point x="206.5" y="261.8"/>
      <point x="206.5" y="258.3"/>
      <point x="206.5" y="254.8" type="curve" smooth="yes"/>
      <point x="206.5" y="242.2"/>
      <point x="206.5" y="228.9"/>
      <point x="204.4" y="215.6" type="curve" smooth="yes"/>
      <point x="204.4" y="214.2"/>
      <point x="204.4" y="212.8"/>
      <point x="203.7" y="211.4" type="curve"/>
      <point x="207.2" y="210.7"/>
      <point x="211.4" y="210"/>
      <point x="214.2" y="210" type="curve" smooth="yes"/>
      <point x="237.3" y="205.8"/>
      <point x="262.5" y="205.8"/>
      <point x="290.5" y="204.4" type="curve" smooth="yes"/>
      <point x="307.3" y="203"/>
      <point x="323.4" y="202.3"/>
      <point x="338.8" y="202.3" type="curve" smooth="yes"/>
      <point x="363.3" y="202.3"/>
      <point x="386.4" y="204.4"/>
      <point x="408.1" y="212.1" type="curve" smooth="yes"/>
      <point x="476.7" y="234.5"/>
      <point x="506.1" y="306.6"/>
      <point x="509.6" y="376.6" type="curve" smooth="yes"/>
      <point x="510.3" y="396.9" type="line"/>
      <point x="606.2" y="396.9" type="line"/>
      <point x="606.2" y="375.9" type="line" smooth="yes"/>
      <point x="606.2" y="296.8"/>
      <point x="597.8" y="215.6"/>
      <point x="571.9" y="138.6" type="curve" smooth="yes"/>
      <point x="569.1" y="129.5"/>
      <point x="554.4" y="81.2002"/>
      <point x="531.3" y="52.5" type="curve" smooth="yes"/>
      <point x="518.7" y="37.0996"/>
      <point x="489.3" y="14.7002"/>
      <point x="435.4" y="1.40039" type="curve" smooth="yes"/>
      <point x="409.5" y="-4.90039"/>
      <point x="383.6" y="-7"/>
      <point x="358.4" y="-7" type="curve" smooth="yes"/>
      <point x="331.1" y="-7"/>
      <point x="303.8" y="-4.90039"/>
      <point x="278.6" y="-2.7998" type="curve" smooth="yes"/>
      <point x="266" y="-1.40039"/>
      <point x="242.9" y="2.7998"/>
      <point x="230.3" y="2.7998" type="curve" smooth="yes"/>
      <point x="224.7" y="2.7998"/>
      <point x="221.2" y="2.09961"/>
      <point x="219.8" y="1.40039" type="curve" smooth="yes"/>
      <point x="198.1" y="-4.90039"/>
      <point x="202.3" y="-44.7998"/>
      <point x="177.1" y="-70" type="curve" smooth="yes"/>
      <point x="175" y="-72.0996"/>
      <point x="168" y="-79.0996"/>
      <point x="152.6" y="-84.7002" type="curve" smooth="yes"/>
      <point x="140" y="-88.2002"/>
      <point x="129.5" y="-88.9004"/>
      <point x="120.4" y="-88.9004" type="curve" smooth="yes"/>
      <point x="111.3" y="-88.9004"/>
      <point x="105" y="-88.2002"/>
      <point x="98.7002" y="-88.2002" type="curve" smooth="yes"/>
      <point x="72.0996" y="-88.2002" type="line"/>
      <point x="78.4004" y="-62.2998" type="line" smooth="yes"/>
      <point x="79.0996" y="-59.5"/>
      <point x="79.7998" y="-54.5996"/>
      <point x="79.7998" y="-46.9004" type="curve" smooth="yes"/>
      <point x="79.7998" y="-44.0996"/>
      <point x="79.7998" y="-40.5996"/>
      <point x="79.7998" y="-37.0996" type="curve" smooth="yes"/>
      <point x="79.7998" y="-32.2002"/>
      <point x="79.7998" y="-29.4004"/>
      <point x="79.7998" y="-27.2998" type="curve" smooth="yes"/>
      <point x="81.9004" y="-2.09961"/>
      <point x="82.5996" y="23.7998"/>
      <point x="83.2998" y="49.7002" type="curve" smooth="yes"/>
      <point x="87.5" y="127.4"/>
      <point x="91.7002" y="204.4"/>
      <point x="95.2002" y="282.1" type="curve" smooth="yes"/>
      <point x="97.2998" y="320.6"/>
      <point x="98" y="360.5"/>
      <point x="101.5" y="400.4" type="curve" smooth="yes"/>
      <point x="102.2" y="412.3"/>
      <point x="102.2" y="424.9"/>
      <point x="102.9" y="438.9" type="curve" smooth="yes"/>
      <point x="103.6" y="443.8"/>
      <point x="104.3" y="448"/>
      <point x="105" y="452.2" type="curve"/>
      <point x="103.6" y="452.2" type="line"/>
      <point x="93.7998" y="455"/>
      <point x="70" y="459.9"/>
      <point x="56.7002" y="473.9" type="curve" smooth="yes"/>
      <point x="53.2002" y="477.4"/>
      <point x="46.9004" y="485.8"/>
      <point x="46.9004" y="497.7" type="curve" smooth="yes"/>
      <point x="46.9004" y="497.7"/>
      <point x="46.9004" y="497.7"/>
      <point x="46.9004" y="498.4" type="curve"/>
      <point x="46.9004" y="498.4" type="line"/>
      <point x="46.9004" y="499.1" type="line"/>
      <point x="47.5996" y="501.9"/>
      <point x="46.9004" y="505.4"/>
      <point x="50.4004" y="513.8" type="curve" smooth="yes"/>
      <point x="51.7998" y="517.3" type="line"/>
      <point x="53.2002" y="518.7"/>
      <point x="53.2002" y="520.1"/>
      <point x="53.9004" y="520.8" type="curve"/>
    </contour>
  </outline>
</glyph>
<glyph name="afii57716" format="2">
  <advance width="701"/>
  <unicode hex="05F0"/>
  <outline>
    <contour>
      <point x="529.2" y="175" type="curve" smooth="yes"/>
      <point x="529.2" y="238"/>
      <point x="522.2" y="298.2"/>
      <point x="496.3" y="354.9" type="curve" smooth="yes"/>
      <point x="480.2" y="390.6"/>
      <point x="454.3" y="422.8"/>
      <point x="416.5" y="444.5" type="curve" smooth="yes"/>
      <point x="391.3" y="459.9"/>
      <point x="368.2" y="460.6"/>
      <point x="351.4" y="478.8" type="curve"/>
      <point x="351.4" y="478.8" type="line"/>
      <point x="350.7" y="479.5" type="line"/>
      <point x="345.8" y="487.9"/>
      <point x="343" y="498.4"/>
      <point x="341.6" y="510.3" type="curve" smooth="yes"/>
      <point x="341.6" y="520.8" type="line" smooth="yes"/>
      <point x="341.6" y="542.5"/>
      <point x="350" y="578.9"/>
      <point x="391.3" y="626.5" type="curve" smooth="yes"/>
      <point x="401.1" y="638.4"/>
      <point x="418.6" y="655.2"/>
      <point x="450.8" y="659.4" type="curve" smooth="yes"/>
      <point x="455.7" y="660.1"/>
      <point x="461.3" y="660.1"/>
      <point x="466.2" y="660.1" type="curve" smooth="yes"/>
      <point x="477.4" y="660.1"/>
      <point x="490.7" y="660.1"/>
      <point x="519.4" y="649.6" type="curve" smooth="yes"/>
      <point x="562.8" y="632.8"/>
      <point x="593.6" y="604.1"/>
      <point x="611.1" y="576.8" type="curve" smooth="yes"/>
      <point x="623" y="557.2"/>
      <point x="627.9" y="536.2"/>
      <point x="631.4" y="518.7" type="curve" smooth="yes"/>
      <point x="638.4" y="486.5"/>
      <point x="640.5" y="453.6"/>
      <point x="640.5" y="420.7" type="curve" smooth="yes"/>
      <point x="640.5" y="410.9"/>
      <point x="640.5" y="401.1"/>
      <point x="639.8" y="391.3" type="curve" smooth="yes"/>
      <point x="636.3" y="302.4"/>
      <point x="637" y="212.1"/>
      <point x="628.6" y="121.1" type="curve" smooth="yes"/>
      <point x="625.8" y="91.7002"/>
      <point x="624.4" y="60.9004"/>
      <point x="620.2" y="28.7002" type="curve" smooth="yes"/>
      <point x="619.5" y="18.9004"/>
      <point x="618.8" y="9.7998"/>
      <point x="616" y="0.700195" type="curve"/>
      <point x="616" y="1.40039" type="line"/>
      <point x="616" y="0.700195" type="line"/>
      <point x="616" y="0.700195"/>
      <point x="615.3" y="0"/>
      <point x="613.9" y="-0.700195" type="curve"/>
      <point x="613.9" y="-1.40039"/>
      <point x="612.5" y="-2.7998"/>
      <point x="611.1" y="-4.2002" type="curve" smooth="yes"/>
      <point x="610.4" y="-4.90039" type="line"/>
      <point x="609.7" y="-4.90039" type="line" smooth="yes"/>
      <point x="608.3" y="-4.90039"/>
      <point x="606.9" y="-5.59961"/>
      <point x="606.2" y="-5.59961" type="curve"/>
      <point x="602" y="-8.40039"/>
      <point x="597.8" y="-11.9004"/>
      <point x="583.8" y="-14" type="curve" smooth="yes"/>
      <point x="571.9" y="-16.7998"/>
      <point x="560" y="-16.7998"/>
      <point x="554.4" y="-16.7998" type="curve"/>
      <point x="554.4" y="-20.2998"/>
      <point x="554.4" y="-20.2998"/>
      <point x="554.4" y="-16.7998" type="curve"/>
      <point x="552.3" y="-16.7998"/>
      <point x="546" y="-16.7998"/>
      <point x="544.6" y="-16.7998" type="curve" smooth="yes"/>
      <point x="522.2" y="-16.7998" type="line"/>
      <point x="522.2" y="-13.2998" type="line" smooth="yes"/>
      <point x="522.2" y="50.4004"/>
      <point x="529.2" y="113.4"/>
    </contour>
    <contour>
      <point x="177.8" y="175" type="curve" smooth="yes"/>
      <point x="177.8" y="238"/>
      <point x="172.2" y="298.2"/>
      <point x="150.5" y="355.6" type="curve" smooth="yes"/>
      <point x="137.2" y="390.6"/>
      <point x="115.5" y="422.8"/>
      <point x="84.7002" y="444.5" type="curve" smooth="yes"/>
      <point x="64.4004" y="459.2"/>
      <point x="44.0996" y="461.3"/>
      <point x="30.7998" y="478.8" type="curve"/>
      <point x="30.0996" y="478.8" type="line"/>
      <point x="30.0996" y="479.5" type="line"/>
      <point x="25.9004" y="487.9"/>
      <point x="23.0996" y="499.1"/>
      <point x="22.4004" y="510.3" type="curve" smooth="yes"/>
      <point x="22.4004" y="520.8" type="line" smooth="yes"/>
      <point x="22.4004" y="542.5"/>
      <point x="29.4004" y="578.9"/>
      <point x="63.7002" y="626.5" type="curve" smooth="yes"/>
      <point x="72.0996" y="638.4"/>
      <point x="86.0996" y="654.5"/>
      <point x="113.4" y="659.4" type="curve" smooth="yes"/>
      <point x="117.6" y="660.1"/>
      <point x="121.8" y="660.1"/>
      <point x="126.7" y="660.1" type="curve" smooth="yes"/>
      <point x="135.1" y="660.1"/>
      <point x="147" y="660.1"/>
      <point x="170.8" y="649.6" type="curve" smooth="yes"/>
      <point x="211.4" y="632.1"/>
      <point x="242.2" y="604.1"/>
      <point x="259.7" y="576.8" type="curve" smooth="yes"/>
      <point x="271.6" y="557.2"/>
      <point x="276.5" y="536.2"/>
      <point x="280" y="518.7" type="curve" smooth="yes"/>
      <point x="287" y="486.5"/>
      <point x="289.8" y="453.6"/>
      <point x="289.8" y="420.7" type="curve" smooth="yes"/>
      <point x="289.8" y="410.9"/>
      <point x="289.1" y="401.1"/>
      <point x="289.1" y="390.6" type="curve" smooth="yes"/>
      <point x="284.9" y="302.4"/>
      <point x="286.3" y="212.1"/>
      <point x="277.2" y="121.1" type="curve" smooth="yes"/>
      <point x="274.4" y="91.7002"/>
      <point x="273.7" y="60.9004"/>
      <point x="269.5" y="28.7002" type="curve" smooth="yes"/>
      <point x="268.1" y="18.9004"/>
      <point x="268.1" y="9.7998"/>
      <point x="265.3" y="0.700195" type="curve"/>
      <point x="265.3" y="1.40039" type="line"/>
      <point x="264.6" y="0.700195" type="line"/>
      <point x="264.6" y="0.700195"/>
      <point x="263.9" y="0"/>
      <point x="263.2" y="-0.700195" type="curve" smooth="yes"/>
      <point x="262.5" y="-1.40039"/>
      <point x="261.1" y="-2.7998"/>
      <point x="260.4" y="-4.2002" type="curve"/>
      <point x="259.7" y="-4.90039" type="line"/>
      <point x="258.3" y="-4.90039" type="line" smooth="yes"/>
      <point x="256.9" y="-4.90039"/>
      <point x="256.2" y="-5.59961"/>
      <point x="255.5" y="-5.59961" type="curve"/>
      <point x="251.3" y="-8.40039"/>
      <point x="246.4" y="-11.9004"/>
      <point x="232.4" y="-14" type="curve" smooth="yes"/>
      <point x="221.2" y="-16.7998"/>
      <point x="209.3" y="-16.7998"/>
      <point x="203" y="-16.7998" type="curve"/>
      <point x="203" y="-20.2998"/>
      <point x="203" y="-20.2998"/>
      <point x="203" y="-16.7998" type="curve"/>
      <point x="200.9" y="-16.7998"/>
      <point x="195.3" y="-16.7998"/>
      <point x="193.2" y="-16.7998" type="curve" smooth="yes"/>
      <point x="172.2" y="-16.7998" type="line"/>
      <point x="172.2" y="-13.2998" type="line" smooth="yes"/>
      <point x="172.2" y="50.4004"/>
      <point x="177.8" y="113.4"/>
    </contour>
  </outline>
</glyph>
<glyph name="afii57717" format="2">
  <advance width="664"/>
  <unicode hex="05F1"/>
  <outline>
    <contour>
      <point x="56.7002" y="690.2" type="line"/>
      <point x="62.2998" y="687.4" type="line"/>
      <point x="148.4" y="697.9" type="line"/>
      <point x="142.8" y="685.3" type="line"/>
      <point x="141.4" y="679"/>
      <point x="140.7" y="678.3"/>
      <point x="140.7" y="676.2" type="curve" smooth="yes"/>
      <point x="142.1" y="664.3"/>
      <point x="144.2" y="654.5"/>
      <point x="147.7" y="649.6" type="curve" smooth="yes"/>
      <point x="165.9" y="621.6"/>
      <point x="214.2" y="612.5"/>
      <point x="254.1" y="592.9" type="curve" smooth="yes"/>
      <point x="280.7" y="579.6"/>
      <point x="307.3" y="562.8"/>
      <point x="317.8" y="536.9" type="curve"/>
      <point x="320.6" y="557.9"/>
      <point x="331.1" y="588"/>
      <point x="362.6" y="627.9" type="curve" smooth="yes"/>
      <point x="372.4" y="640.5"/>
      <point x="387.8" y="656.6"/>
      <point x="417.9" y="661.5" type="curve" smooth="yes"/>
      <point x="422.8" y="662.9"/>
      <point x="428.4" y="662.9"/>
      <point x="433.3" y="662.9" type="curve" smooth="yes"/>
      <point x="451.5" y="662.9"/>
      <point x="466.2" y="658"/>
      <point x="478.8" y="653.8" type="curve" smooth="yes"/>
      <point x="508.2" y="643.3"/>
      <point x="549.5" y="618.1"/>
      <point x="573.3" y="579.6" type="curve" smooth="yes"/>
      <point x="585.2" y="560"/>
      <point x="590.1" y="538.3"/>
      <point x="593.6" y="520.8" type="curve" smooth="yes"/>
      <point x="600.6" y="486.5"/>
      <point x="602.7" y="452.9"/>
      <point x="602.7" y="419.3" type="curve" smooth="yes"/>
      <point x="602.7" y="406"/>
      <point x="602.7" y="393.4"/>
      <point x="602" y="380.8" type="curve" smooth="yes"/>
      <point x="600.6" y="343.7"/>
      <point x="602" y="305.2"/>
      <point x="599.9" y="266" type="curve" smooth="yes"/>
      <point x="599.2" y="241.5"/>
      <point x="595.7" y="217.7"/>
      <point x="594.3" y="194.6" type="curve" smooth="yes"/>
      <point x="592.9" y="172.9"/>
      <point x="594.3" y="148.4"/>
      <point x="590.8" y="122.5" type="curve" smooth="yes"/>
      <point x="587.3" y="93.7998"/>
      <point x="586.6" y="61.5996"/>
      <point x="582.4" y="28.7002" type="curve" smooth="yes"/>
      <point x="579.6" y="6.2998"/>
      <point x="577.5" y="0.700195"/>
      <point x="572.6" y="-4.90039" type="curve" smooth="yes"/>
      <point x="571.9" y="-5.59961" type="line"/>
      <point x="571.2" y="-5.59961" type="line"/>
      <point x="570.5" y="-6.2998"/>
      <point x="568.4" y="-7"/>
      <point x="567" y="-7" type="curve"/>
      <point x="564.9" y="-7.7002"/>
      <point x="561.4" y="-10.5"/>
      <point x="553.7" y="-12.5996" type="curve" smooth="yes"/>
      <point x="539.7" y="-16.7998"/>
      <point x="522.9" y="-16.7998"/>
      <point x="515.9" y="-16.7998" type="curve"/>
      <point x="515.9" y="-20.2998"/>
      <point x="515.9" y="-20.2998"/>
      <point x="515.9" y="-16.7998" type="curve"/>
      <point x="514.5" y="-16.7998"/>
      <point x="508.2" y="-16.7998"/>
      <point x="506.1" y="-16.7998" type="curve" smooth="yes"/>
      <point x="484.4" y="-16.7998" type="line"/>
      <point x="484.4" y="-13.2998" type="line" smooth="yes"/>
      <point x="484.4" y="51.0996"/>
      <point x="490.7" y="114.8"/>
      <point x="490.7" y="177.1" type="curve" smooth="yes"/>
      <point x="490.7" y="240.8"/>
      <point x="484.4" y="302.4"/>
      <point x="459.9" y="360.5" type="curve" smooth="yes"/>
      <point x="445.2" y="394.1"/>
      <point x="420.7" y="425.6"/>
      <point x="387.8" y="446.6" type="curve" smooth="yes"/>
      <point x="369.6" y="457.8"/>
      <point x="339.5" y="464.8"/>
      <point x="325.5" y="483" type="curve" smooth="yes"/>
      <point x="324.8" y="483.7" type="line"/>
      <point x="324.8" y="483.7" type="line"/>
      <point x="324.1" y="486.5"/>
      <point x="322.7" y="488.6"/>
      <point x="322" y="490.7" type="curve"/>
      <point x="321.3" y="485.1" type="line" smooth="yes"/>
      <point x="315.7" y="408.8"/>
      <point x="282.8" y="336"/>
      <point x="228.9" y="277.2" type="curve" smooth="yes"/>
      <point x="217.7" y="264.6"/>
      <point x="205.8" y="252"/>
      <point x="192.5" y="240.1" type="curve"/>
      <point x="191.1" y="239.4" type="line"/>
      <point x="189.7" y="239.4" type="line"/>
      <point x="184.1" y="240.8"/>
      <point x="177.8" y="241.5"/>
      <point x="168" y="242.2" type="curve"/>
      <point x="163.8" y="241.5"/>
      <point x="159.6" y="241.5"/>
      <point x="156.1" y="241.5" type="curve" smooth="yes"/>
      <point x="151.2" y="241.5"/>
      <point x="146.3" y="242.2"/>
      <point x="141.4" y="242.9" type="curve"/>
      <point x="141.4" y="242.9" type="line"/>
      <point x="141.4" y="242.9" type="line"/>
      <point x="130.2" y="245.7"/>
      <point x="131.6" y="245"/>
      <point x="128.1" y="246.4" type="curve"/>
      <point x="124.6" y="245.7"/>
      <point x="121.1" y="245"/>
      <point x="119.7" y="244.3" type="curve"/>
      <point x="117.6" y="244.3" type="line"/>
      <point x="116.2" y="245" type="line"/>
      <point x="109.9" y="250.6"/>
      <point x="109.2" y="251.3"/>
      <point x="107.1" y="253.4" type="curve"/>
      <point x="107.1" y="254.1"/>
      <point x="105" y="256.2"/>
      <point x="104.3" y="256.9" type="curve" smooth="yes"/>
      <point x="103.6" y="257.6"/>
      <point x="101.5" y="260.4"/>
      <point x="101.5" y="261.1" type="curve"/>
      <point x="100.8" y="261.8"/>
      <point x="98.7002" y="265.3"/>
      <point x="98.7002" y="266.7" type="curve"/>
      <point x="98" y="269.5"/>
      <point x="97.2998" y="273.7"/>
      <point x="97.2998" y="275.1" type="curve" smooth="yes"/>
      <point x="97.2998" y="275.8" type="line"/>
      <point x="97.2998" y="276.5" type="line"/>
      <point x="98" y="278.6"/>
      <point x="101.5" y="290.5"/>
      <point x="104.3" y="293.3" type="curve" smooth="yes"/>
      <point x="107.8" y="296.8"/>
      <point x="110.6" y="298.9"/>
      <point x="112" y="300.3" type="curve" smooth="yes"/>
      <point x="121.1" y="308"/>
      <point x="129.5" y="317.8"/>
      <point x="138.6" y="326.9" type="curve" smooth="yes"/>
      <point x="146.3" y="335.3"/>
      <point x="182.7" y="373.8"/>
      <point x="182.7" y="404.6" type="curve" smooth="yes"/>
      <point x="182.7" y="408.8"/>
      <point x="182" y="413.7"/>
      <point x="179.9" y="418.6" type="curve"/>
      <point x="177.8" y="420"/>
      <point x="171.5" y="423.5"/>
      <point x="153.3" y="429.1" type="curve" smooth="yes"/>
      <point x="121.8" y="438.9"/>
      <point x="83.2998" y="445.9"/>
      <point x="55.2998" y="462" type="curve"/>
      <point x="55.2998" y="462" type="line"/>
      <point x="55.2998" y="462.7" type="line"/>
      <point x="30.0996" y="487.2"/>
      <point x="19.5996" y="521.5"/>
      <point x="19.5996" y="560" type="curve" smooth="yes"/>
      <point x="19.5996" y="596.4"/>
      <point x="34.2998" y="633.5"/>
      <point x="41.2998" y="650.3" type="curve" smooth="yes"/>
      <point x="45.5" y="660.8"/>
      <point x="52.5" y="676.9"/>
      <point x="55.2998" y="686" type="curve" smooth="yes"/>
    </contour>
  </outline>
</glyph>
<glyph name="enc-90" format="2">
  <advance width="0"/>
  <outline>
    <contour>
      <point x="2.09961" y="0.700195" type="line"/>
      <point x="0.700195" y="2.09961" type="line"/>
    </contour>
  </outline>
</glyph>
